<?xml version="1.0" encoding="utf-8"?>
<!-- Generator: Adobe Illustrator 24.2.1, SVG Export Plug-In . SVG Version: 6.00 Build 0)  -->
<svg version="1.1" id="Layer_1" xmlns="http://www.w3.org/2000/svg" xmlns:xlink="http://www.w3.org/1999/xlink" x="0px" y="0px"
	 viewBox="0 0 652.6 521.4" style="enable-background:new 0 0 652.6 521.4;" xml:space="preserve">
<style type="text/css">
	.st0{fill:#F8E229;}
	.st1{fill:#442A00;}
	.st2{fill:#E90A1D;}
	.st3{fill:#9E8F1A;}
	.st4{fill:#3975BF;}
</style>
<g id="Pop">
	<path class="st0" d="M632.3,205.1l-20.6,14.8c-7.4-3.3-14.5-6.5-16-8c-1.2-1.2-2.8-1.9-4.6-1.9c-1.5,0.1-3,0-4.5,0
		c-0.4-1.2-1.2,1.7,3.5-14.1c0.1-0.2,0.1-0.4,0.2-0.6L632.3,205.1z"/>
	<path class="st0" d="M631.7,262.9l-4.1,1.7l-15.4-6.6c0.7-0.8,1.5-1.6,2.2-2.4L631.7,262.9z"/>
	<path class="st0" d="M620,145.9l-27.3,26.4c-0.6-8.8-3-17.3-7-25.2L620,145.9z"/>
	<polygon class="st0" points="612.9,322.7 579.9,329.2 595.9,308.6 	"/>
	<path class="st0" d="M586.5,96.4l-12.7,34.1c-10.9-11.4-24.7-19.4-40-23.2L586.5,96.4z"/>
	<path class="st0" d="M576.3,378.9L576.3,378.9l-22.7-0.7c-1.5-4.3,0.3-13.3-11.4-15.5c-0.1,0-0.2,0.1-0.2,0.1
		c-3.5,1.7-7.2,2.8-11,3.4c8.5-1.2,16.8-5.4,21.3-11.8c0,0.1-0.1,0.1-0.2,0.2l10,0.8c9.8,16,13,21.4,14,22.9c0,0,0,0,0,0
		c0,0,0,0,0.1,0.1c0,0,0,0.1,0.1,0.1c0,0,0,0.1,0.1,0.1L576.3,378.9L576.3,378.9C576.3,378.9,576.3,378.9,576.3,378.9z"/>
	<path class="st0" d="M560.1,352.3l1.9,3.1h0L560.1,352.3z"/>
	<path class="st0" d="M562,355.5l-10-0.8c0-0.1,0.1-0.1,0.2-0.2c0.9-1.3,1.7-2.7,2.2-4.2c0.1-0.1,0.1-0.3,0.2-0.4
		c0.1-0.1,0.1-0.2,0.1-0.3c0.1-0.2,0.1-0.3,0.2-0.5c0.1-0.3,0.2-0.7,0.3-1c0-0.2,0.1-0.4,0.1-0.6c0.1-0.4,0.2-0.8,0.2-1.2
		c0-0.2,0-0.4,0.1-0.6s0-0.4,0-0.6l3.3,5.4c0.4,0.7,0.8,1.4,1.2,2L562,355.5z"/>
	<path class="st0" d="M558.9,350.4l1.2,2C559.7,351.7,559.3,351,558.9,350.4z"/>
	<path class="st0" d="M556.2,321.6c0.1,0,0.2,0.1,0.3,0.1C556.4,321.7,556.3,321.7,556.2,321.6z"/>
	<path class="st0" d="M555.5,346.2c0-0.2,0-0.4,0.1-0.6C555.5,345.8,555.5,346,555.5,346.2z"/>
	<path class="st0" d="M555.1,348c0.1-0.2,0.1-0.4,0.1-0.6C555.2,347.6,555.2,347.8,555.1,348z"/>
	<path class="st0" d="M554.7,349.5c0.1-0.2,0.1-0.3,0.2-0.5C554.8,349.1,554.8,349.3,554.7,349.5z"/>
	<path class="st0" d="M554.5,321.1c0.2,0.1,0.4,0.1,0.5,0.2C554.9,321.2,554.7,321.2,554.5,321.1z"/>
	<path class="st0" d="M554.4,350.3c0.1-0.1,0.1-0.3,0.2-0.4C554.5,350,554.5,350.1,554.4,350.3z"/>
	<path class="st0" d="M553.6,378.4l-0.1-0.1h0.1C553.6,378.3,553.6,378.3,553.6,378.4z"/>
	<path class="st0" d="M554.2,321c-0.5-0.1-1-0.2-1.5-0.4C553.2,320.8,553.8,320.9,554.2,321z"/>
	<path class="st0" d="M552.5,332.9c-0.2-0.2-0.3-0.5-0.5-0.7C552.2,332.5,552.3,332.7,552.5,332.9z"/>
	<path class="st0" d="M552.4,320.6c-0.2,0-0.4-0.1-0.6-0.1C552,320.5,552.2,320.5,552.4,320.6z"/>
	<path class="st0" d="M551.8,320.4c-0.3-0.1-0.7-0.1-1-0.2C551.1,320.3,551.4,320.3,551.8,320.4z"/>
	<path class="st0" d="M551.5,331.5c-0.1-0.2-0.3-0.4-0.4-0.5C551.2,331.1,551.3,331.3,551.5,331.5z"/>
	<path class="st0" d="M550.4,330.2c-0.2-0.2-0.3-0.3-0.5-0.5C550.1,329.9,550.3,330.1,550.4,330.2z"/>
	<path class="st0" d="M550,329.7c-0.2-0.2-0.3-0.3-0.5-0.5C549.7,329.4,549.8,329.6,550,329.7z"/>
	<path class="st0" d="M550.7,320.2c-0.6-0.1-1.1-0.2-1.7-0.4C549.6,319.9,550.2,320.1,550.7,320.2z"/>
	<path class="st0" d="M548.8,328.6c-0.1-0.1-0.3-0.2-0.4-0.3C548.5,328.4,548.7,328.5,548.8,328.6z"/>
	<path class="st0" d="M546.2,319.2c0.2,0,0.4,0.1,0.7,0.1C546.6,319.3,546.4,319.3,546.2,319.2L546.2,319.2z"/>
	<path class="st0" d="M546.7,327c-0.2-0.1-0.3-0.2-0.5-0.3C546.4,326.8,546.5,326.9,546.7,327z"/>
	<path class="st0" d="M546.2,319.2c-0.5,2.2-1.1,4.4-1.8,6.5c-21.8-10.2-63.7,15.9-33.3,36.9c1.5,1,3.2,1.9,5,2.5
		c-6.6,4.2-10.4,7.9-12.3,11.1c-5.8,9.8,5.2,15.8,8.8,20.7v0l12.3,33.6l-66.6-18.1l1.1,58.1l-57.5-29l-18.6,55L338.9,453l-33.2,53
		L275.8,456l-48,46.9L214.4,447l-57.3,34.2l7.4-56.3l-2.7,21.4l50.6-19.2c2.2-0.8,3.6-2.9,3.5-5.2l-0.7-29l0.4-0.1l20.4-8.9
		c0.3,5.5,0.5,9.5,0.5,9.6c0.1,0.4,0.3,0.9,0.4,1.4l1.8,31.5c0.2,3,2.7,5.3,5.7,5.1c0.6,0,1.2-0.2,1.8-0.4l73.5-30.6
		c2.5-1,3.9-3.8,3.2-6.4l-6.9-25.5c3.5-1.5,5.5-2.4,5.6-2.4c2.5-1.3,4.2-4.6,3.2-7.2c-3.6-10-7.4-29.1-10.3-45.6l3.5,0.1
		c2.2,0.1,4.2-1.2,5.1-3.1l11-23.5c-1.4,7.5-0.8,12.5,3.9,12.5c1.1,0,0.3,0.6,4.9,1l-0.2,0.2l-5.5,24.8c-0.7,2.9,1.2,5.8,4.1,6.5
		c0.3,0.1,0.6,0.1,0.9,0.1l13.2,0.8c2.1,0.1,4-1,5-2.8l36.2-64.4c-2.6,12.5-5,23.9-5.3,25.4c-0.3,2-0.1,4,1.6,5.4
		c1.2,1,2.8,1.6,4.4,1.5h2.1l-4.6,26.3c-0.5,3,1.5,5.8,4.4,6.3c0.3,0.1,0.7,0.1,1,0.1l12.6-0.1c-5,14.8-10.3,31.2-11.5,40.2
		c-0.4,2.3,0.3,4.6,2,6.2l6.8,6.1l-6.5,23c-0.6,2,0.1,4.2,1.7,5.6l36,31.2c2.3,2,5.7,1.7,7.7-0.5c0.9-1,1.3-2.2,1.3-3.5l0.1-25.5
		c2-0.7,3.4-2.7,3.4-4.9c0-5.5-0.1-10.2-0.1-15v0c1-2,21.2-61.6,21.2-61.6c34.2,0.7,45.5-16.7,52.7-23.4c-0.1,0.3-0.2,0.5-0.2,0.8
		c-0.2,1.1-0.2,2.3-0.1,3.5c0.1,1.2,0.4,2.7,1.7,3.4C530,316.1,538.6,317.7,546.2,319.2z"/>
	<path class="st0" d="M530.6,58.7l-12,46.4c-9.6-0.5-19.1,1-28.1,4.2c-1.6,0.5-3.1,1.2-4.5,2.2c-10.6,8.5-2.6,23-9.4,20.8
		c-11.2-3.7-33.3-3-52.6-5c-2.4-0.2-3.6,1.1-4.7,2.8c-0.2,0.3-0.4,0.6-0.5,0.9c-3.2,5.4-17,30.8-17.6,30.8l-0.1,0.1
		c-0.3,1.4-1.2,0.5-1.8,0.6c-1.6-9.1,10.5-36.2,10.5-36.3c2.3-9.7-12.7-6-30-5.3c-2.4,0.1-4.9,0.4-7-1.3c-0.1-0.1-0.4,0-0.5-0.1
		c-0.1,0-20.1-6.6-23.2-6.4c-2.4,0.1-5,2-5.4,4.3c-0.4,2.1-12,30.9-13.5,36.3c-0.4,1.8-0.4,3.6,0,5.3c0.6,3,1,5.9-0.6,8.7
		c-16.5,28.3-17,27.6-29.5,50.3H298c-3-13.4-11-42.7-11-45.5c-0.1-8.7,0-17.4-0.1-26.1c-0.2-8.6,0.1-17.3-0.5-25.9
		c-0.7-10.5-0.2-21.1-0.2-31.6c-0.1-1.2-0.3-2.3-0.8-3.4c-0.5-1.2-3.3-2.8-4.4-2.5c-1.1,0.3-2.2,0.7-3.2,1.3
		c-18.8,9.4-34,18.5-40.4,20.2c-3.8,1-57.2,19.2-65.4,20.1l-6-54.1l58.6,25.6l13.1-57.4L287,74.3l29.4-54l32.9,45.2l44.9-49.7l16,52
		L467,29.6v55.1L530.6,58.7z"/>
	<path class="st0" d="M517.2,365.2c3.9,1.2,8,1.6,12.1,1.2c-4.5,0.5-9,0.1-13.2-1.4c0.1,0,0.2-0.1,0.3-0.2
		C516.6,365,516.9,365.1,517.2,365.2z"/>
	<path class="st0" d="M507.1,241.9c1.4-3.9,10.2-28.5,18.4-22.3c-3.4,9.1-9.7,16.8-17.9,22h0C507.4,241.7,507.3,241.9,507.1,241.9
		C507.1,241.9,507.1,241.9,507.1,241.9z"/>
	<path class="st0" d="M245.7,223.2c12.1,2.7,14.5,15.8,11.6,28.6l-2.9-0.6c0.2-0.9,0.2-1.7,0.1-2.6c0-0.7-0.2-1.4-0.6-1.9
		c-0.4-0.5-1.1-0.5-1.6-0.2c-0.1,0.1-0.2,0.2-0.3,0.3l-2.1-0.1c0.1-0.2,0.2-0.3,0.3-0.5c0.3-0.7-0.3-1.8-1.1-1.6
		c-0.4,0.1-0.5,0.5-0.8,0.8c-0.7,0.9-1.9,1.2-2.9,0.9c-1.2-0.4-2-1.7-3.3-2c-1.1-0.2-2.1,0.3-3.1,0.6c-1.1,0.2-2.1,0.2-3.2,0.1
		c-3.1-0.2-6.1-0.5-9.1-0.9c-1.1-0.1-2.2-0.2-3.3-0.4c-0.8-0.1-1.7-0.2-2.5-0.3l0.2-2.1c2.3,0.3,2.4-2.6,12.2-6.2
		c0.9-0.3,1.6-1.2,1.6-2.1c0-0.9-0.4-1.7-1.2-2.2c-0.1,0-0.1-0.1-0.2-0.1c-0.5-0.1-0.9-0.2-1.4-0.2h0c-0.2,0-0.5,0-0.7-0.1
		c-2.7-0.3-0.1-1.6-3.6-1.7c-0.6,0-1.2,0.1-1.8,0.4l-0.3-0.4C232.4,224.3,239.6,221.8,245.7,223.2z M249.7,239.4
		c4-6.1,0.3-3.7,0.2-10.3c0-0.2,0-0.5-0.1-0.7c-1.8-2.7-11.9,5-4.6,11c1,0.6,2.3,0.9,3.5,0.6c0.3,0,0.5-0.1,0.7-0.2
		C249.5,239.7,249.7,239.6,249.7,239.4z"/>
	<path class="st0" d="M254.5,251.2l2.9,0.6c-3.3,14.8-13.6,29.4-24.1,27.2c-2.5-0.5-4.6-1.9-6-4c-0.6-0.7-1.1-1.5-1.4-2.4
		c-1.1-3.2-1.7-6.3-2.5-7.1c-1.4-1.4-2.2-2.4-4.4-0.2c-1.3,1.2-2,2.9-1.9,4.7c0.2,3.9,3.6,8.9-0.9,14.7c-0.7,0.9-4.1,1.3-5.2,0.8
		c-8-3.5-10.5-11.9-9.5-20.5c0.4-3.3,1.2-6.5,2.2-9.6c0.8-2.4,1.8-4.8,3-7.1c0.2-0.4,0.8-0.6,1.2-0.9l0.2,0
		c19.8,2.2,20.2,0.8,29,2.4c0.3,0,0.5,0.1,0.8,0.2c0.3,0.2,0.5,0.5,0.8,0.7c0.8,0.6,1.7,0.8,2.7,0.8c2.2,0.1,4.6,0.1,6.1-1.5
		c0.6-0.6,1-1.4,1.6-2c0.4-0.4,0.9-0.8,1.3-1.2l2.1,0.1c-0.4,0.4-0.7,0.8-0.9,1.2c-0.1,0.3-0.1,0.7-0.1,1c0,0.9-0.1,1.8-0.4,2.6
		c-0.1,0.2-0.2,0.5-0.3,0.7c-0.1,0.1-0.1,0.2-0.2,0.2c-0.3,0.2-0.5,0.4-0.7,0.6c-0.3,0.6-0.3,1.3,0,2c0.2,0.7,0.2,1.5-0.4,1.9
		c-0.3,0.1-0.6,0.2-0.9,0.3c-0.7,0.3-1.1,1.2-0.8,2c0.3,0.8,1,1.2,1.9,1.2c1.1-0.2,2-0.9,2.6-1.8c0.9-1,1.4-2.3,1.4-3.6
		c-0.1-0.6-0.4-1.3-0.1-1.8c0.2-0.3,0.4-0.5,0.7-0.7C254.1,252.1,254.4,251.7,254.5,251.2z M232.8,264.5c3.1-2.3,9.3-7.5,6.4-10
		c-0.9-0.8-2.2-0.8-3,0c-3.3,2.4-5.6,6.3-6.3,7.1c-0.7,0.6-0.8,1.7-0.1,2.4c0.1,0.1,0.2,0.2,0.3,0.2
		C230.7,265,231.9,265.1,232.8,264.5z M216.1,257c0.4-0.2,0.7-0.7,0.6-1.1c-0.1-0.3-0.3-0.5-0.6-0.7c-2-1.3-6.2-2.6-6.9,0.4
		c-0.2,1.2-0.5,2.4-1.1,3.5c-0.8,1.2-2.6,3.3-1.9,4.9c0.4,0.9,1.5,1.2,2.5,1.3c0.4,0,0.8,0.1,1.2,0.1c1.3,0.6,2.9,0,3.4-1.4
		c0.1-0.3,0.2-0.5,0.2-0.8c0.2-0.6,0.4-1.2,0.4-1.9c0.1-0.7,0-1.3,0.1-2c0-0.7,0.3-1.3,0.8-1.8C215.2,257.4,215.6,257.2,216.1,257z"
		/>
	<path class="st0" d="M236,383.8l-20.4,8.9c2.3-1.9,2.5-4.4,2.3-7.1c-0.1-1.6-1.9-25.4-0.3-26.5c2.8-1.8,7.6-2.8,13.6-6.9
		c0.4,0.6,0.8,1.2,1.1,1.9C234.3,361.2,235.5,374.6,236,383.8z"/>
	<path class="st0" d="M226,231.3c0.4,0.7,0.5,1.6,0.1,2.4c-0.8,1.4-3.1,2.4-5.4,4.5c-0.4,0.3-0.8,0.8-1,1.3
		c-0.2,0.5-0.1,1.1,0.3,1.5c0.4,0.1,0.8,0.3,1.1,0.3l-0.2,2.1c-2-0.2-4-0.4-6-0.6c-1.3-0.1-2.6-0.2-3.9-0.3c0.3-0.4,0.6-0.8,1-1.3
		l0,0c3.9-4.9,8.6-9.2,13.9-12.7l0.3,0.4c-0.3,0.1-0.5,0.4-0.5,0.7C225.6,230.3,225.7,230.8,226,231.3z"/>
	<path class="st0" d="M211,242.5c-1.2,1.5-2.2,3.1-3.1,4.8l-0.2,0c-3.2-0.4-23.4-3-31.6-4.8c-1.2-0.8,0.6-2,0.7-2.1
		C196.7,240.2,207.6,242.3,211,242.5z"/>
	<path class="st0" d="M106.7,117.1l61.1,9.4c-0.4,0.4-0.7,0.9-0.9,1.4c-0.3,1.2-0.6,2.5-0.7,3.8c-1.3,15.1,1.8,19.1-10.1,115.8
		c-0.2,1.4-0.4,2.7-1.5,3.4c-13-8.7-7-6.1-24-6.2c-1.9,0-2.5-0.5-1.7-2.6c5.9-14.7,5.8-10.7,8.5-32.7c2.8-23.3-3.1-39.7-13.4-49.4
		L106.7,117.1z"/>
	<polygon class="st0" points="164.5,424.9 137.8,433.5 137.8,433.5 	"/>
	<path class="st0" d="M139.2,362.2c0-0.1,0-0.2,0-0.4C139.2,361.9,139.2,362,139.2,362.2z"/>
	<path class="st0" d="M139.2,363.2c0-0.1,0-0.3,0-0.4C139.2,362.9,139.2,363.1,139.2,363.2z"/>
	<path class="st0" d="M139.1,418.7l-1.4,14.8l-36.1,11.7c5.6-13.4,8.5-20.5,12-28.7l0.1-0.1c0,0,17.7-13.4,23-28.8
		c0.1-0.8,0.2-1.6,0.3-2.4c0.3-3,0.7-6,1-8.9c-1.6,15.5-4.3,37.1-4.3,37.2c-0.1,3.1,1.4,4.8,4.5,5.2
		C138.5,418.8,138.8,418.8,139.1,418.7z"/>
	<path class="st0" d="M138.6,370.2c0-0.3,0.1-0.6,0.1-0.9C138.6,369.6,138.6,369.9,138.6,370.2z"/>
	<path class="st0" d="M137.9,376.4c0.2-2.2,0.4-4.2,0.6-6.1C138.4,372.1,138.2,374.2,137.9,376.4z"/>
	<path class="st0" d="M118.5,404.8l-0.6,1.4C118.1,405.8,118.3,405.3,118.5,404.8z"/>
	<path class="st0" d="M115.5,412l-0.6,1.3C115.2,412.9,115.3,412.4,115.5,412z"/>
	<path class="st0" d="M114.9,413.5l-0.4,1.1C114.6,414.2,114.7,413.9,114.9,413.5z"/>
	<path class="st0" d="M61.5,403.4l-8.6,0.7l6.8-7.7C60.3,399,60.9,401.4,61.5,403.4z"/>
	<path class="st0" d="M49.2,350.9L27.7,348l18-13C46.9,340.4,48.1,345.7,49.2,350.9z"/>
	<path class="st0" d="M36.8,294.6l-15.3-4.9l12.8-6.2C35.2,287.2,36,290.9,36.8,294.6z"/>
</g>
<g id="Drop">
	<path class="st1" d="M627.6,264.5l-33.8,13.7c5.1-5.9,11.2-12.6,18.4-20.3L627.6,264.5z"/>
	<path class="st1" d="M595.9,308.6l-16,20.6h0l-26.6,5.2c-0.3-0.5-0.5-1-0.8-1.5c-0.2-0.2-0.3-0.5-0.5-0.7c-0.2-0.3-0.4-0.5-0.5-0.8
		c-0.1-0.2-0.3-0.4-0.4-0.5c-0.2-0.2-0.4-0.5-0.6-0.7c-0.1-0.2-0.3-0.3-0.5-0.5c-0.2-0.2-0.3-0.3-0.5-0.5c-0.2-0.2-0.5-0.4-0.7-0.6
		c-0.1-0.1-0.3-0.2-0.4-0.3c-0.5-0.5-1.1-0.9-1.7-1.2c-0.2-0.1-0.3-0.2-0.5-0.3c-0.6-0.4-1.2-0.7-1.9-1c0.7-2.1,1.3-4.3,1.8-6.5
		c0.2,0,0.4,0.1,0.7,0.1c0.8,0.1,1.5,0.3,2.2,0.5c0.6,0.1,1.2,0.3,1.7,0.4c0,0,0,0,0,0c0.3,0.1,0.7,0.2,1,0.2c0.2,0,0.4,0.1,0.6,0.1
		c0.1,0,0.2,0.1,0.3,0.1c0.5,0.1,1,0.2,1.5,0.4c0.1,0,0.2,0.1,0.3,0.1c0.2,0.1,0.4,0.1,0.5,0.2c0.4,0.1,0.8,0.2,1.1,0.3
		c0.1,0,0.2,0.1,0.3,0.1c0.2,0.1,0.5,0.2,0.7,0.3c0.8,0.3,1.7,0.4,2.6,0.2c8.4-1.6,0.6-1.4,20.1-27L595.9,308.6z"/>
	<path class="st1" d="M568.7,238.8c0.4-0.3,0.9-0.6,1.4-0.7c-0.5,1-29.9,56.7-40.8,67.4c-0.7,0.7-1.3,1.6-1.6,2.5
		c-7.2,6.8-18.5,24.1-52.7,23.4c0,0-20.2,59.7-21.2,61.6c0-18.4,1.9-36.5,23.3-92.7c0.4-0.9,1.2-1.5,2.2-1.8
		c4.4-0.4,8.7-0.5,13.1-0.8C513,296.4,546.6,260.7,568.7,238.8z"/>
	<path class="st1" d="M553.6,378.2L553.6,378.2l-37.9-1.2l-10.6-0.4l-1.4-0.5c2-3.3,5.8-6.9,12.3-11.1c4.3,1.4,8.8,1.9,13.2,1.4
		c0.5,0,1.1-0.1,1.6-0.2c3.8-0.5,7.6-1.7,11-3.4c0.1,0,0.2-0.1,0.2-0.1C553.9,364.9,552.1,374,553.6,378.2z"/>
	<path class="st1" d="M525.9,188c3.5,8.5,3.8,20.5-0.4,31.7c-8.2-6.2-17,18.4-18.4,22.3c-0.5,0.2-9.9,4.8-10.1,0
		c-0.2-6,14.9-38,18.3-46.3C515.5,195.1,523.3,181.6,525.9,188z"/>
	<path class="st1" d="M505,376.7l7.4,20.2c-3.5-4.9-14.6-10.9-8.8-20.7L505,376.7z"/>
	<path class="st1" d="M450.5,413l-0.1,25.5c0,3-2.5,5.4-5.5,5.4c-1.3,0-2.6-0.5-3.5-1.3l-36-31.2c-1.6-1.4-2.2-3.6-1.7-5.6l6.5-23
		c28.3,25,17,13.7,32.1,28c0.4,0.5,1,1,1.6,1.3c1.1,0.4,2.3,0.7,3.5,1C448.4,413.4,449.5,413.4,450.5,413z"/>
	<path class="st1" d="M422.1,299c0.2,1.1,0.1,2.3-0.1,3.4c-1.3,5.1-5,15.7-8.9,27.4c-0.1,0.2-0.1,0.4-0.2,0.6l-12.6,0.1
		c-3,0-5.5-2.4-5.5-5.4c0-0.3,0-0.7,0.1-1l4.6-26.3H415c1.8,0,3.6,0,5.4,0C421.3,297.8,422,298.1,422.1,299z"/>
	<path class="st1" d="M402.5,228.7c1.8-2.1,1.8,0,1.3,2.5c-0.7,3.6-4,19.1-7,33.4c-0.1,0.3-0.1,0.6-0.2,0.9v0l-36.2,64.4
		c-1,1.8-3,2.9-5,2.8l-13.2-0.8c-3-0.2-5.3-2.7-5.1-5.7c0-0.3,0.1-0.6,0.1-0.9l5.5-24.8l0.2-0.2h0c2.6,0.2,7.1,0.4,14.8,0.4
		c2.8,0,5.8-2.7,6.2-5.4c0,0,3.4-6,8.2-14.3c5.5-9.6,12.9-22.5,19-33S402.1,229.2,402.5,228.7z"/>
	<path class="st1" d="M349.7,230.2c0.2,0.5,0.5,0.9,0.5,1.4c-1.3,13-12.5,38.3-15.8,54v0c-0.1,0.4-0.1,0.8-0.2,1.1v0l-11,23.5
		c-0.9,2-2.9,3.2-5.1,3.1l-3.5-0.1c-0.1-0.6-0.2-1.3-0.3-1.9c-2.6-14.5-4.5-26.4-5.1-27.6c-1.6-2.9,0-4.1,2.5-4c2.3,0,4.7,0,7,0
		c3.2,0,6-1.9,7.2-4.8c3.7-8.1,15-28.2,22.9-43.9C349,230.8,349.4,230.6,349.7,230.2z"/>
	<path class="st1" d="M323,394c0.7,2.6-0.6,5.4-3.2,6.4L246.3,431c-2.8,1.2-6-0.2-7.1-2.9c-0.2-0.6-0.4-1.2-0.4-1.8l-1.8-31.5
		c0.2,0.8,0.6,1.5,1.1,2.1c2.4,2.4,5.5,2.1,8.4,1.4c0.1,0,52.2-22.4,69.6-29.8L323,394z"/>
	<path class="st1" d="M215.9,421.9c0.1,2.3-1.4,4.4-3.5,5.2l-50.6,19.2l2.7-21.4l-26.7,8.7l1.4-14.8c12.2-0.2,70.2-24.5,73.4-25.2
		c0.9-0.2,1.8-0.5,2.6-0.7L215.9,421.9z"/>
	<path class="st1" d="M139.3,361.4c0,0.1,0,0.3,0,0.4c0,0.1,0,0.2,0,0.4c0,0.2,0,0.4,0,0.6c0,0.1,0,0.3,0,0.4
		c-0.1,1.5-0.3,3.6-0.5,6.1c0,0.3-0.1,0.6-0.1,0.9c-0.2,1.9-0.4,3.9-0.6,6.1c-0.3,2.8-0.6,5.8-1,8.9c-0.1,0.8-0.2,1.6-0.3,2.4
		c-5.2,15.4-23,28.8-23,28.8l-0.1,0.1l0.8-1.9l0.4-1.1l0.1-0.2l0.6-1.3l2.4-5.8l0.6-1.4l2.6-6.2l-32,2.5
		c10.6-6.2,26.3-16.7,49.2-40.8C138.8,360.9,139.3,361.1,139.3,361.4z"/>
	<path class="st1" d="M118.6,292.4c2.8,1.9-8.1,18.5-13,24.5c-0.3,0.4-0.6,0.7-1,1c-2.7,1.6-5.7-8.9-5.4-12c0-0.5,0-1.1,0-1.6
		c-0.2-1.5,0.6-2.9,2-3.5C118.2,291.6,116.8,291.3,118.6,292.4z"/>
	<path class="st1" d="M94.4,220.9c0.2,8.7-5.1,19.1-6.2,19.8c-0.4,0.2-0.9,0.2-1.3,0.3c-2.1-17.1-1.1-10-1.5-14.9
		C84.6,219.1,94.3,216.3,94.4,220.9z"/>
</g>
<g id="Fill">
	<path class="st2" d="M625.5,232.5c1.5,0.8,1.6,1.8,0.4,3.1c-2.4,2.7-6.1,6.8-10.5,11.7c-1.8,2-3.6,4.1-5.6,6.3
		c-7.4,8.4-16,18.3-23.9,27.8c-3.7,4.4-7.2,8.8-10.4,12.9c-6.7,8.5-12.1,16-14.4,20.7c-0.8,1.5-2,2.1-3.5,1.3
		c-5.2-2.7-21.9-4.6-24.4-4.9c-0.4-1.1-0.1-2.4,0.9-3c9.4-8.9,24.7-38.1,54-89.8c1.5-2.7,2.7-2.9,5.3-1.4c2.2,1.2,4.6,2.3,6.9,3.4
		C611.8,226.1,622.8,231,625.5,232.5z"/>
	<path class="st2" d="M580.3,147.4c5.2,9.1,7.7,19.5,7.2,30c-0.1,3-0.4,5.9-0.9,8.8c-0.2,1.3-0.4,2.5-0.7,3.8
		c-0.3,1.3-0.6,2.6-0.9,4c-0.3,1.1-0.6,2.1-0.9,3.3c-0.5,1.5-0.8,3-1.4,4.5c-1,2.4-1.7,4.9-2.2,7.4c-0.4,1.2-0.9,2.4-1.6,3.5
		c-1.9,3.4-4,6.8-5.8,10.3c-2.6,5.1-6.1,9.7-10.3,13.7c-2.5,2.3-4.9,4.8-7.2,7.3c-12.7,13.4-48,50-67.8,48.2
		c-2.2-0.2-11.1-0.2-13,0.8c-0.9,0.7-1.6,1.6-2,2.7c0,0.1-0.5,0.8-3.6,9.2c-23.1,61-19.7,78.6-21.7,102.1c-0.9-0.5-1.7-0.6-2-1
		c-1-2-29.3-24.6-37.9-32.4c-1.4-1.3-1.5-2.1-0.9-3.9c1.8-5,21.1-66.1,21.4-68.8c0.2-1.5,1.1-2.9,1.7-4.4c0-0.1,0.1-0.1,0.1-0.2
		c1.4-3.2,0.7-4.1-2.8-4.1c-9.8,0-19.7,0-29.5,0c-1.5,0-2.2-0.7-1.9-2c2.5-10.3,18.5-87.4,18.5-87.6c3.2-13.6-12.8,16.9-17.5,25
		c-1,1.7-25.6,44.5-34.6,60.2c-1.9,3.4-3.1,5.5-3.2,5.7c-0.9,1.8-4.6,2.2-8.5,2.1c-3.5-0.1-7.1-0.5-10.5-1.1
		c-4-0.8,28.9-102.6,31.8-114.4c0.1-0.5,0.2-1,0.5-1.4c1.2-1.2,1.2-2.6,0.9-4.1c-1.3-0.5-1.6,0.4-2,1.2c-1.7,3.7-3.4,7.5-5.2,11.1
		c-2.4,4.8-4.8,9.5-7.3,14.2c-0.8,1.5-1.9,2.9-2.7,4.4c-2.5,4.8-4.9,9.6-7.3,14.3c-1,2-2.3,3.8-3.4,5.7
		c-26.1,48.5-23.3,49.5-28.1,49.1c-2.1-0.2-4.3,0-6.5-0.2c-2.2-0.2-4.5-0.5-6.7-0.7c-2.3-0.1-2.8,0.9-2.4,3.1
		c5.4,30.2,7.1,38.8,17.4,81.4c0.2,0.8,0.3,1.5,0.2,2.3c-0.1,0.5-38.5,16.7-59.9,25.7l0,0l0,0c-8.2,3.4-13.9,5.8-13.9,5.8
		c-0.7,0.5-1.6,0.3-2.1-0.4c-0.1-0.1-0.2-0.3-0.2-0.4c-0.1-0.3-0.2-0.7-0.2-1c-8.1-63,0.9-44.9-29.2-34.9c-4.4,1.5-4.7,1.6-1.4,32
		c-0.8,0.5-1.5,1.1-2.4,1.7c-0.9,0.5-50.4,18.5-68.1,25.3c-0.7,0.2-1.4,0.4-2.2,0.7c-0.2-1.9-0.6-3.4,0.4-4.8
		c0.1-0.2,0.1-0.6,0.1-0.9c0.5-7.2,6.1-58.3,7.4-64.5c-6.2-3.5-6.9,18.6-70.7,57.8l-9.7,0.8c-8.7-38.4-16.5-73.7-23.1-103.8
		c-0.2-0.8-0.3-1.6-0.5-2.4c-10-45.5-17.3-78.9-21.1-92.8c-0.3-1.5-0.8-3-1.5-4.5c-0.4-0.8-0.1-1.8,0.7-2.2c2.6-2,5.2-4.1,7.9-5.8
		c15.7-10,46.2-39.4,70.4-37.7c5,0.3,10,1.6,14.4,3.9c5.6,3,10.2,7.7,13,13.3c11.3,21.2,4.7,56.2-3.7,71.6c-1.2,2.2-2.7,4.2-4.2,6.1
		c-0.6,0.8-1.1,1.6-0.6,2.4c0.2,0.4,1.2,0.6,1.8,0.6c20.2-0.9,18.6-1.3,21.7-1.4c0.9,0.1,1.8,0.4,2.6,0.9c11,5.9,6.8,9.5,12.7,13.5
		c1.1-0.7,1.8-1.9,1.8-3.3c0.3-3.1,0.5-6.2,0.9-9.2c12.5-89,10.4-113.8,12.2-120.4c0.4-1.3,1.3-2.4,2.5-3
		c34.5-13.5,38-6.3,101.7-39.2c0.9-0.4,1.7-1.1,2.6-1.5c0.6-0.3,1.3-0.5,2-0.6c0.1,1,0.2,1.7,0.2,2.4c0,4.6,0,9.2,0.1,13.9
		c0.2,19.2,0.3,38.5,0.5,57.7c0,3.2-0.1,6.5,0.1,9.7c0.2,1.7,0.6,3.4,1,5c6.5,27.2,6.7,25.8,12.6,51.4c0.2,1.1,0.6,2.1,1.1,3.6
		c0.9-0.9,1.8-1.8,2.5-2.9c2.6-4.6,5-9.2,7.7-13.8c10.1-17.4,26.3-44.6,27.3-46c1.6-2.2,1.2-4.5,0.9-6.8c-0.5-3.4-1.1-6.7,0.3-10
		c14.4-32.7,9.8-32.9,15.7-33.2c8.9-0.4,21.1,8.5,31.8,6.2c0.1,0,22.7-3,20,2.9c0,0.1-7.6,20.4-9.5,32.8
		c-5.3,35.4-5.8,33.4-3.9,34.4c0.2,0.1,1-0.4,1.2-0.8c0.1-0.1,16.8-30.7,16.9-30.8c5.6-10.8,12.9-24.3,14-26.5
		c0.2-0.4,0.3-0.9,0.5-1.3c1.5-3.1,3.5-3.9,7.4-2.9c6.2,1.6,41.4,3.6,41.5,3.6c2.2,0.7,2.3,1.1,1.7,3c-0.7,2.2-1.2,4.4-1.8,6.6
		c-8.1,28.9-15.8,64.5-29.5,114.7c-0.2,0.8-0.4,1.7-0.5,2.5c1.1,0.4,1.6,0.4,2.1-0.6c12.8-30.4,26.1-71.5,36.5-104.5
		c0.3-1.4,0.6-2.8,0.7-4.2c7.6-45.6,5.3-33.5,14.3-39.5c11.9-8,53.9-2.3,77.2,22c1.1,1.1,2.1,2.3,3.1,3.5c1,1.2,1.9,2.4,2.8,3.6
		C578.6,144.5,579.5,145.9,580.3,147.4z M511,245.9c12.8-7.1,27-29.7,22-52.7c-0.6-2-1.1-4.1-1.4-6.2c-0.4-3.9-9.2-11.3-11.3-6.2
		c-0.7,1.8-6.7,7-8.9,10.3c-4.5,6.8-19.1,45.1-19.3,45.9c-0.9,3.3-2.1,6.6-3.7,9.6c-1.5,3.2,1.1,2.7,8,3.5
		C500.2,250.6,507.4,247.9,511,245.9z M249.8,279.8c16.9-15.9,25.3-50.1,3.9-62.9c-15.1-9-31.2,2.9-45.2,13
		c-1.7,1.3-3.8,1.9-5.9,1.9c-7.7-0.1-15.4-0.1-23-0.1c-10.2,0.1-13,11.7-9.2,16.2c5.2,6.2,14.6,6.2,17.5,7.4c2.8,1,4.7,3.6,4.8,6.5
		c0.3,4.3-2,21,12.7,30.1c5.3,3.3,12,2.7,18-3.9c1.3-1.2,3-1.9,4.8-1.9c2.6-0.1,5.3-0.2,7.9,0c2,0,3.9-0.5,5.8-1.3
		C244.8,283.8,247.5,282.1,249.8,279.8z M109.5,320.6c7.1-6.8,17.9-25.1,14.2-32.9c-0.9-2-2.2-2.8-4.2-1.9c-0.6,0.3-1.3,0.5-2,0.6
		c-3.5,0-20,11.1-22.2,12.6c-1.1,0.6-1.7,1.9-1.7,3.1c0.3,10.4,3.9,25,3.9,25.1c0.3,0.8,0.7,1.9,1.4,2.2c1.1,0.5,2.5,0.1,3.1-1
		C104.6,325.7,107,323.1,109.5,320.6z M89.5,251c12.2-19.7,10.4-24.8,10.4-29c0.1-3.6-0.7-6.6-4.2-8.7c-1.7-1.1-3.8-1.4-5.7-0.9
		c-10.5,3-10.6,12.2-10.9,13.6c0,0.1,0.1,0.2,0.1,0.3c1.4,7.5,3.9,29.8,4,29.9c0.2,0.5,0.5,0.9,1,1.1c0.3,0.1,0.9-0.2,1.2-0.5
		C86.7,255,88.2,253.1,89.5,251z"/>
	<path class="st2" d="M550.3,338.9c0.1,1.4,0,7.9-0.6,9.7c-3.8,10.5-24.2,15.2-35,9.7C480.9,340.9,547.8,313,550.3,338.9z"/>
</g>
<g id="big_outline">
	<path class="st3" d="M612.2,257.9c-7.2,7.7-13.3,14.4-18.4,20.3l33.8-13.7l4.1-1.7l-17.3-7.3C613.7,256.4,612.9,257.1,612.2,257.9z
		 M652.6,263l-66.6,27l44.8,37.2l-68.5,13.5l28.4,46.6l-74.2-2.4l20.9,57.2l-71.2-19.4l1.2,60.6l-61.2-30.8l-19.7,58.4l-46.2-45.4
		l-34.9,55.7l-31.4-52.6l-50.8,49.6l-14.2-59l-62.2,37l7.9-60.1l-67.3,21.8l21.1-50.6l-34.4,2.8c-0.1,0.1-0.2,0.2-0.4,0.3
		c-2.6,2.6-6.7,2.8-9.6,0.5l-30.6,2.5l23.6-26.8c-1.8-7.9-4-17.3-6.3-27.7l-44.2-5.9l37-26.8c-1.7-7.5-3.3-15.2-5-22.8L0,291.2
		l32.6-15.7c-7.8-35.1-14.2-64-15.5-66.5c0-0.1-0.1-0.1-0.1-0.2c-0.2-2.8-0.9-5.6-0.6-8.4c1.8-19.1,60.8-46.8,74.5-50.2
		c0.7-0.2,1.3-0.4,2-0.6c0.1,0,0.1-0.1,0.2-0.1c1-0.2,2.1-0.3,3.2-0.3c5.5,0.1,10.9,1.2,16,3.2L94.1,107l69.2,10.6l-6.7-60.3
		l62.4,27.3l13.7-59.8l51.8,37.6l31.1-57.1L350,52.9L397.7,0l17,55.2L475,14.6v58.2l67.3-27.6l-14.2,55.1l70.9-14.7l-19.3,51.9
		c0.4,0.6,0.9,1.2,1.3,1.8l59.5-2.2l-48,46.6c-0.2,1.2-0.3,2.5-0.5,3.8l59.3,13.8l-31.2,22.3c5.4,2.5,9.7,4.6,10.1,5.5
		c0.9,1.9,1.2,4,0.9,6c-0.3,1.5-0.7,2.9-1.2,4.4l-0.1,0.1c-0.1,0.1-0.2,0.2-0.2,0.3c-3.2,3.3-6.3,6.4-9.2,9.5L652.6,263z
		 M611.7,219.8l20.6-14.8l-42.1-9.8c-0.1,0.2-0.1,0.4-0.2,0.6c-4.7,15.8-3.8,12.9-3.5,14.1c1.5,0,3,0.1,4.5,0
		c1.7-0.1,3.4,0.6,4.6,1.9C597.2,213.3,604.3,216.6,611.7,219.8z M625.9,235.6c1.2-1.3,1.1-2.3-0.4-3.1c-2.7-1.4-13.7-6.4-25.2-11.9
		c-2.3-1.1-4.7-2.2-6.9-3.4c-2.6-1.5-3.8-1.3-5.3,1.4c-29.3,51.6-44.7,80.9-54,89.8c-1,0.7-1.3,1.9-0.9,3c2.5,0.3,19.3,2.1,24.4,4.9
		c1.5,0.8,2.7,0.3,3.5-1.3c2.4-4.7,7.7-12.1,14.4-20.7c3.2-4.1,6.8-8.5,10.4-12.9c7.9-9.5,16.5-19.4,23.9-27.8
		c2-2.2,3.8-4.3,5.6-6.3C619.8,242.4,623.4,238.3,625.9,235.6L625.9,235.6z M592.8,172.3l27.3-26.4l-34.3,1.3
		C589.8,155,592.2,163.6,592.8,172.3L592.8,172.3z M579.9,329.2l33-6.5l-17-14.1l-16-13.3c-19.5,25.5-11.6,25.4-20.1,27
		c-0.9,0.2-1.8,0.1-2.6-0.2c-0.2-0.1-0.4-0.2-0.7-0.3c-0.1,0-0.2-0.1-0.3-0.1c-0.3-0.1-0.7-0.2-1.1-0.3c-0.2,0-0.4-0.1-0.5-0.2
		c-0.1,0-0.2,0-0.3-0.1c-0.5-0.1-1-0.3-1.5-0.4c-0.1,0-0.2,0-0.3-0.1c-0.2,0-0.4-0.1-0.6-0.1c-0.3-0.1-0.7-0.1-1-0.2c0,0,0,0,0,0
		c-0.6-0.1-1.1-0.2-1.7-0.4c-0.7-0.1-1.4-0.3-2.2-0.5c-0.2,0-0.4-0.1-0.7-0.1v0c-7.5-1.5-16.2-3.1-17.1-3.6
		c-1.3-0.6-1.5-2.2-1.7-3.4c-0.2-1.1-0.1-2.3,0.1-3.5c0.1-0.3,0.1-0.5,0.2-0.8c0.3-1,0.9-1.8,1.6-2.5c10.9-10.7,40.3-66.4,40.8-67.4
		c-0.5,0.2-0.9,0.4-1.4,0.7c-22.1,21.9-55.7,57.6-76.4,59c-4.4,0.3-8.7,0.4-13.1,0.8c-1,0.2-1.8,0.9-2.2,1.8
		c-21.4,56.2-23.3,74.3-23.3,92.7v0c0,4.8,0.2,9.5,0.1,15c0,2.2-1.3,4.1-3.4,4.9c-1,0.4-2.1,0.4-3.1,0.2c-1.2-0.3-2.4-0.6-3.5-1
		c-0.6-0.3-1.1-0.8-1.6-1.3c-15.1-14.4-3.8-3.1-32.1-28l-6.8-6.1c-1.7-1.6-2.5-3.9-2-6.2c1.2-9,6.5-25.4,11.5-40.2
		c0.1-0.2,0.1-0.4,0.2-0.6c3.9-11.6,7.6-22.2,8.9-27.4c0.3-1.1,0.3-2.2,0.1-3.4c-0.1-0.9-0.9-1.2-1.7-1.2c-1.8,0-3.6,0-5.4,0h-17.6
		c-1.6,0.1-3.2-0.5-4.4-1.5c-1.7-1.5-1.9-3.4-1.6-5.4c0.2-1.5,2.6-13,5.3-25.4v0c0.1-0.3,0.1-0.5,0.2-0.9c3-14.3,6.3-29.8,7-33.4
		c0.5-2.5,0.5-4.6-1.3-2.5c-0.4,0.5-5.2,8.7-11.3,19.2s-13.5,23.3-19,33c-4.8,8.4-8.2,14.3-8.2,14.3c-0.4,2.7-3.5,5.4-6.2,5.4
		c-7.7,0-12.2-0.1-14.8-0.4h0c-4.5-0.4-3.7-1-4.9-1c-4.7,0-5.4-5.1-3.9-12.5v0c0.1-0.4,0.1-0.8,0.2-1.1v0c3.3-15.7,14.5-41,15.8-54
		c0-0.4-0.3-0.9-0.5-1.4c-0.3,0.3-0.7,0.5-0.9,0.9c-7.9,15.6-19.2,35.7-22.9,43.9c-1.2,2.9-4.1,4.8-7.2,4.8c-2.3,0-4.7,0-7,0
		c-2.5-0.1-4.1,1.1-2.5,4c0.6,1.2,2.6,13.1,5.1,27.6c0.1,0.6,0.2,1.2,0.3,1.9c3,16.4,6.7,35.5,10.3,45.6c1,2.6-0.7,6-3.2,7.2
		c0,0-2.1,0.9-5.6,2.4c-17.4,7.4-69.5,29.8-69.6,29.8c-2.9,0.7-6,1-8.4-1.4c-0.5-0.6-0.9-1.3-1.1-2.1c-0.2-0.5-0.3-0.9-0.4-1.4
		c-0.1-0.1-0.2-4.1-0.5-9.6c-0.6-9.2-1.7-22.6-3.8-29.5c-0.3-0.7-0.6-1.3-1.1-1.9c-6,4.1-10.8,5.1-13.6,6.9
		c-1.6,1,0.1,24.8,0.3,26.5c0.2,2.7,0,5.2-2.3,7.1l-0.4,0.1c-0.9,0.2-1.8,0.5-2.6,0.7c-3.2,0.7-61.2,25-73.4,25.2c-0.3,0-0.6,0-1,0
		c-3.1-0.4-4.6-2.1-4.5-5.2c0-0.1,2.6-21.7,4.3-37.2c0.2-2.2,0.4-4.2,0.6-6.1c0-0.3,0.1-0.6,0.1-0.9c0.2-2.5,0.4-4.6,0.5-6.1
		c0-0.1,0-0.3,0-0.4c0-0.2,0-0.5,0-0.6c0-0.1,0-0.2,0-0.4c0-0.2,0-0.3,0-0.4c0-0.3-0.4-0.5-0.9-1c-23,24.1-38.7,34.6-49.2,40.8
		l32-2.5l-2.6,6.2c-0.2,0.5-0.4,1-0.6,1.4l-2.4,5.8c-0.2,0.4-0.4,0.9-0.6,1.3l-0.1,0.2c-0.2,0.4-0.3,0.7-0.4,1.1l-0.8,1.9
		c-3.5,8.3-6.4,15.3-12,28.7l36.1-11.7v0l26.7-8.7l-7.4,56.3l57.3-34.2l13.4,55.9l48-46.9l29.9,50l33.2-53l44.2,43.4l18.6-55
		l57.5,29l-1.1-58.1l66.6,18.1l-12.3-33.6v0l-7.4-20.2l10.6,0.4l37.8,1.2l0.1,0.1c0,0,0-0.1,0-0.1l22.8,0.7l0,0c0,0,0,0,0,0l0,0l0,0
		c0,0,0-0.1-0.1-0.1c0,0,0-0.1-0.1-0.1c-0.1-0.1-0.1-0.1-0.1-0.1c0,0,0,0,0,0c-1-1.5-4.2-6.9-14-22.9h0l-1.9-3.1l-1.2-2l-3.3-5.4
		c0,0.2,0,0.4,0,0.6s0,0.4-0.1,0.6c0,0.4-0.1,0.8-0.2,1.2c0,0.2-0.1,0.4-0.1,0.6c-0.1,0.3-0.2,0.7-0.3,1c0,0.2-0.1,0.4-0.2,0.5
		c0,0.1-0.1,0.2-0.1,0.3c0,0.1-0.1,0.3-0.2,0.4c-0.6,1.5-1.3,2.9-2.2,4.2c-4.5,6.4-12.8,10.5-21.3,11.8c-0.5,0.1-1.1,0.1-1.6,0.2
		c-4.1,0.4-8.2,0-12.1-1.2c-0.3-0.1-0.6-0.2-0.9-0.3c-0.1,0.1-0.2,0.1-0.3,0.2c-1.8-0.6-3.4-1.4-5-2.5c-30.5-20.9,11.5-47,33.3-36.9
		c0.6,0.3,1.3,0.6,1.9,1c0.2,0.1,0.3,0.2,0.5,0.3c0.6,0.4,1.2,0.8,1.7,1.2c0.1,0.1,0.3,0.2,0.4,0.3c0.2,0.2,0.5,0.4,0.7,0.6
		c0.2,0.2,0.3,0.3,0.5,0.5c0.2,0.1,0.3,0.3,0.5,0.5c0.2,0.2,0.4,0.5,0.6,0.7c0.1,0.2,0.3,0.4,0.4,0.5c0.2,0.2,0.4,0.5,0.5,0.8
		c0.2,0.2,0.3,0.5,0.5,0.7c0.3,0.5,0.6,1,0.8,1.5L579.9,329.2L579.9,329.2z M587.6,177.4c0.5-10.5-2-20.9-7.2-30
		c-0.8-1.4-1.7-2.8-2.7-4.2c-0.9-1.2-1.8-2.5-2.8-3.6c-1-1.2-2-2.4-3.1-3.5c-23.3-24.3-65.2-30-77.2-22c-9,6-6.6-6.1-14.3,39.5
		c-0.1,1.4-0.4,2.8-0.7,4.2c-10.4,33-23.7,74.1-36.5,104.5c-0.4,1-0.9,1.1-2.1,0.6c0.2-0.8,0.3-1.7,0.5-2.5
		c13.7-50.2,21.5-85.8,29.5-114.7c0.6-2.2,1.1-4.4,1.8-6.6c0.6-1.9,0.5-2.3-1.7-3c-0.1-0.1-35.3-2-41.5-3.6c-3.8-1-5.8-0.2-7.4,2.9
		c-0.2,0.4-0.3,0.9-0.5,1.3c-1.1,2.2-8.4,15.7-14,26.5c-0.1,0.1-16.8,30.7-16.9,30.8c-0.2,0.4-1,0.9-1.2,0.8c-1.9-1-1.4,1,3.9-34.4
		c1.9-12.4,9.5-32.7,9.5-32.8c2.7-5.9-20-2.9-20-2.9c-10.7,2.3-22.9-6.6-31.8-6.2c-5.9,0.3-1.3,0.5-15.7,33.2
		c-1.5,3.3-0.8,6.6-0.3,10c0.4,2.3,0.7,4.6-0.9,6.8c-1,1.4-17.2,28.6-27.3,46c-2.6,4.6-5.1,9.2-7.7,13.8c-0.8,1-1.6,2-2.5,2.9
		c-0.5-1.5-0.9-2.5-1.1-3.6c-5.8-25.6-6-24.2-12.6-51.4c-0.5-1.6-0.8-3.3-1-5c-0.2-3.2-0.1-6.5-0.1-9.7c-0.2-19.2-0.3-38.5-0.5-57.7
		c0-4.6,0-9.2-0.1-13.9c0-0.7-0.1-1.4-0.2-2.4c-0.7,0.2-1.3,0.4-2,0.6c-0.9,0.4-1.7,1-2.6,1.5c-63.7,32.9-67.2,25.7-101.7,39.2
		c-1.2,0.6-2.1,1.7-2.5,3c-1.7,6.6,0.3,31.5-12.2,120.4c-0.4,3.1-0.6,6.2-0.9,9.2c0,1.3-0.7,2.6-1.8,3.3c-5.9-4-1.7-7.6-12.7-13.5
		c-0.8-0.5-1.7-0.8-2.6-0.9c-3.1,0.1-1.5,0.5-21.7,1.4c-0.6,0-1.6-0.2-1.8-0.6c-0.5-0.8,0-1.6,0.6-2.4c1.6-1.9,3-4,4.2-6.1
		c8.4-15.4,15-50.4,3.7-71.6c-2.9-5.7-7.4-10.3-13-13.3c-4.5-2.3-9.4-3.6-14.4-3.9c-24.1-1.7-54.7,27.7-70.4,37.7
		c-2.8,1.8-5.3,3.9-7.9,5.8c-0.8,0.4-1.1,1.4-0.7,2.2c0.6,1.4,1.1,2.9,1.5,4.5c3.8,13.9,11.1,47.3,21.1,92.8
		c0.2,0.8,0.3,1.6,0.5,2.4c6.6,30.1,14.4,65.4,23.1,103.8l9.7-0.8c63.8-39.1,64.5-61.2,70.7-57.8c-1.4,6.2-6.9,57.4-7.4,64.5
		c0,0.3,0,0.7-0.1,0.9c-1,1.4-0.5,3-0.4,4.8c0.8-0.2,1.5-0.4,2.2-0.7c17.7-6.8,67.2-24.8,68.1-25.3c0.8-0.5,1.6-1.1,2.4-1.7
		c-3.3-30.4-2.9-30.6,1.4-32c30.1-10,21-28.1,29.2,34.9c0,0.3,0.1,0.7,0.2,1c0.2,0.8,1.1,1.3,1.9,1c0.2,0,0.3-0.1,0.4-0.2
		c0,0,5.7-2.4,13.9-5.8l0,0l0,0c21.4-9,59.8-25.1,59.9-25.7c0.1-0.8,0-1.6-0.2-2.3c-10.3-42.5-12-51.1-17.4-81.4
		c-0.4-2.2,0.1-3.2,2.4-3.1c2.2,0.1,4.5,0.5,6.7,0.7c2.2,0.1,4.3,0,6.5,0.2c4.9,0.4,2-0.6,28.1-49.1c1-2,2.3-3.8,3.4-5.7
		c2.5-4.8,4.9-9.6,7.3-14.3c0.8-1.5,1.9-2.9,2.7-4.4c2.5-4.7,4.9-9.4,7.3-14.2c1.8-3.7,3.5-7.4,5.2-11.1c0.4-0.8,0.7-1.7,2-1.2
		c0.3,1.5,0.3,2.9-0.9,4.1c-0.3,0.4-0.5,0.9-0.5,1.4c-3,11.8-35.8,113.7-31.8,114.4c3.5,0.6,7,1,10.5,1.1c3.9,0.1,7.5-0.3,8.5-2.1
		c0.1-0.2,1.3-2.3,3.2-5.7c9-15.7,33.6-58.5,34.6-60.1c4.7-8.1,20.8-38.6,17.5-25c0,0.1-16,77.3-18.5,87.5c-0.3,1.3,0.3,2,1.9,2
		c9.8,0,19.7,0,29.5,0c3.5,0,4.1,0.9,2.8,4.1c0,0.1-0.1,0.1-0.1,0.2c-0.6,1.5-1.5,2.9-1.7,4.4c-0.3,2.6-19.6,63.8-21.4,68.8
		c-0.6,1.8-0.6,2.6,0.9,3.9c8.6,7.8,36.9,30.5,37.9,32.4c0.2,0.5,1.1,0.6,2,1c2-23.4-1.5-41,21.7-102.1c3.1-8.4,3.6-9.1,3.6-9.2
		c0.4-1.1,1.1-2,2-2.7c1.9-1,10.8-1,13-0.8c19.8,1.8,55.1-34.8,67.8-48.2c2.3-2.5,4.7-5,7.2-7.3c4.2-4,7.6-8.6,10.3-13.7
		c1.9-3.5,3.9-6.8,5.8-10.3c0.7-1.1,1.2-2.3,1.6-3.5c0.5-2.5,1.3-5,2.2-7.4c0.6-1.5,1-3,1.4-4.5c0.3-1.1,0.6-2.2,0.9-3.3
		c0.3-1.4,0.7-2.7,0.9-4c0.3-1.3,0.5-2.6,0.7-3.8C587.2,183.3,587.5,180.4,587.6,177.4z M573.8,130.5l12.7-34.1l-52.7,10.9
		C549.1,111.1,563,119.1,573.8,130.5z M549.7,348.6c0.7-1.9,0.8-8.3,0.6-9.7c-2.5-25.9-69.5,2-35.6,19.4
		C525.5,363.9,545.9,359.1,549.7,348.6z M518.7,105.1l12-46.5l-63.6,26V29.6l-56.8,38.2l-16-52l-44.9,49.7l-32.9-45.2l-29.4,54
		l-49.3-35.9l-13.1,57.4L166,70.2l6,54.1c8.2-0.9,61.6-19.1,65.4-20.1c6.3-1.7,21.6-10.8,40.4-20.2c1-0.5,2.1-0.9,3.2-1.3
		c1-0.3,3.9,1.3,4.4,2.5c0.4,1.1,0.7,2.2,0.8,3.4c0.1,10.5-0.5,21.1,0.2,31.6c0.6,8.7,0.3,17.3,0.5,25.9c0.2,8.7,0,17.4,0.1,26.1
		c0,2.8,8,32.1,11,45.5h2.3c12.5-22.7,13-22,29.5-50.3c1.6-2.8,1.2-5.7,0.6-8.7c-0.4-1.7-0.4-3.6,0-5.3c1.5-5.4,13.1-34.2,13.5-36.3
		c0.5-2.3,3-4.2,5.4-4.3c3.1-0.2,23.1,6.4,23.2,6.4c0.2,0.1,0.4,0,0.5,0.1c2.1,1.7,4.6,1.4,7,1.3c17.3-0.7,32.3-4.4,30,5.3
		c0,0.1-12.2,27.2-10.5,36.3c0.6-0.1,1.5,0.8,1.8-0.6l0.1-0.1c0.6,0,14.4-25.4,17.6-30.8c0.2-0.3,0.4-0.6,0.5-0.9
		c1.1-1.7,2.4-3,4.7-2.8c19.3,2,41.3,1.3,52.6,5c6.7,2.2-1.2-12.3,9.4-20.8c1.4-1,2.9-1.7,4.5-2.2
		C499.6,106.1,509.1,104.7,518.7,105.1z M167.8,126.4l-61.1-9.4l17.2,42.9c10.3,9.7,16.2,26.1,13.4,49.4c-2.6,22-2.6,18-8.5,32.7
		c-0.8,2.1-0.3,2.6,1.7,2.6c17,0.1,11-2.5,24,6.2c1.1-0.8,1.4-2,1.5-3.4c11.9-96.7,8.8-100.7,10.1-115.8c0.2-1.3,0.4-2.5,0.7-3.8
		C167,127.3,167.3,126.8,167.8,126.4z M52.9,404l8.6-0.7c-0.5-2-1.1-4.4-1.8-7L52.9,404z M27.7,348l21.5,2.9
		c-1.2-5.2-2.3-10.4-3.5-15.9L27.7,348z M21.5,289.7l15.3,4.9c-0.8-3.7-1.6-7.4-2.4-11.1L21.5,289.7z"/>
	<path class="st3" d="M533,193.2c5,23-9.2,45.6-22,52.7c-3.5,1.9-10.8,4.7-14.5,4.3c-6.9-0.8-9.5-0.3-8-3.5c1.6-3.1,2.8-6.3,3.7-9.6
		c0.2-0.8,14.8-39.1,19.3-45.9c2.2-3.3,8.1-8.6,8.9-10.3c2.1-5.1,10.9,2.4,11.3,6.2C531.9,189.1,532.4,191.2,533,193.2z
		 M525.5,219.7c4.2-11.2,3.8-23.2,0.4-31.7c-2.6-6.3-10.3,7.1-10.6,7.7C511.9,204,496.8,236,497,242c0.2,4.7,9.6,0.2,10.1,0
		c0,0,0,0,0,0c0.2-0.1,0.3-0.2,0.5-0.3h0C515.8,236.5,522.1,228.8,525.5,219.7L525.5,219.7z"/>
	<path class="st3" d="M254.6,248.6c0.1,0.9,0.1,1.7-0.1,2.6c-0.1,0.5-0.4,0.9-0.8,1.2c-0.3,0.2-0.5,0.4-0.7,0.7l-2.8-0.6
		c0.1-0.1,0.2-0.1,0.2-0.2c0.1-0.2,0.2-0.4,0.3-0.7c0.3-0.8,0.4-1.7,0.4-2.6c0-0.3,0-0.7,0.1-1c0.3-0.4,0.6-0.8,0.9-1.2
		c0.1-0.1,0.2-0.2,0.3-0.3c0.5-0.4,1.2-0.3,1.6,0.2C254.5,247.2,254.7,247.9,254.6,248.6z"/>
	<path class="st3" d="M253.7,216.9c21.4,12.8,13,47-3.9,62.9c-2.3,2.2-5,4-8,5.1c-1.8,0.8-3.8,1.2-5.8,1.3c-2.6-0.1-5.3-0.1-7.9,0
		c-1.8,0-3.5,0.6-4.8,1.9c-6,6.5-12.7,7.1-18,3.9c-14.7-9.1-12.4-25.8-12.7-30.1c-0.1-3-2-5.5-4.8-6.5c-2.9-1.2-12.3-1.2-17.5-7.4
		c-3.7-4.4-0.9-16.1,9.2-16.2c7.7,0,15.4-0.1,23,0.1c2.1,0.1,4.2-0.6,5.9-1.9C222.5,219.8,238.6,207.9,253.7,216.9z M257.4,251.8
		c2.9-12.8,0.5-25.9-11.6-28.6c-6.2-1.4-13.3,1.1-19.9,5.4c-5.2,3.5-9.9,7.7-13.9,12.7l0,0c-0.3,0.4-0.7,0.9-1,1.3
		c-3.5-0.2-14.4-2.3-34.2-2.1c-0.1,0-1.9,1.3-0.7,2.1c8.2,1.8,28.3,4.4,31.6,4.8c-0.4,0.3-1,0.5-1.2,0.9c-1.1,2.3-2.1,4.7-3,7.1
		c-1,3.1-1.7,6.3-2.2,9.6c-1,8.6,1.5,17,9.5,20.5c1.2,0.5,4.6,0.1,5.2-0.8c4.6-5.8,1.1-10.8,0.9-14.7c-0.1-1.8,0.6-3.5,1.9-4.7
		c2.1-2.2,3-1.2,4.4,0.2c0.8,0.8,1.3,4,2.5,7.1c0.4,0.8,0.9,1.6,1.4,2.4c1.4,2.1,3.5,3.5,6,4C243.7,281.2,254,266.6,257.4,251.8z"/>
	<path class="st3" d="M253.2,254.9c0.1,1.4-0.4,2.7-1.4,3.7c-0.6,1-1.5,1.6-2.6,1.8c-0.8,0.1-1.6-0.4-1.9-1.2
		c-0.3-0.8,0.1-1.6,0.8-2c0.3-0.1,0.6-0.2,0.9-0.3c0.6-0.4,0.5-1.2,0.4-1.9c-0.3-0.6-0.3-1.3,0-2c0.2-0.2,0.4-0.5,0.7-0.6l2.8,0.6
		C252.7,253.7,253.1,254.3,253.2,254.9z"/>
	<path class="st3" d="M249.3,244.6c0.8-0.3,1.4,0.8,1.1,1.6c-0.1,0.2-0.2,0.4-0.3,0.5c-0.4,0.5-0.9,0.8-1.3,1.2
		c-0.6,0.6-1,1.4-1.6,2c-1.5,1.6-4,1.6-6.1,1.5c-0.9,0.1-1.9-0.2-2.7-0.8c-0.2-0.3-0.5-0.5-0.8-0.7c-0.2-0.1-0.5-0.2-0.8-0.2
		c-8.8-1.6-9.1-0.2-29-2.4c0.9-1.7,2-3.3,3.1-4.8c1.3,0.1,2.6,0.2,3.9,0.3c2,0.2,4,0.4,6,0.6c0.8,0.1,1.7,0.2,2.5,0.3
		c1.1,0.1,2.2,0.2,3.3,0.4c3,0.4,6.1,0.7,9.1,0.9c1.1,0.1,2.2,0.1,3.2-0.1c1-0.2,2.1-0.8,3.1-0.6c1.3,0.3,2.1,1.6,3.3,2
		c1.1,0.4,2.2,0,2.9-0.9C248.8,245.1,249,244.7,249.3,244.6z"/>
	<path class="st3" d="M249.9,229.1c0.1,6.6,3.9,4.2-0.2,10.3c-0.1,0.2-0.2,0.3-0.4,0.4c-0.2,0.1-0.5,0.2-0.7,0.2
		c-1.2,0.2-2.4,0-3.5-0.6c-7.3-6,2.8-13.7,4.6-11C249.9,228.6,249.9,228.9,249.9,229.1z"/>
	<path class="st3" d="M239.1,254.5c2.9,2.5-3.3,7.7-6.4,10c-0.9,0.6-2.1,0.5-2.8-0.2c-0.8-0.6-0.9-1.6-0.4-2.4
		c0.1-0.1,0.1-0.2,0.2-0.3c0.7-0.8,2.9-4.6,6.3-7.1C236.9,253.7,238.3,253.7,239.1,254.5z"/>
	<path class="st3" d="M233.8,230.7c0.8,0.4,1.2,1.3,1.2,2.2c-0.1,1-0.7,1.8-1.6,2.1c-9.8,3.6-9.9,6.5-12.2,6.2
		c-0.4-0.1-0.8-0.2-1.1-0.3c-0.4-0.4-0.5-1-0.3-1.5c0.2-0.5,0.6-0.9,1-1.3c2.3-2.1,4.6-3.1,5.4-4.5c0.4-0.7,0.3-1.6-0.1-2.4
		c-0.3-0.5-0.5-1.1-0.4-1.6c0.1-0.3,0.3-0.6,0.5-0.7c0.6-0.3,1.2-0.4,1.8-0.4c3.4,0.1,0.9,1.4,3.6,1.7c0.2,0,0.5,0.1,0.7,0.1h0
		c0.5,0,0.9,0.1,1.4,0.2C233.7,230.7,233.8,230.7,233.8,230.7z"/>
	<path class="st3" d="M216.7,255.9c0.1,0.5-0.2,0.9-0.6,1.1c-0.4,0.2-0.8,0.4-1.2,0.6c-0.5,0.5-0.8,1.1-0.8,1.8
		c-0.1,0.7,0,1.3-0.1,2c-0.1,0.6-0.2,1.3-0.4,1.9c-0.1,1.4-1.4,2.5-2.9,2.4c-0.3,0-0.5-0.1-0.8-0.2c-0.4-0.1-0.8-0.1-1.2-0.1
		c-1-0.1-2.1-0.4-2.5-1.3c-0.7-1.6,1.2-3.6,1.9-4.9c0.5-1.1,0.9-2.3,1.1-3.5c0.8-3,5-1.7,6.9-0.4
		C216.3,255.3,216.6,255.6,216.7,255.9z"/>
	<path class="st3" d="M123.8,287.7c3.7,7.9-7.2,26.2-14.2,32.9c-2.6,2.5-4.9,5.1-7.3,7.9c-0.7,1-2,1.4-3.1,1c-0.7-0.3-1-1.4-1.4-2.2
		c0-0.1-3.6-14.8-3.9-25.1c-0.1-1.3,0.5-2.5,1.7-3.1c2.2-1.5,18.7-12.6,22.2-12.6c0.7-0.1,1.4-0.3,2-0.6
		C121.5,284.8,122.8,285.7,123.8,287.7z M105.6,316.9c4.9-6,15.8-22.6,13-24.5c-1.8-1.2-0.4-0.9-17.5,8.4c-1.4,0.6-2.2,2-2,3.5
		c0,0.5,0,1.1,0,1.6c-0.2,3.1,2.8,13.5,5.4,12C104.9,317.6,105.3,317.3,105.6,316.9z"/>
	<path class="st3" d="M99.9,222c-0.1,4.2,1.7,9.3-10.4,29c-1.3,2.1-2.7,4-4.2,5.9c-0.2,0.3-0.9,0.6-1.2,0.5c-0.5-0.2-0.8-0.7-1-1.1
		c0-0.1-2.6-22.5-4-29.9c0-0.1-0.1-0.2-0.1-0.3c0.2-1.4,0.4-10.6,10.9-13.6c2-0.5,4-0.2,5.7,0.9C99.2,215.4,100,218.4,99.9,222z
		 M88.2,240.7c1.1-0.7,6.4-11.1,6.2-19.8c-0.1-4.6-9.7-1.8-9.1,5.2c0.5,4.9-0.6-2.2,1.5,14.9C87.3,240.9,87.7,240.9,88.2,240.7z"/>
</g>
<path id="letter_outline_1_" class="st4" d="M625.5,232.5c1.5,0.8,1.6,1.8,0.4,3.1c-2.4,2.7-6.1,6.8-10.5,11.7
	c-1.8,2-3.6,4.1-5.6,6.3c-7.4,8.4-16,18.3-23.9,27.8c-3.7,4.4-7.2,8.8-10.4,12.9c-6.7,8.5-12.1,16-14.4,20.7c-0.8,1.6-2,2.1-3.5,1.3
	c-5.2-2.7-21.9-4.6-24.4-4.9c-0.4-1.1-0.1-2.4,0.9-3c9.4-8.9,24.7-38.1,54-89.8c1.5-2.7,2.7-2.9,5.3-1.4c2.2,1.2,4.6,2.3,6.9,3.4
	C611.8,226.1,622.8,231,625.5,232.5z M224.6,95.8 M59.7,396.3c0.7,2.7,1.2,5,1.8,7L59.7,396.3z M67,402.9
	c-8.7-38.4-16.5-73.7-23.1-103.8c-0.2-0.8-0.4-1.6-0.5-2.4c-10-45.5-17.3-78.9-21.1-92.8c-0.3-1.5-0.8-3-1.5-4.5
	c-0.4-0.8-0.1-1.8,0.7-2.2c2.6-2,5.2-4.1,7.9-5.8c15.7-10,46.2-39.4,70.4-37.7c5,0.3,10,1.6,14.4,3.9c5.6,3,10.2,7.7,13,13.3
	c11.3,21.2,4.7,56.2-3.7,71.6c-1.2,2.2-2.7,4.2-4.2,6.1c-0.6,0.8-1.1,1.6-0.6,2.4c0.2,0.4,1.2,0.6,1.8,0.6
	c20.2-0.9,18.6-1.3,21.7-1.4c0.9,0.1,1.8,0.4,2.6,0.9c11,5.9,6.8,9.5,12.7,13.5c1.1-0.7,1.8-1.9,1.8-3.3c0.3-3.1,0.5-6.2,0.9-9.2
	c12.5-89,10.5-113.8,12.2-120.4c0.4-1.3,1.3-2.4,2.5-3c34.5-13.5,38-6.3,101.7-39.2c0.9-0.5,1.7-1,2.6-1.5c0.6-0.3,1.3-0.5,2-0.6
	c0.1,1,0.2,1.7,0.2,2.4c0,4.6,0,9.2,0.1,13.9c0.2,19.2,0.3,38.5,0.5,57.7c0,3.2-0.1,6.5,0.1,9.7c0.2,1.7,0.6,3.4,1,5
	c6.5,27.2,6.7,25.8,12.6,51.4c0.2,1.1,0.7,2.1,1.1,3.6c0.9-0.9,1.8-1.8,2.5-2.9c2.6-4.6,5-9.2,7.7-13.8c10.1-17.4,26.3-44.6,27.3-46
	c1.6-2.2,1.2-4.5,0.9-6.8c-0.5-3.4-1.1-6.7,0.3-10c14.4-32.7,9.8-33,15.7-33.2c8.9-0.4,21.1,8.5,31.8,6.2c0.1,0,22.7-3,20,2.9
	c0,0.1-7.6,20.4-9.5,32.8c-5.3,35.4-5.8,33.5-3.9,34.5c0.2,0.1,1-0.4,1.2-0.8c0.1-0.1,16.8-30.7,16.9-30.8
	c5.6-10.8,12.9-24.3,14-26.5c0.2-0.4,0.3-0.9,0.5-1.3c1.5-3.1,3.5-3.9,7.4-2.9c6.2,1.6,41.4,3.6,41.5,3.6c2.2,0.7,2.3,1.1,1.7,3
	c-0.7,2.2-1.2,4.4-1.8,6.6c-8.1,28.9-15.8,64.5-29.5,114.7c-0.2,0.8-0.4,1.7-0.5,2.5c1.1,0.4,1.6,0.4,2.1-0.6
	c12.8-30.4,26.1-71.5,36.5-104.5c0.3-1.4,0.6-2.8,0.7-4.2c7.6-45.6,5.3-33.5,14.3-39.5c11.9-8,53.9-2.3,77.2,22
	c1.1,1.1,2.1,2.3,3.1,3.5c1,1.2,1.9,2.4,2.8,3.6c0.9,1.3,1.8,2.7,2.7,4.2c5.2,9.1,7.7,19.5,7.2,30c-0.1,3-0.4,5.9-0.9,8.8
	c-0.2,1.3-0.4,2.5-0.7,3.8c-0.3,1.3-0.6,2.7-0.9,4c-0.3,1.1-0.6,2.2-0.9,3.3c-0.5,1.5-0.8,3-1.4,4.5c-1,2.4-1.7,4.9-2.2,7.4
	c-0.4,1.2-0.9,2.4-1.6,3.5c-1.9,3.4-4,6.8-5.8,10.3c-2.6,5.1-6.1,9.7-10.3,13.7c-2.5,2.3-4.9,4.8-7.2,7.3
	c-12.7,13.4-48,50-67.8,48.2c-2.2-0.2-11.1-0.2-13,0.8c-0.9,0.7-1.6,1.6-2,2.7c0,0.1-0.5,0.8-3.7,9.2c-23.1,61-19.7,78.7-21.7,102
	c-0.9-0.4-1.7-0.6-2-1c-1-1.9-29.3-24.6-37.9-32.4c-1.4-1.3-1.5-2.1-0.8-3.9c1.8-5,21.1-66.1,21.4-68.8c0.2-1.5,1.1-2.9,1.7-4.4
	c0-0.1,0.1-0.1,0.1-0.2c1.4-3.2,0.7-4.1-2.8-4.1c-9.8,0-19.7,0-29.5,0c-1.5,0-2.2-0.7-1.9-2c2.5-10.3,18.5-87.4,18.5-87.5
	c3.2-13.6-12.8,16.9-17.5,25c-1,1.7-25.6,44.5-34.6,60.1c-1.9,3.4-3.1,5.5-3.2,5.7c-0.9,1.8-4.6,2.2-8.5,2.1
	c-3.5-0.1-7.1-0.5-10.5-1.1c-4-0.8,28.9-102.6,31.8-114.4c0.1-0.5,0.2-1,0.5-1.4c1.2-1.2,1.2-2.7,0.9-4.2c-1.3-0.5-1.6,0.4-2,1.2
	c-1.7,3.7-3.4,7.5-5.2,11.1c-2.4,4.8-4.8,9.5-7.3,14.2c-0.8,1.5-1.9,2.9-2.7,4.4c-2.5,4.8-4.8,9.6-7.3,14.3c-1,2-2.3,3.8-3.3,5.7
	c-26.1,48.5-23.3,49.5-28.2,49.1c-2.1-0.2-4.3,0-6.5-0.2c-2.2-0.2-4.5-0.5-6.7-0.7c-2.3-0.1-2.8,0.9-2.4,3.1
	c5.4,30.2,7.1,38.8,17.4,81.4c0.2,0.8,0.3,1.5,0.2,2.3c-0.1,0.5-38.5,16.7-59.9,25.7l0,0l0,0c-8.2,3.4-13.9,5.8-13.9,5.8
	c-0.1,0.1-0.3,0.2-0.4,0.2c-0.8,0.2-1.6-0.2-1.9-1c-0.1-0.3-0.2-0.7-0.2-1c-8.1-63,0.9-44.9-29.2-34.9c-4.4,1.4-4.7,1.6-1.4,32
	c-0.8,0.5-1.5,1.2-2.4,1.7c-0.9,0.5-50.4,18.5-68.1,25.3c-0.7,0.2-1.3,0.4-2.2,0.7c-0.2-1.9-0.6-3.4,0.4-4.8
	c0.1-0.2,0.1-0.6,0.1-0.9c0.5-7.2,6.1-58.3,7.4-64.5c-6.2-3.5-6.9,18.6-70.7,57.8l-8.9,3.9L67,402.9z M89.1,401.1
	c10.6-6.2,26.3-16.7,49.2-40.8c0.5,0.5,0.9,0.8,0.9,1c0,0.1,0,0.3,0,0.4c0,0.1,0,0.2,0,0.4c0,0.2,0,0.4,0,0.6c0,0.1,0,0.3,0,0.4
	c-0.1,1.5-0.3,3.6-0.5,6.1c0,0.3-0.1,0.6-0.1,0.9c-0.2,1.9-0.4,3.9-0.6,6.1c-1.7,15.5-4.3,37.1-4.3,37.2c-0.1,3.1,1.5,4.8,4.5,5.2
	c0.3,0,0.6,0.1,1,0c12.2-0.2,70.2-24.5,73.5-25.2c0.9-0.2,1.8-0.5,2.6-0.7l0.4-0.1c2.3-1.9,2.5-4.4,2.3-7.1
	c-0.2-1.6-1.9-25.4-0.3-26.5c2.8-1.8,7.6-2.8,13.6-6.8c0.4,0.6,0.8,1.2,1,1.9c2.1,6.9,3.2,20.4,3.8,29.5c0.3,5.5,0.5,9.5,0.5,9.6
	c0.1,0.4,0.3,0.9,0.5,1.4c0.2,0.8,0.6,1.5,1.1,2.1c2.4,2.4,5.5,2.1,8.4,1.4c0.1,0,52.2-22.3,69.6-29.8c3.5-1.5,5.5-2.4,5.6-2.4
	c2.5-1.3,4.2-4.7,3.2-7.2c-3.6-10-7.4-29.1-10.3-45.6c-0.1-0.6-0.2-1.3-0.3-1.9c-2.6-14.5-4.5-26.4-5.1-27.6c-1.6-2.9,0-4.1,2.5-4
	c2.3,0,4.7,0,7,0c3.2,0,6-1.9,7.2-4.8c3.7-8.1,15-28.2,22.9-43.9c0.2-0.3,0.6-0.6,0.9-0.9c0.2,0.5,0.5,0.9,0.5,1.4
	c-1.3,13-12.5,38.3-15.8,54v0c-0.1,0.4-0.1,0.8-0.2,1.1v0c-1.4,7.5-0.8,12.5,3.9,12.5c1.1,0,0.3,0.6,4.9,1h0
	c2.6,0.2,7.1,0.4,14.8,0.4c2.8,0,5.8-2.7,6.2-5.4c0,0,3.4-6,8.2-14.3c5.5-9.6,12.9-22.5,19-33c6.1-10.5,10.9-18.7,11.3-19.2
	c1.8-2.2,1.8,0,1.3,2.5c-0.7,3.6-4,19.1-7,33.4c-0.1,0.3-0.1,0.6-0.2,0.8v0c-2.6,12.5-5,23.9-5.3,25.4c-0.3,2-0.1,4,1.6,5.4
	c1.2,1,2.8,1.6,4.4,1.5H415c1.8,0,3.6,0,5.4,0c0.9,0,1.6,0.3,1.7,1.2c0.2,1.1,0.1,2.3-0.1,3.4c-1.3,5.1-5,15.7-8.9,27.4
	c-0.1,0.2-0.1,0.4-0.2,0.6c-5,14.8-10.3,31.2-11.5,40.2c-0.4,2.3,0.3,4.6,2,6.2l6.8,6.1c28.3,25,17,13.7,32.1,28
	c0.4,0.5,1,1,1.6,1.3c1.1,0.4,2.3,0.7,3.5,1c1,0.2,2.1,0.2,3.1-0.2c2-0.7,3.4-2.7,3.4-4.9c0-5.5-0.1-10.2-0.1-15v0
	c0-18.4,1.9-36.5,23.3-92.7c0.4-0.9,1.2-1.5,2.2-1.8c4.4-0.4,8.7-0.5,13.1-0.8c20.7-1.4,54.3-37.1,76.4-59c0.4-0.3,0.9-0.6,1.4-0.7
	c-0.5,1-29.9,56.7-40.8,67.4c-0.7,0.7-1.3,1.6-1.6,2.5c-0.1,0.3-0.2,0.5-0.2,0.8c-0.2,1.1-0.2,2.3-0.1,3.5c0.1,1.2,0.4,2.7,1.7,3.4
	c1,0.5,9.6,2,17.1,3.6v0c0.2,0.1,0.4,0.1,0.7,0.1c0.8,0.2,1.5,0.3,2.2,0.5c0.6,0.1,1.2,0.3,1.7,0.4c0,0,0,0,0,0
	c0.3,0.1,0.7,0.2,1,0.2c0.2,0,0.4,0.1,0.6,0.2c0.1,0,0.2,0.1,0.3,0.1c0.5,0.1,1,0.2,1.5,0.4c0.1,0,0.2,0.1,0.3,0.1
	c0.2,0.1,0.4,0.1,0.5,0.2c0.4,0.1,0.8,0.2,1.1,0.3c0.1,0,0.2,0.1,0.3,0.1c0.2,0.1,0.5,0.2,0.7,0.3c0.8,0.3,1.7,0.4,2.6,0.2
	c8.4-1.6,0.6-1.4,20.1-27l6.2-5.3l34.3-40.7c2.9-3,6-6.2,9.2-9.5c0.1-0.1,0.2-0.2,0.2-0.3l0.1-0.1c0.5-1.4,0.9-2.9,1.2-4.4
	c0.3-2,0-4.1-0.9-6c-0.4-0.9-4.7-3-10.1-5.5l-8.4-3.8c-7.4-3.3-14.5-6.5-16-8c-1.2-1.2-2.8-1.9-4.6-1.9c-1.5,0.1-3,0-4.5,0
	c-0.4-1.2-1.2,1.7,3.5-14.1c0.1-0.2,0.1-0.4,0.2-0.6l1.8-7.8c0.2-1.3,0.4-2.5,0.5-3.8l0.2-11.4c-0.6-8.8-3-17.3-7-25.2l-4.7-7.8
	c-0.4-0.6-0.9-1.2-1.3-1.8l-5.9-7.1c-10.9-11.4-24.7-19.4-40-23.2l-15.2-2.2c-9.6-0.5-19.1,1-28.1,4.2c-1.6,0.5-3.1,1.2-4.5,2.2
	c-10.6,8.5-2.6,23-9.4,20.8c-11.2-3.7-33.3-3-52.6-5c-2.4-0.2-3.6,1.1-4.7,2.8c-0.2,0.3-0.4,0.6-0.5,0.9c-3.2,5.4-17,30.8-17.6,30.8
	l-0.1,0.1c-0.3,1.4-1.2,0.5-1.8,0.6c-1.6-9.1,10.5-36.2,10.5-36.3c2.3-9.7-12.7-6-30-5.3c-2.4,0.1-4.9,0.4-7-1.3
	c-0.1-0.1-0.3,0-0.5-0.1c-0.1,0-20.1-6.6-23.2-6.4c-2.4,0.1-5,2-5.4,4.3c-0.4,2.1-12,30.8-13.5,36.3c-0.4,1.8-0.4,3.6,0,5.3
	c0.6,3,1,5.9-0.6,8.7c-16.5,28.3-17,27.6-29.5,50.3H298c-3-13.4-11-42.7-11-45.5c-0.2-8.7,0-17.4-0.1-26.1
	c-0.2-8.6,0.1-17.3-0.5-25.9c-0.7-10.5-0.2-21.1-0.2-31.6c-0.1-1.2-0.3-2.3-0.8-3.4c-0.5-1.2-3.3-2.8-4.4-2.5
	c-1.1,0.3-2.2,0.7-3.2,1.3c-18.8,9.4-34,18.6-40.4,20.2c-3.8,1-57.2,19.2-65.5,20.1l-4.2,2.1c-0.4,0.4-0.7,0.9-1,1.4
	c-0.3,1.2-0.6,2.5-0.7,3.8c-1.3,15.1,1.8,19.1-10.1,115.8c-0.2,1.4-0.5,2.7-1.5,3.4c-13-8.7-7-6.1-24-6.2c-1.9,0-2.5-0.5-1.7-2.6
	c5.9-14.7,5.8-10.7,8.5-32.7c2.8-23.3-3.1-39.6-13.4-49.4l-11.6-7.5c-5.1-2.1-10.5-3.2-16-3.2c-1.1,0-2.1,0.1-3.2,0.3
	c-0.1,0-0.1,0-0.2,0.1c-0.7,0.2-1.3,0.4-2,0.6c-13.7,3.4-72.7,31.2-74.5,50.2c-0.3,2.8,0.4,5.6,0.7,8.5c0,0.1,0,0.1,0.1,0.2
	c1.3,2.5,7.7,31.4,15.5,66.5l1.8,8c0.8,3.6,1.6,7.4,2.4,11.1l2,9c1.7,7.6,3.4,15.3,5,22.8l1.9,8.5c1.2,5.4,2.4,10.7,3.5,15.9
	l1.9,8.3c2.2,9.9,4.3,19,6.1,26.7l5.4,25.4c2.8,2.4,8.8,2.1,11.4-0.5c0.1-0.1,0.2-0.2,0.4-0.3L89.1,401.1z M553.3,334.4
	c-0.3-0.5-0.5-1-0.8-1.5c-0.2-0.2-0.3-0.5-0.5-0.7c-0.2-0.3-0.4-0.5-0.5-0.8c-0.1-0.2-0.3-0.4-0.4-0.5c-0.2-0.2-0.4-0.5-0.6-0.7
	c-0.2-0.2-0.3-0.3-0.5-0.5c-0.2-0.2-0.3-0.3-0.5-0.5c-0.2-0.2-0.5-0.4-0.7-0.6c-0.1-0.1-0.3-0.2-0.4-0.3c-0.5-0.5-1.1-0.9-1.7-1.2
	c-0.2-0.1-0.3-0.2-0.5-0.3c-0.6-0.4-1.2-0.7-1.9-1c-21.8-10.2-63.7,15.9-33.3,36.9c1.5,1,3.2,1.9,5,2.5c0.1-0.1,0.2-0.1,0.3-0.2
	c0.3,0.1,0.6,0.2,0.9,0.3c3.9,1.2,8,1.6,12.1,1.2c0.5,0,1.1-0.1,1.6-0.2c8.5-1.2,16.8-5.4,21.3-11.8c0.9-1.3,1.7-2.7,2.2-4.2
	c0.1-0.1,0.1-0.3,0.2-0.4c0.1-0.1,0.1-0.2,0.1-0.3c0.1-0.2,0.1-0.3,0.2-0.5c0.1-0.3,0.2-0.7,0.3-1c0.1-0.2,0.1-0.4,0.1-0.6
	c0.1-0.4,0.2-0.8,0.2-1.2c0-0.2,0.1-0.4,0.1-0.6c0-0.2,0-0.4,0-0.6L553.3,334.4z M549.7,348.6c-3.8,10.4-24.1,15.2-35,9.7
	c-33.9-17.4,33-45.4,35.6-19.4C550.5,340.3,550.4,346.8,549.7,348.6z M496.4,250.2c3.7,0.5,11-2.4,14.5-4.3
	c12.8-7.1,27-29.7,22-52.7c-0.6-2-1.1-4.1-1.4-6.2c-0.4-3.9-9.2-11.3-11.3-6.2c-0.7,1.8-6.7,7-8.9,10.3
	c-4.5,6.8-19.1,45.1-19.3,45.9c-0.9,3.3-2.1,6.6-3.7,9.6C486.9,249.9,489.5,249.4,496.4,250.2z M515.3,195.7
	c0.2-0.6,8-14.1,10.6-7.7c3.4,8.5,3.8,20.5-0.4,31.7h0c-3.4,9.1-9.7,16.8-17.9,22h0c-0.2,0.1-0.3,0.2-0.5,0.3c0,0,0,0,0,0
	c-0.5,0.2-9.9,4.8-10.1,0C496.8,236,511.9,204,515.3,195.7z M253.8,252.4c0.4-0.3,0.6-0.8,0.8-1.2c0.2-0.9,0.2-1.7,0.1-2.6
	c0-0.7-0.2-1.4-0.6-1.9c-0.4-0.5-1.1-0.5-1.6-0.2c-0.1,0.1-0.2,0.2-0.3,0.3c-0.4,0.4-0.7,0.8-0.9,1.2c-0.1,0.3-0.1,0.7-0.1,1
	c0,0.9-0.1,1.8-0.3,2.6c-0.1,0.2-0.2,0.5-0.3,0.7c-0.1,0.1-0.1,0.2-0.2,0.2l2.8,0.6C253.2,252.8,253.5,252.6,253.8,252.4z
	 M187.9,255.3c2.8,1,4.7,3.6,4.8,6.5c0.3,4.3-2,21,12.7,30.2c5.3,3.3,12,2.7,18-3.9c1.3-1.2,3-1.9,4.8-1.9c2.6-0.1,5.3-0.2,7.9,0
	c2,0,3.9-0.5,5.8-1.3c3-1.1,5.7-2.9,8-5.1c16.9-15.9,25.3-50.1,3.9-62.9c-15.1-9-31.2,2.9-45.2,13c-1.7,1.3-3.8,1.9-5.9,1.9
	c-7.7-0.2-15.3-0.1-23-0.1c-10.2,0.1-13,11.7-9.2,16.2C175.6,254.1,185,254.2,187.9,255.3z M176.9,240.4c19.8-0.2,30.7,1.8,34.2,2.1
	c0.3-0.4,0.6-0.8,1-1.3l0,0c3.9-4.9,8.6-9.2,13.8-12.7c6.6-4.3,13.7-6.8,19.9-5.4c12.1,2.7,14.5,15.8,11.6,28.6
	c-3.3,14.8-13.7,29.4-24.1,27.2c-2.5-0.5-4.6-1.9-6-4c-0.6-0.7-1.1-1.5-1.4-2.4c-1.1-3.2-1.7-6.3-2.5-7.1c-1.4-1.4-2.2-2.4-4.4-0.2
	c-1.3,1.2-2,2.9-1.9,4.7c0.2,3.8,3.7,8.9-0.9,14.7c-0.7,0.9-4.1,1.3-5.2,0.8c-8-3.5-10.5-11.9-9.5-20.5c0.4-3.3,1.2-6.5,2.2-9.6
	c0.8-2.4,1.8-4.8,3-7.1c0.2-0.4,0.8-0.6,1.2-0.9c-3.2-0.4-23.4-3-31.6-4.8C174.9,241.7,176.8,240.4,176.9,240.4z M249.2,260.4
	c1.1-0.2,2-0.9,2.6-1.8c0.9-1,1.4-2.3,1.4-3.6c-0.1-0.6-0.4-1.3-0.1-1.8l-2.8-0.6c-0.3,0.2-0.5,0.4-0.7,0.6c-0.3,0.6-0.3,1.3,0,2
	c0.2,0.7,0.2,1.5-0.4,1.9c-0.3,0.1-0.6,0.2-1,0.3c-0.7,0.3-1.1,1.2-0.8,2C247.7,260,248.4,260.5,249.2,260.4z M236.9,249.7
	c0.3,0,0.5,0.1,0.8,0.2c0.3,0.2,0.5,0.5,0.8,0.7c0.8,0.6,1.7,0.8,2.7,0.8c2.2,0.1,4.6,0.1,6.1-1.5c0.6-0.6,1-1.4,1.6-2
	c0.4-0.4,0.9-0.8,1.3-1.2c0.1-0.2,0.2-0.3,0.3-0.5c0.3-0.7-0.3-1.8-1-1.6c-0.3,0.1-0.5,0.5-0.8,0.8c-0.7,0.9-1.9,1.2-2.9,0.8
	c-1.2-0.4-2-1.7-3.3-2c-1-0.2-2.1,0.3-3.1,0.6c-1.1,0.2-2.1,0.2-3.2,0.1c-3.1-0.2-6.1-0.5-9.1-0.9c-1.1-0.1-2.2-0.2-3.3-0.4
	c-0.8-0.1-1.7-0.2-2.5-0.3c-2-0.2-4-0.4-6-0.6c-1.3-0.1-2.6-0.2-3.9-0.3c-1.2,1.5-2.2,3.1-3.1,4.8
	C227.7,249.5,228.1,248.1,236.9,249.7z M249.9,229.1c0-0.2,0-0.5-0.1-0.7c-1.8-2.7-11.9,5-4.6,11c1,0.6,2.3,0.9,3.5,0.6
	c0.3,0,0.5-0.1,0.7-0.2c0.2-0.1,0.3-0.3,0.4-0.4C253.8,233.3,250,235.7,249.9,229.1z M230,264.3c0.7,0.8,1.9,0.9,2.8,0.2
	c3.1-2.3,9.3-7.5,6.4-10c-0.9-0.8-2.2-0.8-3,0c-3.3,2.4-5.6,6.2-6.3,7c-0.1,0.1-0.2,0.2-0.2,0.3C229,262.6,229.2,263.7,230,264.3z
	 M233.8,230.7c-0.1,0-0.1-0.1-0.2-0.1c-0.5-0.1-0.9-0.2-1.4-0.2h0c-0.2,0-0.5,0-0.7-0.1c-2.7-0.3-0.1-1.6-3.6-1.7
	c-0.6,0-1.2,0.1-1.8,0.4c-0.3,0.1-0.5,0.4-0.5,0.7c0,0.6,0.1,1.2,0.5,1.6c0.4,0.7,0.5,1.6,0.1,2.4c-0.8,1.4-3.1,2.4-5.4,4.5
	c-0.4,0.3-0.8,0.8-1,1.3c-0.2,0.5-0.1,1.1,0.3,1.5c0.4,0.1,0.8,0.3,1.1,0.3c2.3,0.3,2.4-2.6,12.2-6.2c0.9-0.3,1.6-1.2,1.7-2.2
	C235.1,232,234.6,231.2,233.8,230.7z M206.1,264c0.4,0.9,1.5,1.2,2.5,1.3c0.4,0,0.8,0.1,1.2,0.2c0.3,0.1,0.5,0.2,0.8,0.2
	c1.4,0.1,2.7-0.9,2.9-2.4c0.2-0.6,0.4-1.2,0.4-1.9c0.1-0.7,0-1.3,0-2c0-0.7,0.3-1.3,0.8-1.8c0.4-0.2,0.8-0.4,1.2-0.6
	c0.4-0.2,0.7-0.7,0.6-1.1c-0.1-0.3-0.3-0.5-0.6-0.7c-2-1.3-6.2-2.6-6.9,0.4c-0.2,1.2-0.5,2.4-1.1,3.5
	C207.3,260.3,205.5,262.4,206.1,264z M119.6,285.7c-0.6,0.3-1.3,0.5-2,0.6c-3.5,0-20,11.1-22.2,12.6c-1.1,0.6-1.7,1.9-1.7,3.1
	c0.3,10.4,3.9,25,4,25.1c0.3,0.8,0.7,1.9,1.4,2.2c1.1,0.5,2.5,0.1,3.1-1c2.3-2.7,4.7-5.4,7.3-7.9c7.1-6.8,17.9-25.1,14.2-32.9
	C122.8,285.7,121.5,284.8,119.6,285.7z M105.6,316.9c-0.3,0.4-0.6,0.7-1,1c-2.6,1.6-5.7-8.9-5.4-12c0-0.5,0-1.1,0-1.6
	c-0.2-1.5,0.6-2.9,2-3.5c17.1-9.3,15.7-9.6,17.5-8.4C121.4,294.3,110.5,310.9,105.6,316.9z M99.9,222c0.1-3.6-0.7-6.6-4.2-8.7
	c-1.7-1.1-3.8-1.4-5.7-0.9c-10.5,3-10.6,12.2-10.9,13.6c0,0.1,0.1,0.2,0.1,0.3c1.4,7.5,3.9,29.8,4,29.9c0.2,0.5,0.5,0.9,1,1.1
	c0.3,0.1,0.9-0.2,1.2-0.5c1.4-1.9,2.9-3.9,4.2-5.9C101.6,231.3,99.8,226.2,99.9,222z M88.2,240.7c-0.4,0.2-0.9,0.2-1.3,0.3
	c-2.1-17.1-1-10-1.5-14.9c-0.7-7,9-9.8,9.1-5.2C94.6,229.6,89.2,240,88.2,240.7z"/>
</svg>
