<?xml version="1.0" encoding="utf-8"?>
<!-- Generator: Adobe Illustrator 25.0.1, SVG Export Plug-In . SVG Version: 6.00 Build 0)  -->
<svg version="1.1" id="Layer_1" xmlns="http://www.w3.org/2000/svg" xmlns:xlink="http://www.w3.org/1999/xlink" x="0px" y="0px"
	 viewBox="0 0 641 373" style="enable-background:new 0 0 641 373;" xml:space="preserve">
<style type="text/css">
	.st0{fill:#E90A1D;}
	.st1{fill:#6D1717;}
	.st2{fill:#FFFFFF;}
	.st3{fill:#F7F17F;}
	.st4{fill:#3D3D21;}
	.st5{fill:#4B8EE1;}
	.st6{fill:#7C1111;}
	.st7{fill:#CECE0F;}
	.st8{fill:#C91F88;}
	.st9{fill:#18B20B;}
</style>
<rect x="166.5" y="137.5" class="st0" width="102" height="95"/>
<path d="M556.2,258.6c-0.9,0-1.8-0.2-2.7-0.7c-1.3-0.7-6.3-2.5-23-4.5h-0.3c-1.1-0.1-2.1-0.9-2.5-2c-0.9-2.4-0.1-5,1.8-6.4
	c7.2-7,18.6-27.3,37.4-60.7c4.8-8.5,10.1-17.9,15.9-28.2c0.6-1,2.1-3.9,5.3-3.9c1.6,0,3,0.7,4.1,1.3c1.6,0.9,3.5,1.8,5.3,2.6
	l1.4,0.7c5.2,2.5,10.3,4.9,14.5,6.8c5.4,2.5,9.3,4.3,10.9,5.2c1.9,1,2.5,2.4,2.7,3.4c0.3,1.5-0.3,2.9-1.6,4.3
	c-1.6,1.8-3.8,4.2-6.4,7.1l-4.1,4.5c-0.8,0.9-1.6,1.8-2.4,2.7c-1,1.2-2.1,2.4-3.2,3.6c-9.4,10.6-17.2,19.7-23.8,27.7
	c-3.1,3.7-6.4,7.8-10.3,12.8c-7.3,9.3-12.1,16.1-14.1,20.2v0.1C560,257.5,558.2,258.6,556.2,258.6z"/>
<path d="M588.2,155.2c0.7,0,1.5,0.3,2.6,0.9c2.2,1.2,4.6,2.3,6.9,3.4c11.5,5.5,22.5,10.4,25.2,11.9c1.5,0.8,1.6,1.8,0.4,3.1
	c-2.4,2.7-6.1,6.8-10.5,11.7c-1.8,2-3.6,4.1-5.6,6.3c-7.4,8.4-16,18.3-23.9,27.8c-3.7,4.4-7.2,8.8-10.4,12.9
	c-6.7,8.5-12.1,16-14.4,20.7c-0.6,1-1.3,1.7-2.2,1.7c-0.4,0-0.8-0.1-1.3-0.4c-5.2-2.7-21.9-4.6-24.4-4.9c-0.4-1.1-0.1-2.4,0.9-3
	c9.4-8.9,24.7-38.1,54-89.8C586.3,156,587.1,155.2,588.2,155.2 M588.2,149.2L588.2,149.2c-3.3,0-6,1.8-8,5.4
	c-5.8,10.3-11.2,19.8-15.9,28.2c-17.9,31.9-29.8,53.1-36.7,59.9c-2.9,2.2-4,6.1-2.7,9.7c0.8,2.1,2.7,3.6,4.9,3.9h0.4
	c17,2,21.3,3.8,22,4.2c1.3,0.7,2.7,1,4.1,1c3.1,0,5.9-1.8,7.5-4.8c0-0.1,0.1-0.1,0.1-0.2c1.3-2.7,4.7-8.2,13.7-19.6
	c3.9-5,7.2-9.1,10.3-12.8c6.7-8,14.4-17.1,23.8-27.7c1.1-1.3,2.2-2.5,3.2-3.6c0.8-0.9,1.6-1.8,2.4-2.7l4-4.4
	c2.6-2.9,4.9-5.4,6.5-7.3c2.4-2.6,2.5-5.1,2.3-6.8c-0.2-1.4-1.1-3.9-4.2-5.6c-1.6-0.9-4.9-2.4-11-5.3c-4.1-1.9-9.3-4.3-14.4-6.8
	c-0.5-0.2-0.9-0.4-1.4-0.7c-1.8-0.8-3.6-1.7-5.2-2.6C592.3,150.1,590.4,149.2,588.2,149.2L588.2,149.2z"/>
<path d="M136.8,357c-0.5,0-1.1-0.2-1.6-0.4c-0.8-0.5-1.3-1.3-1.4-2.2c0-0.3-0.1-0.5-0.1-0.8c-0.2-1.6-0.4-3.4,0.6-5.3v-0.1
	c0.4-5.9,4.4-42.8,6.5-58.5c-0.3,0.4-0.7,0.9-1,1.3c-7.1,8.9-22,27.4-64.2,53.3c-0.4,0.2-0.9,0.4-1.3,0.4l-9.7,0.8
	c-0.1,0-0.2,0-0.2,0c-1.4,0-2.6-1-2.9-2.3C52,301.5,43.8,264,38.4,239.4c-0.1-0.4-0.2-0.8-0.3-1.3c-0.1-0.3-0.1-0.7-0.2-1l-1.5-6.8
	c-9.3-42.2-16-72.8-19.6-85.9c0-0.1,0-0.1,0-0.2c-0.3-1.3-0.7-2.5-1.3-3.8c-0.5-1-0.6-2.3-0.2-3.4c0.3-1.1,1-2,2-2.6l1.2-0.9
	c2.2-1.7,4.4-3.4,6.8-4.9c3.6-2.3,8-5.6,13.1-9.5c15.8-12.4,37.6-29,56.7-29c0.8,0,1.5,0,2.3,0.1c5.5,0.3,10.9,1.8,15.6,4.2
	c6.2,3.3,11.2,8.5,14.3,14.6c11.7,22,5.2,57.9-3.7,74.4c-0.9,1.6-1.9,3.1-3,4.5c11.7-0.5,14.8-0.9,16.5-1.1c0.8-0.1,1.4-0.2,2.5-0.2
	h0.1c0.1,0,0.2,0,0.3,0c1.3,0.1,2.6,0.6,3.8,1.3c7.3,3.9,8.8,7.3,10,9.9c0.1,0.1,0.1,0.3,0.2,0.4c0-0.3,0-0.6,0.1-0.8
	c0.2-2.1,0.4-4.2,0.6-6.3c8.7-62.1,10.3-93.1,11.1-108c0.4-7,0.5-10.5,1.2-12.8c0.7-2.2,2.1-3.9,4.1-4.9c0.1,0,0.2-0.1,0.2-0.1
	c11.9-4.7,20.3-6.9,28.4-9.1c15.4-4.1,31.3-8.4,73-30c0.1,0,0.1-0.1,0.2-0.1c0.2-0.1,0.6-0.3,0.9-0.5c0.5-0.3,1-0.7,1.6-0.9
	c0.8-0.4,1.8-0.7,2.9-0.9c0.1,0,0.3,0,0.4,0c0.7,0,1.3,0.2,1.9,0.6c0.6,0.5,1.1,1.2,1.1,2.1l0.1,0.7c0.1,0.7,0.1,1.3,0.1,2
	c0,4.5,0,9.2,0.1,13.8c0.1,9.6,0.2,19.3,0.3,28.9c0.1,9.6,0.1,19.2,0.2,28.8c0,0.8,0,1.6,0,2.5c0,2.3,0,4.7,0.1,7
	c0.2,1.5,0.6,3.1,0.9,4.5c3,12.5,4.6,19,6.1,24.7c1.7,6.5,3.1,12.1,5.9,24.2c0.6-1,1.1-2,1.7-3.1c1.5-2.7,3-5.6,4.7-8.4
	c9.7-16.7,26.3-44.6,27.4-46.2c0.8-1.1,0.7-2.2,0.4-4.3v-0.3l-0.1-0.5c-0.5-3.4-1.1-7.2,0.6-11.1c6.4-14.5,9-22.6,10.5-27
	c1.9-5.8,2.5-7.8,7.9-8c0.3,0,0.5,0,0.7,0c4.2,0,8.7,1.6,13.4,3.2c4.7,1.7,9.6,3.4,14.1,3.4c1.1,0,2.1-0.1,3.1-0.3
	c0.1,0,0.2,0,0.3-0.1h0.1c2.4-0.3,7-0.8,11.4-0.8c6.4,0,9.8,1,11.3,3.3c0.8,1.3,0.9,2.9,0.3,4.4c-0.1,0.2-0.1,0.4-0.2,0.6
	C398.3,81.8,395,93,394,100c-1.5,10.1-2.6,17-3.4,22.1c-0.1,0.4-0.1,0.7-0.2,1.1c1.2-2.2,2.5-4.6,3.7-6.8
	c5.9-10.7,7.7-14.1,8.4-15.3l0,0c3.3-6.4,7.3-13.8,10.2-19.2c1.9-3.6,3.4-6.4,3.8-7.2c0-0.1,0.1-0.2,0.1-0.3c0.1-0.3,0.2-0.7,0.4-1
	c1.6-3.3,4-5,7.3-5c1,0,2.2,0.2,3.5,0.5c5.5,1.4,37.6,3.3,40.9,3.5c0.3,0,0.5,0.1,0.8,0.1c3.7,1.2,4.8,3.2,3.7,6.8
	c-0.4,1.4-0.8,2.8-1.2,4.3c-0.2,0.7-0.4,1.5-0.6,2.2c-3.7,13.3-7.4,28.1-11.6,45.1c-2.7,11.1-5.7,22.9-9,35.9
	c8.2-22.7,16.2-47.6,23.4-70.5c0.3-1.3,0.5-2.5,0.6-3.6c0-0.1,0-0.2,0-0.3l0.8-4.5c2.6-15.9,4-23.8,5.2-28.1c1.4-4.9,2.9-6.1,6-7.1
	c1-0.3,2.1-0.7,3.6-1.7c4.8-3.2,12.2-3.9,17.5-3.9c19,0,46.1,8.1,63.5,26.3c1.2,1.1,2.2,2.4,3.2,3.7c1,1.2,1.9,2.4,2.8,3.6
	c1,1,2,2.5,3,4.3c5.5,9.5,8.1,20.5,7.5,31.6c-0.1,3.1-0.4,6.1-0.9,9.2c-0.2,1.4-0.4,2.6-0.7,4c-0.3,1.3-0.6,2.6-0.9,4
	c0,0.1,0,0.1,0,0.2l-0.3,1.1c-0.2,0.7-0.4,1.4-0.6,2.1c0,0.1,0,0.1-0.1,0.2c-0.2,0.6-0.3,1.1-0.5,1.7c-0.3,1-0.5,2-1,3
	c-0.9,2.1-1.5,4.3-2,6.9c0,0.1-0.1,0.2-0.1,0.4c-0.5,1.6-1.1,2.9-1.9,4.1c-0.7,1.2-1.4,2.4-2.1,3.6c-1.2,2.1-2.5,4.3-3.6,6.5
	c-2.7,5.3-6.4,10.2-10.9,14.5c-2.1,2-4.4,4.2-7.1,7.2c-31.4,33.1-53.8,49.2-68.6,49.2c-0.6,0-1.2,0-1.7-0.1c-0.5,0-1.6-0.1-3.3-0.1
	c-4.4,0-7,0.3-7.9,0.5c-0.3,0.3-0.5,0.6-0.7,1c-0.1,0.2-0.1,0.4-0.2,0.5c-0.8,1.8-2.3,5.8-3.4,8.8c-18.9,50-19.9,70.9-20.8,89.3
	c-0.2,4.1-0.4,7.9-0.7,12c-0.1,1-0.7,1.9-1.6,2.4c-0.4,0.2-0.9,0.4-1.4,0.4s-1-0.1-1.5-0.4c-0.2-0.1-0.4-0.2-0.7-0.3
	c-0.7-0.3-1.6-0.6-2.3-1.5c0-0.1-0.1-0.1-0.1-0.2c-1.4-1.6-11.1-9.7-19-16.3c-7.2-6-14.6-12.1-18.4-15.5c-2.6-2.4-2.6-4.6-1.7-7.1
	c2.1-5.8,20.7-65,21.3-68.3c0.2-1.5,0.8-2.7,1.3-3.9c0.2-0.4,0.3-0.7,0.5-1.1c0-0.1,0.1-0.2,0.1-0.3h-29.5c-2.2,0-3.4-0.9-4-1.7
	c-0.8-1.1-1.1-2.5-0.8-3.9c2-8.2,12.3-57.5,16.6-78.2c-2.4,4.1-4.9,8.7-6.6,11.7c-1.4,2.5-2.6,4.6-3.4,6.1c-1,1.7-25.9,45-34.6,60.2
	c-1,1.8-1.9,3.3-2.4,4.3c-0.4,0.7-0.6,1.1-0.7,1.3c-1.7,3.3-6.6,3.7-10.1,3.7c-0.4,0-0.8,0-1.2,0c-3.5-0.1-7.3-0.5-10.9-1.1
	c-1-0.2-1.8-0.7-2.2-1.6c-1-1.6-1.9-3.1,6.9-34c4.8-17,11.2-37.6,16.3-54.3c0.9-2.8,1.7-5.5,2.5-8.1c-0.5,1-1.1,2-1.6,3
	c-0.5,0.9-1,1.7-1.5,2.4s-0.9,1.3-1.2,2c-1.6,3.1-3.2,6.3-4.8,9.4c-0.8,1.6-1.6,3.2-2.4,4.8c-0.7,1.3-1.5,2.6-2.2,3.8
	c-0.4,0.7-0.9,1.4-1.3,2.1c-10.3,19.1-16.1,31-19.6,38c-5.2,10.4-6.2,12.6-10.2,12.6c-0.3,0-0.7,0-1.1-0.1c-0.9-0.1-1.9-0.1-3-0.1
	s-2.3,0-3.6-0.1c-1.1-0.1-2.3-0.2-3.4-0.4c-0.8-0.1-1.6-0.2-2.4-0.3c5.4,30.3,7.2,39.2,17.3,80.7c0.2,0.9,0.4,2,0.3,3.4
	c0,0.1,0,0.1,0,0.2c-0.3,1.7-0.5,1.8-8.1,5.1c-3.6,1.6-8.9,3.9-15.6,6.7c-9.6,4.1-22.4,9.5-38,16c-7.2,3-12.5,5.2-13.7,5.7
	c-0.7,0.4-1.4,0.6-2.2,0.6c-1.4,0-2.7-0.7-3.6-1.8c-0.3-0.3-0.6-0.9-0.8-1.6c-0.1-0.4-0.2-0.9-0.3-1.5c-1.5-11.7-2.4-20.7-3.1-27.3
	c-0.7-7-1.3-12.7-2-14.9c-0.8,0.4-2,1.1-3.1,1.8c-3.6,2.2-9,5.4-17,8.1c-0.4,0.2-1.1,0.4-1.2,0.5c-1,1.6,0.3,14,1.9,28.3
	c0.1,1.1-0.4,2.3-1.4,2.9c-0.4,0.2-0.7,0.5-1.1,0.7c-0.4,0.3-0.8,0.6-1.3,0.9c-0.1,0-0.1,0.1-0.2,0.1c-0.5,0.3-2.2,0.9-22.6,8.4
	c-16,5.9-35.9,13.2-45.9,17.1c-0.1,0-0.2,0.1-0.3,0.1c-0.7,0.2-1.3,0.4-2,0.6C137.5,356.9,137.2,357,136.8,357z M114.9,228.4
	c-2.3,0.3-12.4,6.5-20.6,12.1c-0.1,0.1-0.2,0.1-0.3,0.2c0,0-0.1,0.2-0.1,0.5c0.2,7.7,2.4,18.1,3.7,23.8c0.8-0.8,1.5-1.6,2.2-2.3
	c1.7-1.8,3.2-3.4,4.9-5.1c7.2-6.9,16.4-23.7,13.6-29.5c-0.1-0.2-0.2-0.4-0.2-0.5c-0.8,0.4-1.8,0.7-2.8,0.8
	C115.1,228.4,115,228.4,114.9,228.4z M193,200.6c0,0.7,0,1.4,0,2.4c0,5.9-0.1,18.2,11.3,25.3c1.6,1,3.3,1.5,5,1.5
	c3.1,0,6.3-1.7,9.2-4.9c0.1-0.1,0.1-0.1,0.2-0.2c1.9-1.7,4.3-2.7,6.8-2.7c1.4-0.1,3-0.1,4.6-0.1c1.3,0,2.4,0,3.4,0.1
	c1.4,0,2.8-0.4,4.5-1.1c0.1,0,0.1,0,0.2-0.1c2.5-0.9,4.8-2.3,6.8-4.3c10.5-9.9,17-26.6,15.6-39.9c-0.6-5.7-3-13.5-11.1-18.4
	c-3.1-1.9-6.3-2.8-9.9-2.8c-10.4,0-21.6,8.1-31.4,15.2l-0.6,0.4c-2.1,1.6-4.8,2.5-7.7,2.5c-7.7-0.1-15.5-0.1-23-0.1
	c-4.4,0-6.3,2.8-7,4.5c-1.2,2.7-0.9,5.6,0.1,6.8c3.2,3.8,8.5,4.8,12.4,5.6c1.6,0.3,2.9,0.6,3.9,1C190.2,192.9,192.9,196.6,193,200.6
	z M79.5,164.8c1,5.4,2.5,17.7,3.4,25c0,0.2,0,0.4,0.1,0.6c0.5-0.7,0.9-1.3,1.3-2c10.4-16.8,10.2-22.3,10-25.9c0-0.5,0-1,0-1.5
	c0.1-3.3-0.6-4.9-2.7-6.1c0,0-0.1,0-0.1-0.1c-0.7-0.4-1.4-0.7-2.2-0.7c-0.4,0-0.7,0-1.1,0.1C81.4,156.2,80,160.9,79.5,164.8
	L79.5,164.8L79.5,164.8z M489.1,185.6c0.5,0.1,1.1,0.1,1.6,0.2c1,0.1,2.1,0.2,3.4,0.3c0.2,0,0.4,0,0.7,0c3.1,0,8.8-2,12.1-3.9
	c11.4-6.3,25.2-27.5,20.5-49.3c-0.7-2.3-1.2-4.5-1.5-6.5v-0.1c-0.2-1.5-3.7-4.9-5.6-5.2c-0.6,1.3-2,2.8-4.5,5.5
	c-1.7,1.8-3.7,3.8-4.6,5.2c-4.1,6.1-18,42.4-18.9,45.1C491.4,180.1,490.3,183,489.1,185.6z"/>
<path d="M278.5,26.9c0.1,1,0.2,1.7,0.2,2.4c0,4.6,0,9.2,0.1,13.9c0.2,19.2,0.3,38.5,0.5,57.7c0,3.2-0.1,6.5,0.1,9.7
	c0.2,1.7,0.6,3.4,1,5c6.5,27.2,6.7,25.8,12.6,51.4c0.2,1.1,0.6,2.1,1.1,3.6c0.9-0.9,1.8-1.8,2.5-2.9c2.6-4.6,5-9.2,7.7-13.8
	c10.1-17.4,26.3-44.6,27.3-46c1.6-2.2,1.2-4.5,0.9-6.8c-0.5-3.4-1.1-6.7,0.3-10c14.4-32.7,9.8-32.9,15.7-33.2c0.2,0,0.4,0,0.6,0
	c7.8,0,18,6.6,27.5,6.6c1.3,0,2.5-0.1,3.7-0.4c0.1,0,5.8-0.8,11.2-0.8c5.3,0,10.2,0.7,8.8,3.7c0,0.1-7.6,20.4-9.5,32.8
	c-5.3,35.4-5.8,33.4-3.9,34.4c0,0,0,0,0.1,0c0.3,0,1-0.4,1.1-0.8c0.1-0.1,16.8-30.7,16.9-30.8c5.6-10.8,12.9-24.3,14-26.5
	c0.2-0.4,0.3-0.9,0.5-1.3c1.1-2.3,2.5-3.3,4.6-3.3c0.8,0,1.7,0.1,2.8,0.4c6.2,1.6,41.4,3.6,41.5,3.6c2.2,0.7,2.3,1.1,1.7,3
	c-0.7,2.2-1.2,4.4-1.8,6.6c-8.1,28.9-15.8,64.5-29.5,114.7c-0.2,0.8-0.4,1.7-0.5,2.5c0.4,0.2,0.8,0.2,1,0.2c0.4,0,0.8-0.2,1.1-0.8
	c12.8-30.4,26.1-71.5,36.5-104.5c0.3-1.4,0.6-2.8,0.7-4.2c7.6-45.6,5.3-33.5,14.3-39.5c3.3-2.2,9-3.4,15.9-3.4
	c18,0,44.5,7.8,61.3,25.4c1.1,1.1,2.1,2.3,3.1,3.5s1.9,2.4,2.8,3.6c0.9,0.9,1.8,2.3,2.6,3.8c5.2,9.1,7.7,19.5,7.2,30
	c-0.1,3-0.4,5.9-0.9,8.8c-0.2,1.3-0.4,2.5-0.7,3.8c-0.3,1.3-0.6,2.6-0.9,4c-0.3,1.1-0.6,2.1-0.9,3.3c-0.5,1.5-0.8,3-1.4,4.5
	c-1,2.4-1.7,4.9-2.2,7.4c-0.4,1.2-0.9,2.4-1.6,3.5c-1.9,3.4-4,6.8-5.8,10.3c-2.6,5.1-6.1,9.7-10.3,13.7c-2.5,2.3-4.9,4.8-7.2,7.3
	c-12.4,13.1-46.3,48.3-66.4,48.3c-0.5,0-1,0-1.4-0.1c-0.7-0.1-2-0.1-3.6-0.1c-3.5,0-8.1,0.2-9.4,0.9c-0.9,0.7-1.6,1.6-2,2.7
	c0,0.1-0.5,0.8-3.6,9.2c-23.1,61-19.7,78.6-21.7,102.1c-0.9-0.5-1.7-0.6-2-1c-1-2-29.3-24.6-37.9-32.4c-1.4-1.3-1.5-2.1-0.9-3.9
	c1.8-5,21.1-66.1,21.4-68.8c0.2-1.5,1.1-2.9,1.7-4.4c0-0.1,0.1-0.1,0.1-0.2c1.4-3.2,0.7-4.1-2.8-4.1c-9.8,0-19.7,0-29.5,0
	c-1.5,0-2.2-0.7-1.9-2c2.5-10.3,18.5-87.4,18.5-87.6c0.6-2.4,0.5-3.4,0.1-3.4c-2.2,0-13.7,21.8-17.6,28.4
	c-1,1.7-25.6,44.5-34.6,60.2c-1.9,3.4-3.1,5.5-3.2,5.7c-0.8,1.6-3.9,2.1-7.4,2.1c-0.4,0-0.7,0-1.1,0c-3.5-0.1-7.1-0.5-10.5-1.1
	c-4-0.8,28.9-102.6,31.8-114.4c0.1-0.5,0.2-1,0.5-1.4c1.2-1.2,1.2-2.6,0.9-4.1c-0.3-0.1-0.5-0.1-0.7-0.1c-0.8,0-1,0.7-1.3,1.3
	c-1.7,3.7-3.4,7.5-5.2,11.1c-2.4,4.8-4.8,9.5-7.3,14.2c-0.8,1.5-1.9,2.9-2.7,4.4c-2.5,4.8-4.9,9.6-7.3,14.3c-1,2-2.3,3.8-3.4,5.7
	c-24.3,45.2-23.5,49.1-27.2,49.1c-0.3,0-0.6,0-0.9,0c-2.1-0.2-4.3,0-6.5-0.2s-4.5-0.5-6.7-0.7c-0.1,0-0.2,0-0.3,0
	c-2,0-2.5,1-2.1,3.1c5.4,30.2,7.1,38.8,17.4,81.4c0.2,0.8,0.3,1.5,0.2,2.3c-0.1,0.5-38.5,16.7-59.9,25.7c-8.2,3.4-13.9,5.8-13.9,5.8
	c-0.3,0.2-0.6,0.3-0.8,0.3c-0.5,0-0.9-0.2-1.3-0.7c-0.1-0.1-0.2-0.3-0.2-0.4c-0.1-0.3-0.2-0.7-0.2-1c-4.6-35.4-3.7-45.2-7.4-45.2
	c-2.9,0-8.6,5.9-21.8,10.3c-4.4,1.5-4.7,1.6-1.4,32c-0.8,0.5-1.5,1.1-2.4,1.7c-0.9,0.5-50.4,18.5-68.1,25.3
	c-0.7,0.2-1.4,0.4-2.2,0.7c-0.2-1.9-0.6-3.4,0.4-4.8c0.1-0.2,0.1-0.6,0.1-0.9c0.5-7.2,6.1-58.3,7.4-64.5c-0.4-0.2-0.8-0.4-1.2-0.4
	c-5.4,0-10.1,21.7-69.5,58.2l-9.7,0.8c-8.7-38.4-16.5-73.7-23.1-103.8c-0.2-0.8-0.3-1.6-0.5-2.4c-10-45.5-17.3-78.9-21.1-92.8
	c-0.3-1.5-0.8-3-1.5-4.5c-0.4-0.8-0.1-1.8,0.7-2.2c2.6-2,5.2-4.1,7.9-5.8c15.3-9.7,44.5-37.8,68.4-37.8c0.7,0,1.4,0,2,0.1
	c5,0.3,10,1.6,14.4,3.9c5.6,3,10.2,7.7,13,13.3c11.3,21.2,4.7,56.2-3.7,71.6c-1.2,2.2-2.7,4.2-4.2,6.1c-0.6,0.8-1.1,1.6-0.6,2.4
	c0.2,0.4,1.2,0.6,1.8,0.6c20.2-0.9,18.6-1.3,21.7-1.4c0.9,0.1,1.8,0.4,2.6,0.9c11,5.9,6.8,9.5,12.7,13.5c1.1-0.7,1.8-1.9,1.8-3.3
	c0.3-3.1,0.5-6.2,0.9-9.2c12.5-89,10.4-113.8,12.2-120.4c0.4-1.3,1.3-2.4,2.5-3c34.5-13.5,38-6.3,101.7-39.2
	c0.9-0.4,1.7-1.1,2.6-1.5C277.1,27.2,277.8,27,278.5,26.9 M494.7,189.1c4,0,10.3-2.4,13.6-4.3c12.8-7.1,27-29.7,22-52.7
	c-0.6-2-1.1-4.1-1.4-6.2c-0.3-3-5.4-7.9-8.8-7.9c-1.1,0-2,0.5-2.5,1.7c-0.7,1.8-6.7,7-8.9,10.3c-4.5,6.8-19.1,45.1-19.3,45.9
	c-0.9,3.3-2.1,6.6-3.7,9.6c-1.5,3.2,1.1,2.7,8,3.5C494,189.1,494.4,189.1,494.7,189.1 M81.7,196.3c0.3,0,0.8-0.3,1.1-0.5
	c1.3-1.8,2.8-3.7,4.1-5.8c12.2-19.7,10.4-24.8,10.4-29c0.1-3.6-0.7-6.6-4.2-8.7c-1.2-0.8-2.5-1.1-3.9-1.1c-0.6,0-1.2,0.1-1.8,0.2
	c-10.5,3-10.6,12.2-10.9,13.6c0,0.1,0.1,0.2,0.1,0.3c1.4,7.5,3.9,29.8,4,29.9c0.2,0.5,0.5,0.9,1,1.1
	C81.6,196.3,81.6,196.3,81.7,196.3 M199.9,170.8c-7.7-0.1-15.4-0.1-23-0.1c-10.2,0.1-13,11.7-9.2,16.2c5.2,6.2,14.6,6.2,17.5,7.4
	c2.8,1,4.7,3.6,4.8,6.5c0.3,4.3-2,21,12.7,30.1c2,1.3,4.3,2,6.6,2c3.7,0,7.7-1.8,11.4-5.9c1.3-1.2,3-1.9,4.8-1.9
	c1.5-0.1,3-0.1,4.6-0.1c1.1,0,2.2,0,3.3,0.1c2,0,3.9-0.5,5.8-1.3c2.9-1,5.6-2.7,7.9-5c16.9-15.9,25.3-50.1,3.9-62.9
	c-3.8-2.2-7.6-3.2-11.4-3.2c-11.6,0-23.3,8.6-33.8,16.2C204.1,170.2,202,170.8,199.9,170.8 M97.2,268.6c0.8,0,1.7-0.4,2.1-1.2
	c2.6-2.7,5-5.3,7.5-7.8c7.1-6.8,17.9-25.1,14.2-32.9c-0.7-1.4-1.5-2.3-2.7-2.3c-0.5,0-0.9,0.1-1.5,0.4c-0.6,0.3-1.3,0.5-2,0.6
	c-3.5,0-20,11.1-22.2,12.6c-1.1,0.6-1.7,1.9-1.7,3.1c0.3,10.4,3.9,25,3.9,25.1c0.3,0.8,0.7,1.9,1.4,2.2
	C96.5,268.5,96.9,268.6,97.2,268.6 M278.5,20.9c-0.3,0-0.6,0-0.8,0.1c-1.3,0.2-2.6,0.6-3.7,1.1c-0.8,0.4-1.5,0.8-2,1.1
	c-0.2,0.1-0.4,0.3-0.5,0.3s-0.2,0.1-0.3,0.1C229.8,45,214,49.2,198.8,53.3c-8.2,2.2-16.6,4.5-28.7,9.2c-0.2,0.1-0.3,0.1-0.5,0.2
	c-2.6,1.3-4.7,3.7-5.6,6.6c0,0.1,0,0.1-0.1,0.2c-0.7,2.6-0.9,6.2-1.3,13.4c-0.8,14.8-2.4,45.5-11,106.9c-1.6-1.5-3.7-3-6.6-4.5
	c-1.5-0.9-3.2-1.5-4.9-1.7c-0.2,0-0.4,0-0.7,0c-0.1,0-0.1,0-0.2,0c-1.2,0-1.8,0.1-2.7,0.2c-1.3,0.1-3.5,0.4-10.4,0.8
	c4.8-8.9,8.6-22.6,9.8-35.7c1.1-11.5,0.9-27.9-6.2-41.3c-3.3-6.6-8.8-12.3-15.5-15.8c0,0,0,0-0.1,0c-5-2.6-10.8-4.2-16.8-4.6
	c-0.8-0.1-1.6-0.1-2.4-0.1c-20.1,0-42.4,16.9-58.6,29.3c-5.1,3.8-9.4,7.2-12.9,9.4c-2.5,1.5-4.8,3.3-7,5.1c-0.4,0.3-0.7,0.5-1.1,0.8
	c-1.5,1-2.6,2.4-3.1,4.1c-0.6,1.9-0.4,3.9,0.4,5.6c0.5,1,0.8,2.1,1,3.1c0,0.1,0.1,0.3,0.1,0.4c3.6,13.1,10.3,43.6,19.6,85.8l1.5,6.7
	c0,0.1,0,0.1,0,0.2c0.1,0.2,0.1,0.5,0.2,0.9c0.1,0.4,0.2,0.9,0.3,1.5c5.4,24.6,13.6,62,23.1,103.8c0.6,2.8,3.1,4.7,5.8,4.7
	c0.2,0,0.3,0,0.5,0l9.7-0.8c0.9-0.1,1.8-0.4,2.6-0.9c34-20.9,50.4-37,59.4-47.3c-2.1,17.4-4.7,42.1-5.2,48c-1.1,2.5-0.8,4.9-0.6,6.5
	c0,0.2,0.1,0.5,0.1,0.7c0.2,1.8,1.2,3.5,2.8,4.5c1,0.6,2.1,0.9,3.2,0.9c0.7,0,1.4-0.1,2.1-0.4c0.6-0.2,1.1-0.4,1.7-0.5
	c0.2,0,0.3-0.1,0.5-0.2c10-3.8,29.9-11.2,45.9-17.1c22.2-8.2,22.3-8.2,23-8.6c0.1-0.1,0.3-0.2,0.4-0.3c0.5-0.4,1-0.7,1.4-1
	c0.3-0.3,0.6-0.5,0.9-0.6c2-1.2,3-3.4,2.8-5.7c-1.2-10.8-2.4-21.9-2.2-25.8c7.7-2.6,13-5.7,16.6-7.9c0.4,2.7,0.7,6.4,1.2,10.5
	c0.7,6.6,1.6,15.6,3.1,27.3c0,0.7,0.2,1.4,0.4,2.1c0.2,0.9,0.7,1.8,1.3,2.6c1.4,1.8,3.6,2.9,5.9,2.9c1.3,0,2.5-0.3,3.6-0.9
	c1.4-0.6,6.6-2.8,13.5-5.6c15.6-6.6,28.4-12,38-16.1c6.7-2.9,12-5.1,15.6-6.7c2.1-0.9,3.7-1.6,4.8-2.1c2.2-1,4.5-2.1,5.1-5.1
	c0-0.1,0.1-0.3,0.1-0.4c0.2-1.9-0.1-3.4-0.3-4.5c-9.6-39.5-11.6-49.4-16.5-76.6c0.6,0.1,1.2,0.1,1.9,0.2c1.4,0.1,2.7,0.1,3.8,0.1
	c1,0,1.9,0,2.6,0.1c0,0,0,0,0.1,0c0.4,0,0.9,0.1,1.4,0.1c4.2,0,6.5-2.6,7.8-4.5c1.2-1.9,2.6-4.7,5.1-9.8c3.5-7,9.3-18.8,19.6-37.9
	c0.3-0.4,0.5-0.9,0.8-1.4c-3.5,11.5-7.1,23.5-10.1,34c-2.7,9.4-4.6,16.6-5.9,21.9c-2.1,9-2.3,12-0.8,14.5c0.9,1.5,2.4,2.6,4.2,3h0.1
	c3.9,0.7,7.7,1.1,11.4,1.2c0.4,0,0.8,0,1.2,0c2.7,0,10,0,12.7-5.3c0.1-0.2,0.3-0.6,0.7-1.2c0.6-1,1.4-2.4,2.4-4.3
	c8.7-15.2,33.6-58.4,34.6-60.1c0.2-0.3,0.4-0.7,0.6-1c-4.8,23.1-11.1,53-12.6,59.2c0,0,0,0,0,0.1c-0.6,2.4-0.1,4.7,1.4,6.5
	c0.8,1.1,2.8,2.9,6.4,2.9h25c-0.2,0.6-0.3,1.1-0.4,1.8c-1,4.5-18.9,61.7-21.1,67.7v0.1c-0.9,2.6-1.5,6.4,2.5,10.2c0,0,0,0,0.1,0
	c3.8,3.4,11.3,9.6,18.5,15.6c7.1,5.9,16.8,13.9,18.6,15.8l0.1,0.1c1.2,1.6,2.8,2.2,3.6,2.5c0.1,0,0.3,0.1,0.3,0.1
	c0.9,0.5,1.9,0.8,2.9,0.8s1.9-0.2,2.8-0.7c1.8-1,3-2.8,3.1-4.8c0.4-4.2,0.5-8.2,0.7-12.2c0.9-19.1,1.8-38.8,20.6-88.3l0,0
	c1.1-3,2.6-6.9,3.4-8.6l0,0c1.3-0.1,3.4-0.3,6.1-0.3c1.7,0,2.7,0.1,3,0.1c0.6,0.1,1.3,0.1,2,0.1c15.6,0,38.7-16.4,70.7-50.1
	c0,0,0,0,0.1-0.1c2.6-2.9,4.8-5.1,6.8-6.9c0,0,0.1,0,0.1-0.1c4.8-4.5,8.6-9.7,11.5-15.3c1.1-2.1,2.3-4.2,3.5-6.4
	c0.7-1.2,1.4-2.4,2.1-3.6c0.8-1.3,1.5-2.9,2.1-4.7c0.1-0.2,0.1-0.5,0.2-0.7c0.5-2.4,1.1-4.4,1.9-6.3v-0.1c0.5-1.2,0.8-2.3,1.1-3.3
	c0.2-0.5,0.3-1.1,0.5-1.5c0-0.1,0.1-0.3,0.1-0.4c0.2-0.7,0.4-1.4,0.6-2.1c0.1-0.4,0.2-0.7,0.3-1.1c0-0.1,0.1-0.2,0.1-0.3
	c0.3-1.4,0.6-2.6,0.9-3.9c0.3-1.4,0.5-2.7,0.8-4.2c0.5-3.2,0.9-6.3,1-9.5c0.5-11.6-2.2-23.1-7.9-33.1c-1.1-2-2.2-3.6-3.3-4.8
	c-0.9-1.1-1.8-2.3-2.8-3.6c-1.1-1.3-2.1-2.6-3.4-3.9c-18-18.8-46-27.2-65.6-27.2c-5.8,0-13.8,0.8-19.2,4.4c-1.2,0.8-2,1.1-2.9,1.4
	c-3.9,1.3-6.3,3.1-8,9.2c-0.8,2.8-1.6,6.9-2.8,13.7c-1-1.3-2.6-2.3-4.7-2.9c-0.5-0.2-1-0.3-1.5-0.3c-5.7-0.3-35.5-2.2-40.3-3.4
	c-1.6-0.4-3-0.6-4.3-0.6c-3.1,0-7.4,1.2-10,6.7c-0.3,0.6-0.4,1.1-0.5,1.4l0,0c-0.5,1-1.9,3.7-3.7,7c-2.9,5.4-6.8,12.8-10.2,19.2l0,0
	c-0.6,1.1-1.7,3.1-3.9,7c0.3-1.9,0.6-4,0.9-6.2c1-6.8,4.2-17.8,9-31c0.1-0.2,0.1-0.4,0.2-0.5c1-2.4,0.8-5-0.6-7.1
	c-2.7-4.1-8.5-4.7-13.9-4.7c-4.6,0-9.3,0.5-11.8,0.8h-0.1c-0.2,0-0.4,0.1-0.6,0.1c-0.8,0.2-1.6,0.2-2.5,0.2c-3.9,0-8.6-1.6-13.1-3.2
	c-4.8-1.7-9.7-3.4-14.4-3.4c-0.3,0-0.6,0-0.9,0c-2,0.1-5.1,0.3-7.4,3c-1.4,1.7-2,3.6-3.2,7.1c-1.4,4.3-4,12.4-10.3,26.7
	c0,0,0,0,0,0.1c-2,4.7-1.3,9.1-0.8,12.7l0.1,0.5v0.3c0.1,0.7,0.2,1.8,0.2,2.2c-1.3,1.8-18.4,30.5-27.6,46.5
	c-0.9,1.5-1.8,3.1-2.6,4.6c-1.7-7.3-2.9-11.7-4.1-16.7c-1.5-5.7-3.1-12.2-6.1-24.6c0,0,0,0,0-0.1c-0.3-1.3-0.7-2.7-0.8-4.1
	c-0.1-2.1-0.1-4.4-0.1-6.7c0-0.8,0-1.6,0-2.5c0,0,0,0,0-0.1c-0.1-9.6-0.2-19.4-0.2-28.8c-0.1-9.5-0.2-19.3-0.3-28.9c0,0,0,0,0-0.1
	c-0.1-4.6-0.1-9.3-0.1-13.8c0-0.9-0.1-1.6-0.2-2.4c0-0.2,0-0.4-0.1-0.6c-0.2-1.6-1-3.1-2.3-4.1C281.2,21.3,279.9,20.9,278.5,20.9
	L278.5,20.9z M495.2,177.7c1.4-4,14.9-38.8,18.6-44.3c0.8-1.2,2.7-3.2,4.3-4.8c1.4-1.4,2.5-2.6,3.3-3.6c0.7,0.6,1.4,1.4,1.7,2
	c0.3,2.1,0.8,4.4,1.5,6.7c4.3,20.4-8.5,40.1-19.1,46c-2.9,1.6-8.2,3.5-10.7,3.5c-0.1,0-0.2,0-0.2,0h-0.1c-0.3,0-0.7-0.1-1-0.1
	C494.1,181.3,494.7,179.6,495.2,177.7L495.2,177.7z M88.9,157.2c0.1,0,0.2,0,0.3,0c0.2,0,0.4,0.1,0.6,0.2c0.1,0,0.1,0.1,0.2,0.1
	c0.8,0.5,1.4,0.8,1.3,3.4c0,0.1,0,0.1,0,0.2c0,0.6,0,1.1,0,1.7c0.1,2.9,0.3,7-6.4,18.9c-0.8-6.2-1.7-12.9-2.4-16.8
	C83,161.6,84.2,158.6,88.9,157.2L88.9,157.2z M209.4,173.7l0.5-0.4c9.5-6.9,20.3-14.6,29.7-14.6c3,0,5.7,0.8,8.3,2.3
	c5.6,3.4,8.9,8.8,9.7,16.1c1.3,12.4-4.8,28.1-14.6,37.3l-0.1,0.1c-1.6,1.6-3.6,2.9-5.6,3.6c-0.1,0-0.2,0.1-0.4,0.1
	c-1.3,0.5-2.3,0.8-3.3,0.8c-1.1-0.1-2.2-0.1-3.5-0.1c-1.6,0-3.3,0.1-4.7,0.1c-3.2,0-6.3,1.3-8.7,3.5c-0.1,0.1-0.3,0.2-0.4,0.4
	c-1.6,1.8-4.1,3.9-7,3.9c-1.2,0-2.3-0.4-3.4-1.1c-9.9-6.2-9.9-16.9-9.8-22.7c0-1,0-1.8,0-2.6c-0.2-5.2-3.7-10-8.6-11.8
	c-1.3-0.5-2.7-0.8-4.4-1.1c-3.5-0.7-8.2-1.6-10.7-4.5c-0.2-0.4-0.5-2.2,0.5-3.9c0.9-1.6,2.2-2.4,4.2-2.4c7.5,0,15.2,0,22.9,0.1h0.1
	C203.5,176.8,206.7,175.7,209.4,173.7L209.4,173.7z M115.4,231.4c0.1,0,0.2,0,0.3,0c0,0,0,0,0.1,0c-0.2,1.9-0.9,5-3.1,9.6
	c-2.6,5.4-6.7,11.3-9.9,14.4l-0.1,0.1c-1.1,1.1-2.2,2.2-3.2,3.3c-1.3-6.4-2.1-12.1-2.4-16.4C104.9,236.9,113.1,232.1,115.4,231.4
	L115.4,231.4z"/>
<path d="M523.1,302.6c-4.7,0-9-0.9-12.4-2.6c-4.9-2.5-12.9-8.1-10.8-16.6c2.6-10.7,20-19,33.3-19c10.2,0,16.7,4.9,17.5,13.2
	c0.1,1.3,0.1,8.4-0.7,10.9C546.5,297.8,533.9,302.6,523.1,302.6z"/>
<path d="M533.1,267.4c7.6,0,13.8,3,14.5,10.5c0.1,1.4,0,7.9-0.6,9.7c-2.7,7.5-13.8,12-23.9,12c-4.1,0-8-0.7-11.1-2.3
	C488.1,285,514.7,267.4,533.1,267.4 M533.1,261.4v6V261.4L533.1,261.4c-7,0-14.9,2.1-21.8,5.7c-7.9,4.2-13,9.7-14.4,15.6
	c-1.1,4.5-0.9,13.1,12.4,20c3.8,2,8.6,3,13.8,3c6,0,12.1-1.3,17.3-3.8c6.2-2.9,10.5-7.1,12.3-12.2c0,0,0-0.1,0.1-0.1
	c1.1-3.3,0.9-11.3,0.9-12v-0.1C552.7,267.5,544.8,261.4,533.1,261.4L533.1,261.4z"/>
<path class="st1" d="M588.2,141.5c0.7,0,1.5,0.3,2.6,0.9c2.2,1.2,4.6,2.3,6.9,3.4c11.5,5.5,22.5,10.4,25.2,11.9
	c1.5,0.8,1.6,1.8,0.4,3.1c-2.4,2.7-6.1,6.8-10.5,11.7c-1.8,2-3.6,4.1-5.6,6.3c-7.4,8.4-16,18.3-23.9,27.8
	c-3.7,4.4-7.2,8.8-10.4,12.9c-6.7,8.5-12.1,16-14.4,20.7c-0.6,1-1.3,1.7-2.2,1.7c-0.4,0-0.8-0.1-1.3-0.4c-5.2-2.7-21.9-4.6-24.4-4.9
	c-0.4-1.1-0.1-2.4,0.9-3c9.4-8.9,24.7-38.1,54-89.8C586.3,142.2,587.1,141.5,588.2,141.5 M588.2,135.5L588.2,135.5
	c-3.3,0-6,1.8-8,5.4c-5.8,10.3-11.2,19.8-15.9,28.2c-17.9,31.9-29.8,53.1-36.7,59.9c-2.9,2.2-4,6.1-2.7,9.7l1.3,3.5l3.7,0.4h0.4
	c17,2,21.3,3.8,22,4.2c1.3,0.7,2.7,1,4.1,1c3.1,0,5.9-1.8,7.5-4.8v-0.1v-0.1c1.3-2.7,4.7-8.2,13.7-19.6c3.9-5,7.2-9.1,10.3-12.8
	c6.7-8,14.4-17.1,23.8-27.7c1.1-1.3,2.2-2.5,3.2-3.6c0.8-0.9,1.6-1.8,2.4-2.7l4-4.4c2.6-2.9,4.9-5.4,6.5-7.3
	c2.4-2.6,2.5-5.1,2.3-6.8c-0.2-1.4-1.1-3.9-4.2-5.6c-1.6-0.9-4.9-2.4-11-5.3c-4.1-1.9-9.3-4.3-14.4-6.8c-0.5-0.2-0.9-0.4-1.4-0.7
	c-1.8-0.8-3.6-1.7-5.2-2.6C592.3,136.4,590.4,135.5,588.2,135.5L588.2,135.5z"/>
<path class="st1" d="M533.1,253.6c7.6,0,13.8,3,14.5,10.5c0.1,1.4,0,7.9-0.6,9.7c-2.7,7.5-13.8,12-23.9,12c-4.1,0-8-0.7-11.1-2.3
	C488.1,271.2,514.7,253.6,533.1,253.6 M533.1,247.6v6V247.6L533.1,247.6c-7,0-14.9,2.1-21.8,5.7c-7.9,4.2-13,9.7-14.4,15.6
	c-1.1,4.5-0.9,13.1,12.4,20c3.8,2,8.6,3,13.8,3c6,0,12.1-1.3,17.3-3.8c6.2-2.9,10.5-7.1,12.3-12.2v-0.1v-0.1
	c1.1-3.3,0.9-11.3,0.9-12v-0.1v-0.1C552.7,253.7,544.8,247.6,533.1,247.6L533.1,247.6z"/>
<path class="st0" d="M622.8,157.7c1.5,0.8,1.6,1.8,0.4,3.1c-2.4,2.7-6.1,6.8-10.5,11.7c-1.8,2-3.6,4.1-5.6,6.3
	c-7.4,8.4-16,18.3-23.9,27.8c-3.7,4.4-7.2,8.8-10.4,12.9c-6.7,8.5-12.1,16-14.4,20.7c-0.8,1.5-2,2.1-3.5,1.3
	c-5.2-2.7-21.9-4.6-24.4-4.9c-0.4-1.1-0.1-2.4,0.9-3c9.4-8.9,24.7-38.1,54-89.8c1.5-2.7,2.7-2.9,5.3-1.4c2.2,1.2,4.6,2.3,6.9,3.4
	C609.1,151.3,620.1,156.2,622.8,157.7z"/>
<path class="st0" d="M577.6,72.6c5.2,9.1,7.7,19.5,7.2,30c-0.1,3-0.4,5.9-0.9,8.8c-0.2,1.3-0.4,2.5-0.7,3.8s-0.6,2.6-0.9,4
	c-0.3,1.1-0.6,2.1-0.9,3.3c-0.5,1.5-0.8,3-1.4,4.5c-1,2.4-1.7,4.9-2.2,7.4c-0.4,1.2-0.9,2.4-1.6,3.5c-1.9,3.4-4,6.8-5.8,10.3
	c-2.6,5.1-6.1,9.7-10.3,13.7c-2.5,2.3-4.9,4.8-7.2,7.3c-12.7,13.4-48,50-67.8,48.2c-2.2-0.2-11.1-0.2-13,0.8c-0.9,0.7-1.6,1.6-2,2.7
	c0,0.1-0.5,0.8-3.6,9.2c-23.1,61-19.7,78.6-21.7,102.1c-0.9-0.5-1.7-0.6-2-1c-1-2-29.3-24.6-37.9-32.4c-1.4-1.3-1.5-2.1-0.9-3.9
	c1.8-5,21.1-66.1,21.4-68.8c0.2-1.5,1.1-2.9,1.7-4.4c0-0.1,0.1-0.1,0.1-0.2c1.4-3.2,0.7-4.1-2.8-4.1c-9.8,0-19.7,0-29.5,0
	c-1.5,0-2.2-0.7-1.9-2c2.5-10.3,18.5-87.4,18.5-87.6c3.2-13.6-12.8,16.9-17.5,25c-1,1.7-25.6,44.5-34.6,60.2
	c-1.9,3.4-3.1,5.5-3.2,5.7c-0.9,1.8-4.6,2.2-8.5,2.1c-3.5-0.1-7.1-0.5-10.5-1.1c-4-0.8,28.9-102.6,31.8-114.4c0.1-0.5,0.2-1,0.5-1.4
	c1.2-1.2,1.2-2.6,0.9-4.1c-1.3-0.5-1.6,0.4-2,1.2c-1.7,3.7-3.4,7.5-5.2,11.1c-2.4,4.8-4.8,9.5-7.3,14.2c-0.8,1.5-1.9,2.9-2.7,4.4
	c-2.5,4.8-4.9,9.6-7.3,14.3c-1,2-2.3,3.8-3.4,5.7c-26.1,48.5-23.3,49.5-28.1,49.1c-2.1-0.2-4.3,0-6.5-0.2s-4.5-0.5-6.7-0.7
	c-2.3-0.1-2.8,0.9-2.4,3.1c5.4,30.2,7.1,38.8,17.4,81.4c0.2,0.8,0.3,1.5,0.2,2.3c-0.1,0.5-38.5,16.7-59.9,25.7l0,0l0,0
	c-8.2,3.4-13.9,5.8-13.9,5.8c-0.7,0.5-1.6,0.3-2.1-0.4c-0.1-0.1-0.2-0.3-0.2-0.4c-0.1-0.3-0.2-0.7-0.2-1c-8.1-63,0.9-44.9-29.2-34.9
	c-4.4,1.5-4.7,1.6-1.4,32c-0.8,0.5-1.5,1.1-2.4,1.7c-0.9,0.5-50.4,18.5-68.1,25.3c-0.7,0.2-1.4,0.4-2.2,0.7
	c-0.2-1.9-0.6-3.4,0.4-4.8c0.1-0.2,0.1-0.6,0.1-0.9c0.5-7.2,6.1-58.3,7.4-64.5c-6.2-3.5-6.9,18.6-70.7,57.8l-9.7,0.8
	c-8.7-38.4-16.5-73.7-23.1-103.8c-0.2-0.8-0.3-1.6-0.5-2.4c-10-45.5-17.3-78.9-21.1-92.8c-0.3-1.5-0.8-3-1.5-4.5
	c-0.4-0.8-0.1-1.8,0.7-2.2c2.6-2,5.2-4.1,7.9-5.8c15.7-10,46.2-39.4,70.4-37.7c5,0.3,10,1.6,14.4,3.9c5.6,3,10.2,7.7,13,13.3
	c11.3,21.2,4.7,56.2-3.7,71.6c-1.2,2.2-2.7,4.2-4.2,6.1c-0.6,0.8-1.1,1.6-0.6,2.4c0.2,0.4,1.2,0.6,1.8,0.6
	c20.2-0.9,18.6-1.3,21.7-1.4c0.9,0.1,1.8,0.4,2.6,0.9c11,5.9,6.8,9.5,12.7,13.5c1.1-0.7,1.8-1.9,1.8-3.3c0.3-3.1,0.5-6.2,0.9-9.2
	C170,88.8,167.9,64,169.7,57.4c0.4-1.3,1.3-2.4,2.5-3c34.5-13.5,38-6.3,101.7-39.2c0.9-0.4,1.7-1.1,2.6-1.5c0.6-0.3,1.3-0.5,2-0.6
	c0.1,1,0.2,1.7,0.2,2.4c0,4.6,0,9.2,0.1,13.9c0.2,19.2,0.3,38.5,0.5,57.7c0,3.2-0.1,6.5,0.1,9.7c0.2,1.7,0.6,3.4,1,5
	c6.5,27.2,6.7,25.8,12.6,51.4c0.2,1.1,0.6,2.1,1.1,3.6c0.9-0.9,1.8-1.8,2.5-2.9c2.6-4.6,5-9.2,7.7-13.8c10.1-17.4,26.3-44.6,27.3-46
	c1.6-2.2,1.2-4.5,0.9-6.8c-0.5-3.4-1.1-6.7,0.3-10c14.4-32.7,9.8-32.9,15.7-33.2c8.9-0.4,21.1,8.5,31.8,6.2c0.1,0,22.7-3,20,2.9
	c0,0.1-7.6,20.4-9.5,32.8c-5.3,35.4-5.8,33.4-3.9,34.4c0.2,0.1,1-0.4,1.2-0.8c0.1-0.1,16.8-30.7,16.9-30.8
	c5.6-10.8,12.9-24.3,14-26.5c0.2-0.4,0.3-0.9,0.5-1.3c1.5-3.1,3.5-3.9,7.4-2.9c6.2,1.6,41.4,3.6,41.5,3.6c2.2,0.7,2.3,1.1,1.7,3
	c-0.7,2.2-1.2,4.4-1.8,6.6c-8.1,28.9-15.8,64.5-29.5,114.7c-0.2,0.8-0.4,1.7-0.5,2.5c1.1,0.4,1.6,0.4,2.1-0.6
	c12.8-30.4,26.1-71.5,36.5-104.5c0.3-1.4,0.6-2.8,0.7-4.2c7.6-45.6,5.3-33.5,14.3-39.5c11.9-8,53.9-2.3,77.2,22
	c1.1,1.1,2.1,2.3,3.1,3.5c1,1.2,1.9,2.4,2.8,3.6C575.9,69.7,576.8,71.1,577.6,72.6z M508.3,171.1c12.8-7.1,27-29.7,22-52.7
	c-0.6-2-1.1-4.1-1.4-6.2c-0.4-3.9-9.2-11.3-11.3-6.2c-0.7,1.8-6.7,7-8.9,10.3c-4.5,6.8-19.1,45.1-19.3,45.9
	c-0.9,3.3-2.1,6.6-3.7,9.6c-1.5,3.2,1.1,2.7,8,3.5C497.5,175.8,504.7,173.1,508.3,171.1z M247.1,205c16.9-15.9,25.3-50.1,3.9-62.9
	c-15.1-9-31.2,2.9-45.2,13c-1.7,1.3-3.8,1.9-5.9,1.9c-7.7-0.1-15.4-0.1-23-0.1c-10.2,0.1-13,11.7-9.2,16.2
	c5.2,6.2,14.6,6.2,17.5,7.4c2.8,1,4.7,3.6,4.8,6.5c0.3,4.3-2,21,12.7,30.1c5.3,3.3,12,2.7,18-3.9c1.3-1.2,3-1.9,4.8-1.9
	c2.6-0.1,5.3-0.2,7.9,0c2,0,3.9-0.5,5.8-1.3C242.1,209,244.8,207.3,247.1,205z M106.8,245.8c7.1-6.8,17.9-25.1,14.2-32.9
	c-0.9-2-2.2-2.8-4.2-1.9c-0.6,0.3-1.3,0.5-2,0.6c-3.5,0-20,11.1-22.2,12.6c-1.1,0.6-1.7,1.9-1.7,3.1c0.3,10.4,3.9,25,3.9,25.1
	c0.3,0.8,0.7,1.9,1.4,2.2c1.1,0.5,2.5,0.1,3.1-1C101.9,250.9,104.3,248.3,106.8,245.8z M86.8,176.2c12.2-19.7,10.4-24.8,10.4-29
	c0.1-3.6-0.7-6.6-4.2-8.7c-1.7-1.1-3.8-1.4-5.7-0.9c-10.5,3-10.6,12.2-10.9,13.6c0,0.1,0.1,0.2,0.1,0.3c1.4,7.5,3.9,29.8,4,29.9
	c0.2,0.5,0.5,0.9,1,1.1c0.3,0.1,0.9-0.2,1.2-0.5C84,180.2,85.5,178.3,86.8,176.2z"/>
<path class="st0" d="M547.6,264.1c0.1,1.4,0,7.9-0.6,9.7c-3.8,10.5-24.2,15.2-35,9.7C478.2,266.1,545.1,238.2,547.6,264.1z"/>
<path class="st2" d="M255.3,176.9c-3.4,14.8-13.7,29.4-24.3,27.2c-2.5-0.5-4.6-1.9-6-4c-0.5-0.8-1-1.6-1.4-2.4
	c-1.2-3.1-1.7-6.3-2.5-7.1c-1.4-1.4-2.3-2.4-4.4-0.2c-1.3,1.2-2,2.9-1.9,4.7c0.2,3.9,3.7,8.9-0.9,14.7c-0.6,0.9-4,1.3-5.2,0.8
	c-8-3.5-10.5-11.9-9.5-20.5c0.5-3.3,1.2-6.5,2.2-9.6c0.9-2.4,1.9-4.8,3-7.1c0.2-0.4,0.8-0.6,1.2-0.9c-3.3-0.4-23.4-3-31.6-4.8
	c-1.2-0.8,0.6-2.1,0.7-2.1c19.5-0.2,30.4,1.8,34,2.1c0,0,0-0.1,0.1-0.1s0.1,0,0.2,0c0.3-0.4,0.7-0.8,0.9-1.2c4-5,8.7-9.2,13.9-12.7
	c6.6-4.3,13.7-6.8,19.9-5.4C255.8,151,258.2,164.1,255.3,176.9z"/>
<path class="st3" d="M243.8,148.2c-6.2-1.4-13.3,1.1-19.9,5.4c-5.2,3.5-9.9,7.7-13.9,12.7c-0.3,0.4-0.6,0.8-0.9,1.2
	c1.2,0.1,2.5,0.2,3.7,0.3c2,0.2,4,0.4,6,0.6c0.8,0.1,1.7,0.2,2.5,0.3c1.1,0.1,2.2,0.2,3.3,0.4c3,0.4,6.1,0.7,9.1,0.9
	c1.1,0.1,2.2,0.1,3.2-0.1s2.1-0.8,3.1-0.6c1.3,0.3,2.1,1.6,3.3,2c1.1,0.4,2.2,0,2.9-0.9c0.6-0.3,0.8-0.7,1.1-0.8
	c0.8-0.3,1.4,0.8,1.1,1.6c-0.1,0.2-0.2,0.4-0.3,0.5c-0.4,0.5-0.9,0.8-1.3,1.2c-0.6,0.6-1,1.4-1.6,2c-1.5,1.6-4,1.6-6.1,1.5
	c-0.9,0.1-1.9-0.2-2.7-0.8c-0.2-0.3-0.5-0.5-0.8-0.7c-0.2-0.1-0.5-0.2-0.8-0.2c-8.8-1.6-9.1-0.2-29-2.4c0.9-1.7,2-3.2,3-4.7
	c-3.7-0.2-14.5-2.3-34-2.1c-0.1,0-1.9,1.3-0.7,2.1c8.2,1.8,28.3,4.4,31.6,4.8c-0.4,0.3-1,0.5-1.2,0.9c-1.1,2.3-2.1,4.7-3,7.1
	c-1,3.1-1.7,6.3-2.2,9.6c-1,8.6,1.5,17,9.5,20.5c1.2,0.5,4.6,0.1,5.2-0.8c4.6-5.8,1.1-10.8,0.9-14.7c-0.1-1.8,0.6-3.5,1.9-4.7
	c2.1-2.2,3-1.2,4.4,0.2c0.8,0.8,1.3,4,2.5,7.1c0.4,0.8,0.9,1.6,1.4,2.4c1.4,2.1,3.5,3.5,6,4c10.6,2.2,20.9-12.4,24.3-27.2
	C258.3,164,255.9,150.9,243.8,148.2z M231.4,160c-9.8,3.6-9.9,6.5-12.2,6.2c-0.4-0.1-0.8-0.2-1.1-0.3c-0.4-0.4-0.5-1-0.3-1.5
	s0.6-0.9,1-1.3c2.3-2.1,4.6-3.1,5.4-4.5c0.4-0.7,0.3-1.6-0.1-2.4c-0.3-0.5-0.5-1.1-0.4-1.6c0.1-0.3,0.3-0.6,0.5-0.7
	c0.6-0.3,1.2-0.4,1.8-0.4c3.4,0.1,0.9,1.4,3.6,1.7c0.2,0,0.5,0.1,0.7,0.1c0.5,0,0.9,0.1,1.4,0.2c0,0.2,0.1,0.2,0.1,0.2
	c0.8,0.4,1.2,1.3,1.2,2.2C232.9,158.9,232.3,159.7,231.4,160z M214.1,182c-0.4,0.2-0.8,0.4-1.2,0.6c-0.5,0.5-0.8,1.1-0.8,1.8
	c-0.1,0.7,0,1.3-0.1,2c-0.1,0.6-0.2,1.3-0.4,1.9c-0.1,1.4-1.4,2.5-2.9,2.4c-0.3,0-0.5-0.1-0.8-0.2c-0.4-0.1-0.8-0.1-1.2-0.1
	c-1-0.1-2.1-0.4-2.5-1.3c-0.7-1.6,1.2-3.6,1.9-4.9c0.5-1.1,0.9-2.3,1.1-3.5c0.8-3,5-1.7,6.9-0.4c0.2,0,0.5,0.3,0.6,0.6
	C214.8,181.4,214.5,181.8,214.1,182z M230.7,189.5c-0.9,0.6-2.1,0.5-2.8-0.2c-0.8-0.6-0.9-1.6-0.4-2.4c0.1-0.1,0.1-0.2,0.2-0.3
	c0.7-0.8,2.9-4.6,6.3-7.1c0.9-0.8,2.3-0.8,3.1,0C240,182,233.8,187.2,230.7,189.5z M247.7,164.4c-0.1,0.2-0.2,0.3-0.4,0.4
	c-0.2,0.1-0.5,0.2-0.7,0.2c-1.2,0.2-2.4,0-3.5-0.6c-7.3-6,2.8-13.7,4.6-11c0.2,0.2,0.2,0.5,0.2,0.7
	C248,160.7,251.8,158.3,247.7,164.4z M252,171.7c0.5,0.5,0.7,1.2,0.6,1.9c0.1,0.9,0.1,1.7-0.1,2.6c-0.1,0.5-0.4,0.9-0.8,1.2
	c-0.3,0.2-0.5,0.4-0.7,0.7h-0.1c-0.1,0.7,0.2,1.2,0.3,1.8c0.1,1.4-0.4,2.7-1.4,3.7c-0.6,1-1.5,1.6-2.6,1.8c-0.8,0.1-1.6-0.4-1.9-1.2
	c-0.3-0.8,0.1-1.6,0.8-2c0.3-0.1,0.6-0.2,0.9-0.3c0.6-0.4,0.5-1.2,0.4-1.9c-0.3-0.6-0.3-1.3,0-2c0.2-0.2,0.4-0.5,0.7-0.6h0.2
	c0.1,0,0.1-0.1,0.1-0.1c0.1-0.2,0.2-0.4,0.3-0.7c0.3-0.8,0.4-1.7,0.4-2.6c0-0.3,0-0.7,0.1-1c0.3-0.4,0.6-0.8,0.9-1.2
	c0.1-0.1,0.2-0.2,0.3-0.3C250.9,171.1,251.6,171.2,252,171.7z"/>
<path class="st4" d="M250.1,171.8c-0.3,0.4-0.6,0.8-0.9,1.2c-0.1,0.3-0.1,0.7-0.1,1c0,0.9-0.1,1.8-0.4,2.6c-0.1,0.3-0.2,0.5-0.3,0.7
	c0,0.1-0.1,0.1-0.1,0.1l2.6,0.6v0.1h0.1c0.2-0.3,0.4-0.5,0.7-0.7c0.4-0.3,0.7-0.7,0.8-1.2c0.2-0.9,0.2-1.7,0.1-2.6
	c0.1-0.7-0.1-1.4-0.6-1.9c-0.4-0.5-1.1-0.6-1.6-0.2C250.3,171.6,250.2,171.7,250.1,171.8z"/>
<path class="st4" d="M248.3,177.4h-0.2c-0.3,0.1-0.5,0.4-0.7,0.6c-0.3,0.7-0.3,1.4,0,2c0.1,0.7,0.2,1.5-0.4,1.9
	c-0.3,0.1-0.6,0.2-0.9,0.3c-0.7,0.4-1.1,1.2-0.8,2s1.1,1.3,1.9,1.2c1.1-0.2,2-0.8,2.6-1.8c1-1,1.5-2.3,1.4-3.7
	c-0.1-0.6-0.5-1.2-0.3-1.8L248.3,177.4C248.2,177.5,248.3,177.5,248.3,177.4z"/>
<path class="st5" d="M248.3,177.4C248.3,177.5,248.2,177.5,248.3,177.4l2.6,0.6v-0.1L248.3,177.4z"/>
<g>
	<path class="st6" d="M278.5,13.1c0.1,1,0.2,1.7,0.2,2.4c0,4.6,0,9.2,0.1,13.9c0.2,19.2,0.3,38.5,0.5,57.7c0,3.2-0.1,6.5,0.1,9.7
		c0.2,1.7,0.6,3.4,1,5c6.5,27.2,6.7,25.8,12.6,51.4c0.2,1.1,0.6,2.1,1.1,3.6c0.9-0.9,1.8-1.8,2.5-2.9c2.6-4.6,5-9.2,7.7-13.8
		c10.1-17.4,26.3-44.6,27.3-46c1.6-2.2,1.2-4.5,0.9-6.8c-0.5-3.4-1.1-6.7,0.3-10c14.4-32.7,9.8-32.9,15.7-33.2c0.2,0,0.4,0,0.6,0
		c7.8,0,18,6.6,27.5,6.6c1.3,0,2.5-0.1,3.7-0.4c0.1,0,5.8-0.8,11.2-0.8c5.3,0,10.2,0.7,8.8,3.7c0,0.1-7.6,20.4-9.5,32.8
		c-5.3,35.4-5.8,33.4-3.9,34.4c0,0,0,0,0.1,0c0.3,0,1-0.4,1.1-0.8c0.1-0.1,16.8-30.7,16.9-30.8c5.6-10.8,12.9-24.3,14-26.5
		c0.2-0.4,0.3-0.9,0.5-1.3c1.1-2.3,2.5-3.3,4.6-3.3c0.8,0,1.7,0.1,2.8,0.4c6.2,1.6,41.4,3.6,41.5,3.6c2.2,0.7,2.3,1.1,1.7,3
		c-0.7,2.2-1.2,4.4-1.8,6.6c-8.1,28.9-15.8,64.5-29.5,114.7c-0.2,0.8-0.4,1.7-0.5,2.5c0.4,0.2,0.8,0.2,1,0.2c0.4,0,0.8-0.2,1.1-0.8
		c12.8-30.4,26.1-71.5,36.5-104.5c0.3-1.4,0.6-2.8,0.7-4.2c7.6-45.6,5.3-33.5,14.3-39.5c3.3-2.2,9-3.4,15.9-3.4
		c18,0,44.5,7.8,61.3,25.4c1.1,1.1,2.1,2.3,3.1,3.5c1,1.2,1.9,2.4,2.8,3.6c0.9,0.9,1.8,2.3,2.6,3.8c5.2,9.1,7.7,19.5,7.2,30
		c-0.1,3-0.4,5.9-0.9,8.8c-0.2,1.3-0.4,2.5-0.7,3.8s-0.6,2.6-0.9,4c-0.3,1.1-0.6,2.1-0.9,3.3c-0.5,1.5-0.8,3-1.4,4.5
		c-1,2.4-1.7,4.9-2.2,7.4c-0.4,1.2-0.9,2.4-1.6,3.5c-1.9,3.4-4,6.8-5.8,10.3c-2.6,5.1-6.1,9.7-10.3,13.7c-2.5,2.3-4.9,4.8-7.2,7.3
		c-12.4,13.1-46.3,48.3-66.4,48.3c-0.5,0-1,0-1.4-0.1c-0.7-0.1-2-0.1-3.6-0.1c-3.5,0-8.1,0.2-9.4,0.9c-0.9,0.7-1.6,1.6-2,2.7
		c0,0.1-0.5,0.8-3.6,9.2c-23.1,61-19.7,78.6-21.7,102.1c-0.9-0.5-1.7-0.6-2-1c-1-2-29.3-24.6-37.9-32.4c-1.4-1.3-1.5-2.1-0.9-3.9
		c1.8-5,21.1-66.1,21.4-68.8c0.2-1.5,1.1-2.9,1.7-4.4c0-0.1,0.1-0.1,0.1-0.2c1.4-3.2,0.7-4.1-2.8-4.1c-9.8,0-19.7,0-29.5,0
		c-1.5,0-2.2-0.7-1.9-2c2.5-10.3,18.5-87.4,18.5-87.6c0.6-2.4,0.5-3.4,0.1-3.4c-2.2,0-13.7,21.8-17.6,28.4
		c-1,1.7-25.6,44.5-34.6,60.2c-1.9,3.4-3.1,5.5-3.2,5.7c-0.8,1.6-3.9,2.1-7.4,2.1c-0.4,0-0.7,0-1.1,0c-3.5-0.1-7.1-0.5-10.5-1.1
		c-4-0.8,28.9-102.6,31.8-114.4c0.1-0.5,0.2-1,0.5-1.4c1.2-1.2,1.2-2.6,0.9-4.1c-0.3-0.1-0.5-0.1-0.7-0.1c-0.8,0-1,0.7-1.3,1.3
		c-1.7,3.7-3.4,7.5-5.2,11.1c-2.4,4.8-4.8,9.5-7.3,14.2c-0.8,1.5-1.9,2.9-2.7,4.4c-2.5,4.8-4.9,9.6-7.3,14.3c-1,2-2.3,3.8-3.4,5.7
		c-24.3,45.2-23.5,49.1-27.2,49.1c-0.3,0-0.6,0-0.9,0c-2.1-0.2-4.3,0-6.5-0.2s-4.5-0.5-6.7-0.7c-0.1,0-0.2,0-0.3,0
		c-2,0-2.5,1-2.1,3.1c5.4,30.2,7.1,38.8,17.4,81.4c0.2,0.8,0.3,1.5,0.2,2.3c-0.1,0.5-38.5,16.7-59.9,25.7
		c-8.2,3.4-13.9,5.8-13.9,5.8c-0.3,0.2-0.6,0.3-0.8,0.3c-0.5,0-0.9-0.2-1.3-0.7c-0.1-0.1-0.2-0.3-0.2-0.4c-0.1-0.3-0.2-0.7-0.2-1
		c-4.6-35.4-3.7-45.2-7.4-45.2c-2.9,0-8.6,5.9-21.8,10.3c-4.4,1.5-4.7,1.6-1.4,32c-0.8,0.5-1.5,1.1-2.4,1.7
		c-0.9,0.5-50.4,18.5-68.1,25.3c-0.7,0.2-1.4,0.4-2.2,0.7c-0.2-1.9-0.6-3.4,0.4-4.8c0.1-0.2,0.1-0.6,0.1-0.9
		c0.5-7.2,6.1-58.3,7.4-64.5c-0.4-0.2-0.8-0.4-1.2-0.4c-5.4,0-10.1,21.7-69.5,58.2l-9.7,0.8c-8.7-38.4-16.5-73.7-23.1-103.8
		c-0.2-0.8-0.3-1.6-0.5-2.4c-10-45.5-17.3-78.9-21.1-92.8c-0.3-1.5-0.8-3-1.5-4.5c-0.4-0.8-0.1-1.8,0.7-2.2c2.6-2,5.2-4.1,7.9-5.8
		c15.3-9.7,44.5-37.8,68.4-37.8c0.7,0,1.4,0,2,0.1c5,0.3,10,1.6,14.4,3.9c5.6,3,10.2,7.7,13,13.3c11.3,21.2,4.7,56.2-3.7,71.6
		c-1.2,2.2-2.7,4.2-4.2,6.1c-0.6,0.8-1.1,1.6-0.6,2.4c0.2,0.4,1.2,0.6,1.8,0.6c20.2-0.9,18.6-1.3,21.7-1.4c0.9,0.1,1.8,0.4,2.6,0.9
		c11,5.9,6.8,9.5,12.7,13.5c1.1-0.7,1.8-1.9,1.8-3.3c0.3-3.1,0.5-6.2,0.9-9.2C170,88.8,167.9,64,169.7,57.4c0.4-1.3,1.3-2.4,2.5-3
		c34.5-13.5,38-6.3,101.7-39.2c0.9-0.4,1.7-1.1,2.6-1.5C277.1,13.4,277.8,13.2,278.5,13.1 M494.7,175.4c4,0,10.3-2.4,13.6-4.3
		c12.8-7.1,27-29.7,22-52.7c-0.6-2-1.1-4.1-1.4-6.2c-0.3-3-5.4-7.9-8.8-7.9c-1.1,0-2,0.5-2.5,1.7c-0.7,1.8-6.7,7-8.9,10.3
		c-4.5,6.8-19.1,45.1-19.3,45.9c-0.9,3.3-2.1,6.6-3.7,9.6c-1.5,3.2,1.1,2.7,8,3.5C494,175.4,494.4,175.4,494.7,175.4 M81.7,182.6
		c0.3,0,0.8-0.3,1.1-0.5c1.3-1.8,2.8-3.7,4.1-5.8c12.2-19.7,10.4-24.8,10.4-29c0.1-3.6-0.7-6.6-4.2-8.7c-1.2-0.8-2.5-1.1-3.9-1.1
		c-0.6,0-1.2,0.1-1.8,0.2c-10.5,3-10.6,12.2-10.9,13.6c0,0.1,0.1,0.2,0.1,0.3c1.4,7.5,3.9,29.8,4,29.9c0.2,0.5,0.5,0.9,1,1.1
		C81.6,182.5,81.6,182.6,81.7,182.6 M199.9,157c-7.7-0.1-15.4-0.1-23-0.1c-10.2,0.1-13,11.7-9.2,16.2c5.2,6.2,14.6,6.2,17.5,7.4
		c2.8,1,4.7,3.6,4.8,6.5c0.3,4.3-2,21,12.7,30.1c2,1.3,4.3,2,6.6,2c3.7,0,7.7-1.8,11.4-5.9c1.3-1.2,3-1.9,4.8-1.9
		c1.5-0.1,3-0.1,4.6-0.1c1.1,0,2.2,0,3.3,0.1c2,0,3.9-0.5,5.8-1.3c2.9-1,5.6-2.7,7.9-5c16.9-15.9,25.3-50.1,3.9-62.9
		c-3.8-2.2-7.6-3.2-11.4-3.2c-11.6,0-23.3,8.6-33.8,16.2C204.1,156.4,202,157,199.9,157 M97.2,254.8c0.8,0,1.7-0.4,2.1-1.2
		c2.6-2.7,5-5.3,7.5-7.8c7.1-6.8,17.9-25.1,14.2-32.9c-0.7-1.4-1.5-2.3-2.7-2.3c-0.5,0-0.9,0.1-1.5,0.4c-0.6,0.3-1.3,0.5-2,0.6
		c-3.5,0-20,11.1-22.2,12.6c-1.1,0.6-1.7,1.9-1.7,3.1c0.3,10.4,3.9,25,3.9,25.1c0.3,0.8,0.7,1.9,1.4,2.2
		C96.5,254.8,96.9,254.8,97.2,254.8 M283.9,6.3l-6.2,0.9c-1.3,0.2-2.6,0.6-3.7,1.1c-0.8,0.4-1.5,0.8-2,1.1c-0.2,0.1-0.4,0.3-0.5,0.3
		l-0.2,0.1l-0.1,0.1c-41.4,21.4-57.2,25.6-72.4,29.7c-8.2,2.2-16.6,4.5-28.7,9.2l-0.3,0.1l-0.2,0.1c-2.6,1.3-4.7,3.7-5.6,6.6v0.1
		v0.1c-0.7,2.6-0.9,6.2-1.3,13.4c-0.8,14.8-2.4,45.5-11,106.9c-1.6-1.5-3.7-3-6.6-4.5c-1.5-0.9-3.2-1.5-4.9-1.7h-0.4h-0.4
		c-1.2,0-1.8,0.1-2.7,0.2c-1.3,0.1-3.5,0.4-10.4,0.8c4.8-8.9,8.6-22.6,9.8-35.7c1.1-11.5,0.9-27.9-6.2-41.3
		c-3.3-6.6-8.8-12.3-15.5-15.8l0,0l0,0c-5-2.6-10.8-4.2-16.8-4.6c-0.8-0.1-1.6-0.1-2.4-0.1c-20.1,0-42.4,16.9-58.6,29.3
		c-5.1,3.8-9.4,7.2-12.9,9.4c-2.5,1.5-4.8,3.3-7,5.1c-0.4,0.3-0.7,0.5-1.1,0.8c-1.5,1-2.6,2.4-3.1,4.1c-0.6,1.9-0.4,3.9,0.4,5.6
		c0.5,1,0.8,2.1,1,3.1v0.2l0.1,0.2c3.6,13.1,10.3,43.6,19.6,85.8l1.5,6.7v0.1v0.1c0.1,0.2,0.1,0.5,0.2,0.9c0.1,0.4,0.2,0.9,0.3,1.5
		c5.4,24.6,13.6,62,23.1,103.8l1.2,5.1l5.2-0.4l9.7-0.8l1.4-0.1l1.2-0.7c34-20.9,50.4-37,59.4-47.3c-2.1,17.4-4.7,42.1-5.2,48
		c-1.1,2.5-0.8,4.9-0.6,6.5c0,0.2,0.1,0.5,0.1,0.7l0.8,7.7l7.3-2.7c0.6-0.2,1.1-0.4,1.7-0.5l0.3-0.1l0.2-0.1
		c10-3.8,29.9-11.2,45.9-17.1c22.2-8.2,22.3-8.2,23-8.6l0.2-0.1l0.2-0.1c0.5-0.4,1-0.7,1.4-1c0.3-0.3,0.6-0.5,0.9-0.6l3.2-2
		l-0.4-3.7c-1.2-10.8-2.4-21.9-2.2-25.8c7.7-2.6,13-5.7,16.6-7.9c0.4,2.7,0.7,6.4,1.2,10.5c0.7,6.6,1.6,15.6,3.1,27.3
		c0,0.7,0.2,1.4,0.4,2.1c0.2,0.9,0.7,1.8,1.3,2.6c1.4,1.8,3.6,2.9,5.9,2.9c1.3,0,2.5-0.3,3.6-0.9c1.4-0.6,6.6-2.8,13.5-5.6
		c15.6-6.6,28.4-12,38-16.1c6.7-2.9,12-5.1,15.6-6.7c2.1-0.9,3.7-1.6,4.8-2.1c2.2-1,4.5-2.1,5.1-5.1v-0.2V287
		c0.2-1.9-0.1-3.4-0.3-4.5c-9.6-39.5-11.6-49.4-16.5-76.6c0.6,0.1,1.2,0.1,1.9,0.2c1.4,0.1,2.7,0.1,3.8,0.1c1,0,1.9,0,2.6,0.1l0,0
		l0,0c0.4,0,0.9,0.1,1.4,0.1c4.2,0,6.5-2.6,7.8-4.5c1.2-1.9,2.6-4.7,5.1-9.8c3.5-7,9.3-18.8,19.6-37.9c0.3-0.4,0.5-0.9,0.8-1.4
		c-3.5,11.5-7.1,23.5-10.1,34c-2.7,9.4-4.6,16.6-5.9,21.9c-2.1,9-2.3,12-0.8,14.5c0.9,1.5,2.4,2.6,4.2,3h0.1h0.1
		c3.9,0.7,7.7,1.1,11.4,1.2c0.4,0,0.8,0,1.2,0c2.7,0,10,0,12.7-5.3c0.1-0.2,0.3-0.6,0.7-1.2c0.6-1,1.4-2.4,2.4-4.3
		c8.7-15.2,33.6-58.4,34.6-60.1c0.2-0.3,0.4-0.7,0.6-1c-4.8,23.1-11.1,53-12.6,59.2l0,0l0,0c-0.6,2.4-0.1,4.7,1.4,6.5
		c0.8,1.1,2.8,2.9,6.4,2.9h25c-0.2,0.6-0.3,1.1-0.4,1.8c-1,4.5-18.9,61.7-21.1,67.7v0.1v0.1c-0.9,2.6-1.5,6.4,2.5,10.2l0,0l0,0
		c3.8,3.4,11.3,9.6,18.5,15.6c7.1,5.9,16.7,13.9,18.6,15.8l0.1,0.1c1.2,1.6,2.8,2.2,3.6,2.5c0.1,0,0.3,0.1,0.3,0.1l8.1,4.5l0.8-9.2
		c0.4-4.2,0.5-8.2,0.7-12.2c0.9-19.1,1.8-38.8,20.6-88.3l0,0l0,0c1.1-3,2.6-6.9,3.4-8.6l0,0c1.3-0.1,3.4-0.3,6.1-0.3
		c1.7,0,2.7,0.1,3,0.1c0.6,0.1,1.3,0.1,2,0.1c15.6,0,38.7-16.4,70.7-50.1l0,0l0,0c2.6-2.9,4.8-5.1,6.8-6.9l0,0l0,0
		c4.8-4.5,8.6-9.7,11.5-15.3c1.1-2.1,2.3-4.2,3.5-6.4c0.7-1.2,1.4-2.4,2.1-3.6c0.8-1.3,1.5-2.9,2.1-4.7l0.1-0.4l0.1-0.4
		c0.5-2.4,1.1-4.4,1.9-6.3l0,0l0,0c0.5-1.2,0.8-2.3,1.1-3.3c0.2-0.5,0.3-1.1,0.5-1.5l0.1-0.2l0.1-0.2c0.2-0.7,0.4-1.4,0.6-2.1
		c0.1-0.4,0.2-0.7,0.3-1.1v-0.2v-0.2c0.3-1.4,0.6-2.6,0.9-3.9c0.3-1.4,0.5-2.7,0.8-4.2c0.5-3.2,0.9-6.3,1-9.5
		c0.5-11.6-2.2-23.1-7.9-33.1c-1.1-2-2.2-3.6-3.3-4.8c-0.9-1.1-1.8-2.3-2.8-3.6c-1.1-1.3-2.1-2.6-3.4-3.9
		c-18-18.8-46-27.2-65.6-27.2c-5.8,0-13.8,0.8-19.2,4.4c-1.2,0.8-2,1.1-2.9,1.4c-3.9,1.3-6.3,3.1-8,9.2c-0.8,2.8-1.6,6.9-2.8,13.7
		c-1-1.3-2.6-2.3-4.7-2.9l-0.9-0.3H469c-6-0.3-35.4-2.2-40.2-3.4c-1.6-0.4-3-0.6-4.3-0.6c-3.1,0-7.4,1.2-10,6.7
		c-0.3,0.6-0.4,1.1-0.5,1.4l0,0c-0.5,1-1.9,3.7-3.7,7c-2.9,5.4-6.8,12.8-10.2,19.2l0,0c-0.6,1.1-1.7,3.1-3.9,7
		c0.3-1.9,0.6-4,0.9-6.2c1-6.8,4.2-17.8,9-31c0.1-0.2,0.1-0.4,0.2-0.5c1-2.4,0.8-5-0.6-7.1c-2.7-4.1-8.5-4.7-13.9-4.7
		c-4.4,0-9,0.5-11.5,0.8H380l-0.6,0.1c-0.8,0.2-1.6,0.2-2.5,0.2c-3.9,0-8.6-1.6-13.1-3.2c-4.8-1.7-9.7-3.4-14.4-3.4
		c-0.3,0-0.6,0-0.9,0c-2,0.1-5.1,0.3-7.4,3c-1.4,1.7-2,3.6-3.2,7.1c-1.4,4.3-4,12.4-10.3,26.7l0,0l0,0c-2,4.7-1.3,9.1-0.8,12.7
		l0.1,0.5v0.3c0.1,0.7,0.2,1.8,0.2,2.2c-1.3,1.8-18.4,30.5-27.6,46.5c-0.9,1.5-1.8,3.1-2.6,4.6c-1.7-7.3-2.9-11.7-4.1-16.7
		c-1.5-5.7-3.1-12.2-6.1-24.6l0,0l0,0c-0.3-1.3-0.7-2.7-0.8-4.1c-0.1-2.1-0.1-4.4-0.1-6.7c0-0.8,0-1.6,0-2.5l0,0l0,0
		c-0.1-9.6-0.2-19.4-0.2-28.8c-0.1-9.5-0.2-19.3-0.3-28.9l0,0l0,0c-0.1-4.6-0.1-9.3-0.1-13.8c0-0.9-0.1-1.6-0.2-2.4
		c0-0.2,0-0.4-0.1-0.6L283.9,6.3L283.9,6.3z M495.2,164c1.4-4,14.9-38.8,18.6-44.3c0.8-1.2,2.7-3.2,4.3-4.8c1.4-1.4,2.5-2.6,3.3-3.6
		c0.7,0.6,1.4,1.4,1.7,2c0.3,2.1,0.8,4.4,1.5,6.7c4.3,20.4-8.5,40.1-19.1,46c-2.9,1.6-8.2,3.5-10.7,3.5c-0.1,0-0.2,0-0.2,0l0,0l0,0
		c-0.3,0-0.7-0.1-1-0.1C494.1,167.6,494.7,165.8,495.2,164L495.2,164z M88.9,143.4c0.1,0,0.2,0,0.3,0c0.2,0,0.4,0.1,0.6,0.2l0.1,0.1
		l0.1,0.1c0.8,0.5,1.4,0.8,1.3,3.4v0.1v0.1c0,0.6,0,1.1,0,1.7c0.1,2.9,0.3,7-6.4,18.9c-0.8-6.2-1.7-12.9-2.4-16.8
		C83,147.8,84.2,144.8,88.9,143.4L88.9,143.4z M209.4,160l0.5-0.4c9.5-6.9,20.3-14.6,29.7-14.6c3,0,5.7,0.8,8.3,2.3
		c5.6,3.4,8.9,8.8,9.7,16.1c1.3,12.4-4.8,28.1-14.6,37.3l-0.1,0.1l-0.1,0.1c-1.6,1.6-3.6,2.9-5.6,3.6l-0.2,0.1l-0.2,0.1
		c-1.3,0.5-2.3,0.8-3.3,0.8c-1.1-0.1-2.2-0.1-3.5-0.1c-1.6,0-3.3,0.1-4.7,0.1c-3.2,0-6.3,1.3-8.7,3.5l-0.2,0.2l-0.2,0.2
		c-1.6,1.8-4.1,3.9-7,3.9c-1.2,0-2.3-0.4-3.4-1.1c-9.9-6.2-9.9-16.9-9.8-22.7c0-1,0-1.8,0-2.6c-0.2-5.2-3.7-10-8.6-11.8
		c-1.3-0.5-2.7-0.8-4.4-1.1c-3.5-0.7-8.2-1.6-10.7-4.5c-0.2-0.4-0.5-2.2,0.5-3.9c0.9-1.6,2.2-2.4,4.2-2.4c7.5,0,15.2,0,22.9,0.1l0,0
		l0,0C203.5,163,206.7,162,209.4,160L209.4,160z M115.4,217.6h0.3c0,0,0,0,0.1,0c-0.2,1.9-0.9,5-3.1,9.6c-2.6,5.4-6.7,11.3-9.9,14.4
		l0,0l0,0c-1.1,1.1-2.2,2.2-3.2,3.3c-1.3-6.4-2.1-12.1-2.4-16.4C104.9,223.2,113,218.4,115.4,217.6L115.4,217.6z"/>
	<path class="st6" d="M251.7,141.9c-15.1-9-31.2,2.9-45.3,13.1c-1.7,1.3-3.8,2-5.9,1.9c-7.6-0.2-15.3-0.1-23-0.1
		c-10.1,0.1-12.9,11.8-9.2,16.2c5.2,6.2,14.6,6.2,17.5,7.4c2.8,1,4.7,3.5,4.8,6.5c0.3,4.3-2,21,12.7,30.1c5.3,3.2,12,2.6,18-3.9
		c1.3-1.3,3-1.9,4.8-1.9c2.6-0.1,5.3-0.1,7.9,0c2-0.1,4-0.5,5.8-1.3c3-1.1,5.7-2.9,8-5.1C264.7,188.9,273.1,154.7,251.7,141.9z
		 M255.4,176.8c-3.4,14.8-13.7,29.4-24.3,27.2c-2.5-0.5-4.6-1.9-6-4c-0.5-0.8-1-1.6-1.4-2.4c-1.2-3.1-1.7-6.3-2.5-7.1
		c-1.4-1.4-2.3-2.4-4.4-0.2c-1.3,1.2-2,2.9-1.9,4.7c0.2,3.9,3.7,8.9-0.9,14.7c-0.6,0.9-4,1.3-5.2,0.8c-8-3.5-10.5-11.9-9.5-20.5
		c0.5-3.3,1.2-6.5,2.2-9.6c0.9-2.4,1.9-4.8,3-7.1c0.2-0.4,0.8-0.6,1.2-0.9c-3.3-0.4-23.4-3-31.6-4.8c-1.2-0.8,0.6-2.1,0.7-2.1
		c19.5-0.2,30.4,1.8,34,2.1c0,0,0-0.1,0.1-0.1s0.1,0,0.2,0c0.3-0.4,0.7-0.8,0.9-1.2c4-5,8.7-9.2,13.9-12.7
		c6.6-4.3,13.7-6.8,19.9-5.4C255.9,150.9,258.3,164,255.4,176.8z"/>
	<path class="st6" d="M234.8,174.7c0.3,0,0.6,0.1,0.8,0.2c0.3,0.2,0.6,0.4,0.8,0.7c0.8,0.6,1.8,0.9,2.7,0.8c2.1,0.1,4.6,0.1,6.1-1.5
		c0.6-0.6,1-1.4,1.6-2c0.4-0.4,0.9-0.7,1.3-1.2c0.1-0.1,0.2-0.3,0.3-0.5c0.3-0.8-0.3-1.9-1.1-1.6c-0.3,0.1-0.5,0.5-1.1,0.8
		c-0.7,0.9-1.8,1.3-2.9,0.9c-1.2-0.4-2-1.7-3.3-2c-1-0.2-2.1,0.4-3.1,0.6s-2.1,0.2-3.2,0.1c-3-0.2-6.1-0.5-9.1-0.9
		c-1.1-0.2-2.2-0.3-3.3-0.4c-0.8-0.1-1.7-0.2-2.5-0.3c-2-0.2-4-0.4-6-0.6c-1.2-0.1-2.5-0.2-3.7-0.3c0,0,0,0.1-0.1,0.1
		c0,0-0.1,0-0.2,0c-1.1,1.5-2.2,3-3,4.7C225.7,174.5,226,173.1,234.8,174.7z"/>
</g>
<path class="st5" d="M209.1,167.5c-0.1,0-0.1,0-0.2,0c0,0,0,0.1-0.1,0.1C208.9,167.6,209,167.6,209.1,167.5
	C209,167.6,209,167.5,209.1,167.5z"/>
<path class="st7" d="M247.9,154.1c0-0.2,0-0.5-0.2-0.7c-1.8-2.7-11.9,5-4.6,11c1.1,0.6,2.3,0.8,3.5,0.6c0.2,0,0.5-0.1,0.7-0.2
	c0.2-0.1,0.3-0.2,0.4-0.4C251.8,158.3,248,160.7,247.9,154.1z"/>
<path class="st5" d="M234,179.5c-3.4,2.5-5.6,6.3-6.3,7.1c-0.1,0.1-0.1,0.2-0.2,0.3c-0.5,0.8-0.4,1.8,0.4,2.4
	c0.7,0.7,1.9,0.8,2.8,0.2c3.1-2.3,9.3-7.5,6.4-10C236.3,178.7,234.9,178.7,234,179.5z"/>
<path class="st8" d="M231.8,155.7c0,0-0.1,0-0.1-0.2c-0.5-0.1-0.9-0.2-1.4-0.2c-0.2,0-0.5-0.1-0.7-0.1c-2.7-0.3-0.2-1.6-3.6-1.7
	c-0.6,0-1.2,0.1-1.8,0.4c-0.2,0.1-0.4,0.4-0.5,0.7c-0.1,0.5,0.1,1.1,0.4,1.6c0.4,0.8,0.5,1.7,0.1,2.4c-0.8,1.4-3.1,2.4-5.4,4.5
	c-0.4,0.4-0.8,0.8-1,1.3s-0.1,1.1,0.3,1.5c0.3,0.1,0.7,0.2,1.1,0.3c2.3,0.3,2.4-2.6,12.2-6.2c0.9-0.3,1.5-1.1,1.6-2.1
	C233,157,232.6,156.1,231.8,155.7z"/>
<path class="st9" d="M214.1,180.3c-1.9-1.3-6.1-2.6-6.9,0.4c-0.2,1.2-0.6,2.4-1.1,3.5c-0.7,1.3-2.6,3.3-1.9,4.9
	c0.4,0.9,1.5,1.2,2.5,1.3c0.4,0,0.8,0,1.2,0.1c0.3,0.1,0.5,0.2,0.8,0.2c1.5,0.1,2.8-1,2.9-2.4c0.2-0.6,0.3-1.3,0.4-1.9
	c0.1-0.7,0-1.3,0.1-2c0-0.7,0.3-1.3,0.8-1.8c0.4-0.2,0.8-0.4,1.2-0.6c0.4-0.2,0.7-0.6,0.6-1.1C214.6,180.6,214.3,180.3,214.1,180.3z
	"/>
</svg>
