<?xml version="1.0" encoding="utf-8"?>
<!-- Generator: Adobe Illustrator 25.0.0, SVG Export Plug-In . SVG Version: 6.00 Build 0)  -->
<svg version="1.1" id="Layer_1" xmlns="http://www.w3.org/2000/svg" xmlns:xlink="http://www.w3.org/1999/xlink" x="0px" y="0px"
	 viewBox="0 0 1920 1080" style="enable-background:new 0 0 1920 1080;" xml:space="preserve">
<style type="text/css">
	.st0 { fill: #ffffff; }
	.st1 { fill: #ffffff; stroke: #000000; stroke-miterlimit: 10; }
	.st2 { font-family: 'ComicSansMS-Bold'; }
	.st3 { font-size: 122.8531px; }
</style>
<g>
	<path class="st0" d="M201.81,489.11c1.27,57.29,9.78,116.63,33.9,169.04c45.45,98.79,140.02,159.23,238.52,196.64
		c127.56,48.45,265.93,69.96,401.76,76.19c141.06,6.47,281.07-6.2,419.9-30.77c62.28-11.02,125.26-22.53,184.24-46.08
		c0.53-0.21,1.06-0.43,1.59-0.65c-0.31-0.06-0.61-0.11-0.92-0.17c0.06-0.03,0.13-0.04,0.19-0.07c3.64-1.25,7.18-2.86,10.97-3.58
		c0.5-0.1,1-0.16,1.49-0.23c0.27,0.07,0.51,0.16,0.81,0.21c2.97,0.5,5.76,0.77,8.45,0.83c-0.45,0.22-0.89,0.46-1.34,0.68
		c4.98,0.95,9.97,1.9,14.95,2.88c46.19,9.07,92.22,19.48,137.13,33.71c39.68,12.58,77.11,28.96,113.85,48.04
		c-2.89-4.71-6.13-9.27-8.73-13.67c-6.39-10.82-13.01-21.52-20.19-31.85c-13.33-19.17-28.88-36.75-45.94-52.68
		c-16.62-15.52-34.73-28.95-53.82-41.25c-11.97-7.71-24.57-15.87-38.02-21.35c-1.42-0.92-3.02-1.53-4.75-1.79
		c-0.09-0.03-0.17-0.06-0.26-0.09c0.4-0.49,0.8-0.97,1.22-1.48c1.3-0.34,2.57-1.1,3.7-2.4c2.15-2.46,4.54-5.74,5.9-9.2
		c4.33-6.59,8.4-13.37,12.22-20.3c27.96-50.74,43.79-106.93,51.34-164.14c7.64-57.95,8.63-118.28-3.77-175.66
		c-5.85-27.09-14.92-53.77-29.06-77.71c-13.82-23.39-32.67-43.63-53.7-60.7c-44.57-36.19-98.85-58.89-153.24-75.81
		c-57.9-18.01-117.78-30.42-177.49-40.63c-70.12-11.99-140.94-19.9-211.94-24.2c-143.8-8.72-288.69-3.04-431.31,17.38
		c-35.23,5.04-70.32,11.01-105.22,17.98c-34.16,6.81-68.3,14.14-101.44,24.99c-23.77,7.78-48.89,16.78-70.97,28.53
		c-9.89,5.26-19.18,9.6-27.46,17.18c-20.03,18.33-30.19,32.4-46.82,50.66c-9.08,12.54-16.97,25.94-23.63,40.01
		C208.74,370.78,200.52,430.73,201.81,489.11z"/>
</g>
<g>
	<path d="M1779.19,940.93L1779.19,940.93c0-0.01,0-0.01,0-0.01c-1.95-9.49-8.62-18.05-13.37-26.32
		c-6.26-10.91-12.72-21.72-19.72-32.17c-13.72-20.5-29.8-39.34-47.67-56.34c-17-16.17-35.62-30.02-55.31-42.72
		c-11.64-7.51-23.87-15.07-36.93-20.05c22.87-31.54,39.35-68.14,51.49-104.57c18.28-54.86,26.04-113.61,26.43-171.31
		c0.38-57.45-6.86-118.36-34.45-169.66c-27.33-50.81-76.14-86.24-127.07-110.94c-52.45-25.44-109.12-41.21-165.79-54.03
		c-67.05-15.18-134.91-26.55-203.23-34.24c-147.51-16.6-297-17.1-444.7-2.53c-71.97,7.1-143.6,17.86-214.37,32.75
		c-57.39,12.07-116.92,28.09-168.11,58.17c-9.69,5.69-19.09,11.89-28.11,18.66c-6.98,5.24-13.2,11.56-18.52,17.88
		c-11.12,13.22-19.58,27.7-31.7,41.09c-1.82,2.01-5.51,11.03-7.38,12.99c0.73,0.8,9.35-13.73,9.37-12.65
		c21.72-22.61,31.68-38.02,54.66-59.06c8.27-7.57,17.54-11.89,27.42-17.15c22.05-11.73,47.12-20.72,70.86-28.49
		c33.09-10.83,67.18-18.15,101.29-24.95c34.85-6.95,69.89-12.91,105.07-17.95c142.41-20.39,287.08-26.06,430.66-17.36
		c70.9,4.3,141.6,12.19,211.62,24.17c59.62,10.2,119.41,22.59,177.23,40.57c54.31,16.89,108.51,39.56,153.01,75.69
		c21,17.05,39.82,37.25,53.62,60.61c14.12,23.9,23.17,50.55,29.02,77.59c12.38,57.29,11.4,117.53,3.77,175.39
		c-7.53,57.13-23.34,113.23-51.26,163.89c-3.81,6.92-7.88,13.69-12.21,20.27c-1.36,3.46-3.74,6.73-5.89,9.19
		c-1.14,1.3-2.4,2.06-3.7,2.4c-0.42,0.51-0.81,0.99-1.21,1.48c0.09,0.03,0.17,0.06,0.26,0.09c1.72,0.26,3.33,0.87,4.74,1.79
		c13.43,5.48,26.01,13.62,37.97,21.32c19.06,12.28,37.15,25.7,53.74,41.19c17.03,15.9,32.56,33.46,45.87,52.6
		c7.17,10.31,13.77,20.99,20.16,31.8c2.6,4.39,5.83,8.95,8.72,13.65c-36.68-19.04-74.05-35.41-113.68-47.96
		c-44.84-14.21-90.8-24.6-136.92-33.66c-4.97-0.98-9.95-1.93-14.93-2.88c0.45-0.22,0.89-0.46,1.34-0.68
		c-2.69-0.06-5.47-0.33-8.43-0.83c-0.29-0.05-0.54-0.14-0.81-0.21c-0.49,0.07-0.98,0.13-1.49,0.23c-3.79,0.72-7.32,2.33-10.96,3.57
		c-0.06,0.03-0.13,0.04-0.19,0.07c0.31,0.06,0.61,0.11,0.92,0.17c-0.53,0.21-1.06,0.43-1.59,0.65
		c-58.9,23.51-121.78,35-183.97,46.01c-138.62,24.53-278.43,37.18-419.27,30.73c-135.62-6.22-273.78-27.7-401.15-76.08
		c-98.36-37.36-192.79-97.71-238.17-196.35c-24.08-52.33-32.58-111.58-33.84-168.79c-1.29-58.29,6.92-118.15,32.04-171.25
		c12.36-26.12,28.83-50.01,49.61-70.14c0.53-0.51,5.25-5.34,4.09-6.14c-1.37-0.94-5.52,3.49-6.14,4.09
		c-88.16,85.36-101.48,215.64-82.64,331.22c9.09,55.75,29.23,108.2,64.41,152.8c33.22,42.11,76.77,74.82,123.76,100.13
		c51.7,27.85,107.55,47.25,164.03,62.83c69.37,19.13,140.4,32.11,211.89,40.06c145.72,16.2,293.74,11.95,438.77-8.94
		c64.87-9.34,130.43-20.23,193.97-36.44c32.2-8.21,64.37-18.5,94.73-32.42c72.59,13.67,145.04,29.44,213.16,58.47
		c23.57,10.04,47.01,21.4,68.02,36.15c1.3,0.91,7.48-5.41,7.21-6.83C1779.24,941.13,1779.21,941.03,1779.19,940.93z"/>
</g>
<path class="st1" d="M2376.9,1152.64"/>
<text transform="matrix(1 0 0 1 632.0733 349.3989)"><tspan x="0" y="0" class="st2 st3">LEARING, </tspan><tspan x="-220.6" y="147.42" class="st2 st3">AND TEACHING, </tspan><tspan x="-259.08" y="294.85" class="st2 st3">ONE MURAL AT A </tspan><tspan x="86.17" y="442.27" class="st2 st3">TIME.  </tspan></text>
</svg>
