<svg id="Layer_1" data-name="Layer 1" xmlns="http://www.w3.org/2000/svg" viewBox="0 0 675.33 358.47">
    <defs>
        <style>.cls-1,
        .cls-2 { fill: #fff; }
        .cls-2 { stroke: #000; }stroke-miterlimit:10; }
        </style>
    </defs>
    <path class="cls-1" d="M433.31,217.69c.54,24.38,4.16,49.62,14.42,71.92,19.34,42,59.57,67.74,101.48,83.66,54.27,20.61,113.13,29.76,170.92,32.41,60,2.75,119.57-2.64,178.64-13.09,26.49-4.69,53.28-9.59,78.38-19.6l.68-.28-.4-.07.08,0a33.93,33.93,0,0,1,4.67-1.52l.64-.1a2.79,2.79,0,0,0,.34.09,24.45,24.45,0,0,0,3.59.35l-.57.29c2.12.41,4.24.81,6.36,1.23,19.65,3.86,39.23,8.28,58.34,14.34a303.75,303.75,0,0,1,48.43,20.44c-1.23-2-2.61-4-3.71-5.82-2.72-4.61-5.54-9.16-8.59-13.55A140.86,140.86,0,0,0,1067.47,366a161.07,161.07,0,0,0-22.9-17.55c-5.09-3.28-10.45-6.75-16.18-9.09a5.2,5.2,0,0,0-2-.76l-.11,0,.52-.63a3.21,3.21,0,0,0,1.58-1,14.19,14.19,0,0,0,2.51-3.91c1.84-2.8,3.57-5.69,5.2-8.64,11.89-21.58,18.63-45.49,21.84-69.83,3.25-24.65,3.67-50.32-1.61-74.73-2.49-11.52-6.35-22.87-12.36-33.06a97.85,97.85,0,0,0-22.85-25.82c-19-15.4-42.05-25.06-65.19-32.25-24.63-7.66-50.11-13-75.51-17.29A834.92,834.92,0,0,0,790.22,61a908.83,908.83,0,0,0-183.49,7.4Q584.25,71.64,562,76.08c-14.53,2.89-29.05,6-43.15,10.63C508.69,90,498,93.85,488.61,98.84c-4.21,2.24-8.16,4.09-11.68,7.31-8.52,7.8-12.84,13.79-19.92,21.56a107.51,107.51,0,0,0-10.05,17C436.26,167.35,432.76,192.86,433.31,217.69Z" transform="translate(-429.08 -54.52)"/><path d="M1104.38,409.91h0c-.83-4-3.67-7.68-5.69-11.19-2.67-4.65-5.41-9.24-8.39-13.69a142.54,142.54,0,0,0-20.28-24,158.78,158.78,0,0,0-23.53-18.18c-5-3.19-10.16-6.41-15.71-8.53,9.73-13.42,16.74-29,21.9-44.49,7.78-23.33,11.08-48.33,11.25-72.88s-2.92-50.35-14.66-72.17c-11.63-21.62-32.39-36.69-54.06-47.2-22.31-10.83-46.42-17.53-70.53-23A793,793,0,0,0,838.22,60,901.59,901.59,0,0,0,649,59a844.91,844.91,0,0,0-91.2,13.93C533.41,78,508.09,84.85,486.31,97.64a126.71,126.71,0,0,0-12,8,48.14,48.14,0,0,0-7.87,7.6c-4.74,5.63-8.33,11.79-13.49,17.48-.77.86-2.34,4.7-3.14,5.53.32.34,4-5.84,4-5.38,9.24-9.62,13.48-16.18,23.25-25.13,3.52-3.22,7.47-5.06,11.67-7.3,9.38-5,20.05-8.81,30.15-12.12C533,81.67,547.48,78.55,562,75.66q22.23-4.44,44.7-7.64A907.55,907.55,0,0,1,789.9,60.64a834.26,834.26,0,0,1,90,10.28c25.37,4.34,50.81,9.61,75.4,17.26,23.11,7.19,46.17,16.83,65.1,32.2a97.91,97.91,0,0,1,22.81,25.79c6,10.17,9.86,21.51,12.34,33,5.27,24.37,4.85,50,1.61,74.62-3.21,24.3-9.93,48.17-21.81,69.73q-2.43,4.41-5.19,8.62a14.11,14.11,0,0,1-2.51,3.91,3.19,3.19,0,0,1-1.57,1l-.52.63.11,0a5.26,5.26,0,0,1,2,.76c5.71,2.33,11.07,5.8,16.15,9.07a161.32,161.32,0,0,1,22.86,17.53,139.59,139.59,0,0,1,19.52,22.38c3,4.38,5.86,8.93,8.57,13.52,1.11,1.87,2.48,3.81,3.71,5.81a303.36,303.36,0,0,0-48.36-20.4c-19.07-6.05-38.63-10.47-58.25-14.32l-6.35-1.23.57-.28a26,26,0,0,1-3.59-.36,3.37,3.37,0,0,1-.34-.09l-.63.1a32.94,32.94,0,0,0-4.66,1.52l-.08,0,.39.07-.68.28c-25.06,10-51.81,14.89-78.26,19.57-59,10.44-118.46,15.82-178.38,13.07-57.69-2.64-116.47-11.78-170.66-32.36-41.84-15.9-82-41.57-101.32-83.54-10.25-22.26-13.86-47.47-14.4-71.8-.55-24.8,2.94-50.27,13.63-72.86a102.15,102.15,0,0,1,21.11-29.84c.22-.22,2.23-2.27,1.74-2.61s-2.35,1.49-2.61,1.74c-37.51,36.32-43.18,91.74-35.16,140.91,3.86,23.72,12.43,46,27.4,65,14.13,17.91,32.66,31.83,52.65,42.6,22,11.85,45.76,20.1,69.79,26.73a579.88,579.88,0,0,0,90.15,17c62,6.89,125,5.08,186.66-3.8,27.6-4,55.49-8.61,82.52-15.5a238.5,238.5,0,0,0,40.31-13.8c30.88,5.82,61.7,12.53,90.68,24.88,10,4.27,20,9.1,28.94,15.38.56.38,3.18-2.3,3.07-2.91Z" transform="translate(-429.08 -54.52)"/>
    <path class="cls-2" d="M2376.9,1152.64" transform="translate(-429.08 -54.52)"/>
</svg>
