<svg id="Layer_1" data-name="Layer 1" xmlns="http://www.w3.org/2000/svg" viewBox="0 0 1073.07 569.58"><path d="M1497.54,817h0c-1.31-6.42-5.82-12.21-9-17.8-4.24-7.37-8.6-14.68-13.34-21.75a226.32,226.32,0,0,0-32.22-38.08,250.87,250.87,0,0,0-37.39-28.88c-7.86-5.08-16.13-10.19-25-13.56,15.46-21.32,26.6-46.06,34.81-70.69,12.35-37.08,17.6-76.79,17.86-115.8.26-38.84-4.64-80-23.29-114.69-18.47-34.34-51.47-58.29-85.9-75-35.45-17.2-73.76-27.86-112.07-36.53A1261.49,1261.49,0,0,0,1074.62,261,1433.59,1433.59,0,0,0,774,259.34,1346.9,1346.9,0,0,0,629.1,281.47c-38.8,8.17-79,19-113.65,39.32a202.5,202.5,0,0,0-19,12.62,77.29,77.29,0,0,0-12.52,12.09c-7.52,8.93-13.23,18.72-21.42,27.78-1.23,1.36-3.73,7.45-5,8.78.49.54,6.32-9.29,6.33-8.56,14.69-15.29,21.41-25.7,36.95-39.92,5.59-5.12,11.86-8,18.54-11.59,14.9-7.93,31.85-14,47.9-19.26,22.37-7.32,45.41-12.27,68.47-16.87q35.32-7,71-12.13A1441.08,1441.08,0,0,1,997.85,262a1323.76,1323.76,0,0,1,143.06,16.33c40.3,6.89,80.72,15.27,119.8,27.43,36.71,11.42,73.35,26.74,103.43,51.17,14.2,11.52,26.92,25.18,36.25,41,9.54,16.16,15.66,34.17,19.62,52.45,8.37,38.73,7.7,79.45,2.54,118.57-5.09,38.61-15.78,76.54-34.65,110.79-2.57,4.67-5.32,9.25-8.25,13.7a22.58,22.58,0,0,1-4,6.21,5,5,0,0,1-2.5,1.62l-.82,1,.17.06a8,8,0,0,1,3.21,1.21c9.08,3.7,17.58,9.2,25.66,14.41a255.54,255.54,0,0,1,36.33,27.84,223.39,223.39,0,0,1,31,35.56c4.84,7,9.31,14.19,13.62,21.49,1.76,3,3.94,6.05,5.9,9.23-24.8-12.87-50.06-23.93-76.85-32.42C1381.09,770,1350,763,1318.84,756.87q-5-1-10.09-2l.91-.46a39.14,39.14,0,0,1-5.7-.55c-.2,0-.36-.1-.54-.15l-1,.15a55.15,55.15,0,0,0-7.4,2.42l-.13,0,.62.11-1.07.44c-39.82,15.89-82.33,23.66-124.36,31.1-93.71,16.58-188.22,25.14-283.42,20.77-91.68-4.2-185.08-18.73-271.18-51.43-66.49-25.25-130.32-66-161-132.73-16.27-35.37-22-75.43-22.88-114.09-.87-39.41,4.68-79.87,21.66-115.77a162.46,162.46,0,0,1,33.54-47.41c.36-.35,3.55-3.6,2.77-4.15-.93-.63-3.73,2.37-4.15,2.77-59.59,57.7-68.6,145.77-55.86,223.9,6.14,37.69,19.75,73.14,43.54,103.29,22.45,28.47,51.9,50.58,83.66,67.69,35,18.83,72.7,31.94,110.88,42.47a922.11,922.11,0,0,0,143.24,27.08c98.51,11,198.57,8.08,296.6-6,43.85-6.32,88.17-13.68,131.13-24.63,21.76-5.56,43.51-12.51,64-21.92,49.08,9.24,98,19.9,144.1,39.52,15.93,6.79,31.77,14.47,46,24.44.88.62,5.06-3.66,4.87-4.62C1497.57,817.1,1497.55,817,1497.54,817Z" transform="translate(-424.52 -252.27)"/></svg>