<?xml version="1.0" encoding="utf-8"?>
<!-- Generator: Adobe Illustrator 25.0.0, SVG Export Plug-In . SVG Version: 6.00 Build 0)  -->
<svg version="1.1" id="Layer_1" xmlns="http://www.w3.org/2000/svg" xmlns:xlink="http://www.w3.org/1999/xlink" x="0px" y="0px"
	 viewBox="0 0 1920 1080" style="enable-background: new 0 0 1920 1080;" xml:space="preserve">
	<style type="text/css">
    .st0 {
        fill: #ffffff;
    }

    .st1 {
        fill: #ffffff;
        stroke: #000000;
        stroke-miterlimit: 10;
    }
	</style>
	<g>
		<path class="st0" d="M201.81,489.11c1.27,57.29,9.78,116.63,33.9,169.04c45.45,98.79,140.02,159.23,238.52,196.64
			c127.56,48.45,265.93,69.96,401.76,76.19c141.06,6.47,281.07-6.2,419.9-30.77c62.28-11.02,125.26-22.53,184.24-46.08
			c0.53-0.21,1.06-0.43,1.59-0.65c-0.31-0.06-0.61-0.11-0.92-0.17c0.06-0.03,0.13-0.04,0.19-0.07c3.64-1.25,7.18-2.86,10.97-3.58
			c0.5-0.1,1-0.16,1.49-0.23c0.27,0.07,0.51,0.16,0.81,0.21c2.97,0.5,5.76,0.77,8.45,0.83c-0.45,0.22-0.89,0.46-1.34,0.68
			c4.98,0.95,9.97,1.9,14.95,2.88c46.19,9.07,92.22,19.48,137.13,33.71c39.68,12.58,77.11,28.96,113.85,48.04
			c-2.89-4.71-6.13-9.27-8.73-13.67c-6.39-10.82-13.01-21.52-20.19-31.85c-13.33-19.17-28.88-36.75-45.94-52.68
			c-16.62-15.52-34.73-28.95-53.82-41.25c-11.97-7.71-24.57-15.87-38.02-21.35c-1.42-0.92-3.02-1.53-4.75-1.79
			c-0.09-0.03-0.17-0.06-0.26-0.09c0.4-0.49,0.8-0.97,1.22-1.48c1.3-0.34,2.57-1.1,3.7-2.4c2.15-2.46,4.54-5.74,5.9-9.2
			c4.33-6.59,8.4-13.37,12.22-20.3c27.96-50.74,43.79-106.93,51.34-164.14c7.64-57.95,8.63-118.28-3.77-175.66
			c-5.85-27.09-14.92-53.77-29.06-77.71c-13.82-23.39-32.67-43.63-53.7-60.7c-44.57-36.19-98.85-58.89-153.24-75.81
			c-57.9-18.01-117.78-30.42-177.49-40.63c-70.12-11.99-140.94-19.9-211.94-24.2c-143.8-8.72-288.69-3.04-431.31,17.38
			c-35.23,5.04-70.32,11.01-105.22,17.98c-34.16,6.81-68.3,14.14-101.44,24.99c-23.77,7.78-48.89,16.78-70.97,28.53
			c-9.89,5.26-19.18,9.6-27.46,17.18c-20.03,18.33-30.19,32.4-46.82,50.66c-9.08,12.54-16.97,25.94-23.63,40.01
			C208.74,370.78,200.52,430.73,201.81,489.11z"/>
	</g>
	<g>
		<path d="M1779.19,940.93L1779.19,940.93c0-0.01,0-0.01,0-0.01c-1.95-9.49-8.62-18.05-13.37-26.32
			c-6.26-10.91-12.72-21.72-19.72-32.17c-13.72-20.5-29.8-39.34-47.67-56.34c-17-16.17-35.62-30.02-55.31-42.72
			c-11.64-7.51-23.87-15.07-36.93-20.05c22.87-31.54,39.35-68.14,51.49-104.57c18.28-54.86,26.04-113.61,26.43-171.31
			c0.38-57.45-6.86-118.36-34.45-169.66c-27.33-50.81-76.14-86.24-127.07-110.94c-52.45-25.44-109.12-41.21-165.79-54.03
			c-67.05-15.18-134.91-26.55-203.23-34.24c-147.51-16.6-297-17.1-444.7-2.53c-71.97,7.1-143.6,17.86-214.37,32.75
			c-57.39,12.07-116.92,28.09-168.11,58.17c-9.69,5.69-19.09,11.89-28.11,18.66c-6.98,5.24-13.2,11.56-18.52,17.88
			c-11.12,13.22-19.58,27.7-31.7,41.09c-1.82,2.01-5.51,11.03-7.38,12.99c0.73,0.8,9.35-13.73,9.37-12.65
			c21.72-22.61,31.68-38.02,54.66-59.06c8.27-7.57,17.54-11.89,27.42-17.15c22.05-11.73,47.12-20.72,70.86-28.49
			c33.09-10.83,67.18-18.15,101.29-24.95c34.85-6.95,69.89-12.91,105.07-17.95c142.41-20.39,287.08-26.06,430.66-17.36
			c70.9,4.3,141.6,12.19,211.62,24.17c59.62,10.2,119.41,22.59,177.23,40.57c54.31,16.89,108.51,39.56,153.01,75.69
			c21,17.05,39.82,37.25,53.62,60.61c14.12,23.9,23.17,50.55,29.02,77.59c12.38,57.29,11.4,117.53,3.77,175.39
			c-7.53,57.13-23.34,113.23-51.26,163.89c-3.81,6.92-7.88,13.69-12.21,20.27c-1.36,3.46-3.74,6.73-5.89,9.19
			c-1.14,1.3-2.4,2.06-3.7,2.4c-0.42,0.51-0.81,0.99-1.21,1.48c0.09,0.03,0.17,0.06,0.26,0.09c1.72,0.26,3.33,0.87,4.74,1.79
			c13.43,5.48,26.01,13.62,37.97,21.32c19.06,12.28,37.15,25.7,53.74,41.19c17.03,15.9,32.56,33.46,45.87,52.6
			c7.17,10.31,13.77,20.99,20.16,31.8c2.6,4.39,5.83,8.95,8.72,13.65c-36.68-19.04-74.05-35.41-113.68-47.96
			c-44.84-14.21-90.8-24.6-136.92-33.66c-4.97-0.98-9.95-1.93-14.93-2.88c0.45-0.22,0.89-0.46,1.34-0.68
			c-2.69-0.06-5.47-0.33-8.43-0.83c-0.29-0.05-0.54-0.14-0.81-0.21c-0.49,0.07-0.98,0.13-1.49,0.23c-3.79,0.72-7.32,2.33-10.96,3.57
			c-0.06,0.03-0.13,0.04-0.19,0.07c0.31,0.06,0.61,0.11,0.92,0.17c-0.53,0.21-1.06,0.43-1.59,0.65
			c-58.9,23.51-121.78,35-183.97,46.01c-138.62,24.53-278.43,37.18-419.27,30.73c-135.62-6.22-273.78-27.7-401.15-76.08
			c-98.36-37.36-192.79-97.71-238.17-196.35c-24.08-52.33-32.58-111.58-33.84-168.79c-1.29-58.29,6.92-118.15,32.04-171.25
			c12.36-26.12,28.83-50.01,49.61-70.14c0.53-0.51,5.25-5.34,4.09-6.14c-1.37-0.94-5.52,3.49-6.14,4.09
			c-88.16,85.36-101.48,215.64-82.64,331.22c9.09,55.75,29.23,108.2,64.41,152.8c33.22,42.11,76.77,74.82,123.76,100.13
			c51.7,27.85,107.55,47.25,164.03,62.83c69.37,19.13,140.4,32.11,211.89,40.06c145.72,16.2,293.74,11.95,438.77-8.94
			c64.87-9.34,130.43-20.23,193.97-36.44c32.2-8.21,64.37-18.5,94.73-32.42c72.59,13.67,145.04,29.44,213.16,58.47
			c23.57,10.04,47.01,21.4,68.02,36.15c1.3,0.91,7.48-5.41,7.21-6.83C1779.24,941.13,1779.21,941.03,1779.19,940.93z"/>
	</g>
	<path class="st1" d="M2376.9,1152.64"/>
	<g>
		<path d="M607.89,243.28l-1.32-2.89c4.69,2.06,7.04,4.91,7.04,8.55c0,1.32-0.46,2.76-1.38,4.34c-0.09,0.44-0.52,1.43-1.28,2.96
			c-0.77,1.54-1.15,2.37-1.15,2.5c0,0.31,0.02,0.77,0.07,1.38c0.04,0.61,0.07,1.07,0.07,1.38c0,1.27-0.94,3.57-2.83,6.91
			c-2.15,8.46-3.22,17.25-3.22,26.37c0,7.63,1.62,12.3,4.87,14.01c1.45,0.75,3.9,1.12,7.37,1.12c2.89,0,6.53-0.31,10.92-0.92
			c4.87-0.66,8.31-1.4,10.33-2.24c4.52-2.54,11.2-6.49,20.06-11.84c1.58-1.23,3.13-1.84,4.67-1.84c1.31,0,2.64,0.45,3.98,1.35
			c1.34,0.9,2.22,1.92,2.66,3.06c0.09,0.18,0.39,1.49,0.92,3.95c-4.17,7.45-11.16,13.64-20.98,18.55
			c-8.46,4.25-17.74,7.04-27.82,8.35c-1.05,0.13-2.15,0.2-3.29,0.2c-0.31,0-1.62-0.13-3.95-0.4c-9.56-1.1-16.57-4.65-21.05-10.65
			c-3.77-5.09-5.66-10.96-5.66-17.63c0-1.27,0.21-3.18,0.62-5.72c0.42-2.54,0.62-4.45,0.62-5.72c-0.04-0.74-0.04-1.34,0-1.78
			c0.38-5.57,1.07-11.55,2.04-17.96c0.38-2.19,1.21-6.51,2.49-12.96c-0.31-0.79-0.46-1.69-0.46-2.7c0-3.24,0.96-6.16,2.89-8.75
			c2.15-2.85,4.89-4.27,8.22-4.27c0.35,0,0.72,0.02,1.12,0.07C606.36,241.64,607.5,242.71,607.89,243.28z"/>
		<path d="M757.31,321.68c-0.83,0.26-5.33,1.05-13.48,2.37l-31.04,5c-0.92,0.17-1.8,0.26-2.63,0.26c-0.31,0-0.79-0.03-1.45-0.1
			s-1.14-0.1-1.45-0.1c-1.1,0-2.72,0.21-4.87,0.62c-2.15,0.42-3.77,0.62-4.87,0.62c-2.19,0-4.98-1.05-8.35-3.16
			c-3.11-1.93-5.37-3.84-6.77-5.72c-1.49-2.06-3.31-6.47-5.46-13.22c0.13-1.18,0.2-2.15,0.2-2.89c0-1.01-0.11-2.41-0.33-4.21
			c-0.18-1.97-0.28-3.38-0.33-4.21c-0.31-10.87-0.09-20.17,0.66-27.89c0.09-0.66,0.59-6.14,1.51-16.44c-0.13-0.48-0.2-0.99-0.2-1.51
			c0-2.1,1.27-4.27,3.81-6.51c2.15-1.88,4.45-3.24,6.91-4.08c0.57-0.17,1.67-0.31,3.29-0.39c1.14-0.09,2.21-0.5,3.22-1.25
			c10.48-1.84,29.31-4.65,56.5-8.42c2.28,0,4.12,0.82,5.52,2.47c1.4,1.64,2.1,3.58,2.1,5.82c0,3.2-1.03,5.9-3.09,8.09
			c-2.15,2.32-4.89,3.49-8.22,3.49c-1.27,0-2.46-0.26-3.55-0.79c-6.75,0.44-16.84,1.58-30.25,3.42l-13.81,2.83l-3.09,2.17
			c-1.14,4.56-1.75,7.39-1.84,8.48c0-0.22,0,2.65,0,8.62c0,1.58-0.11,3.16-0.33,4.74c6.09-0.66,12.19-1.31,18.28-1.97
			c6.97-0.88,13.02-1.88,18.15-3.03l15.06-3.49l5.52,2.04c2.72,1.49,4.08,3.44,4.08,5.85c0,2.15-0.72,4.25-2.17,6.31
			c-1.45,2.06-3.22,3.35-5.33,3.88l0.53-0.2c-0.53,0.18-7.5,1.56-20.91,4.14c-4.6,0.92-16.16,2.5-34.66,4.74
			c0.22,6.01,1.14,10.02,2.76,12.04c0.35,0.44,3.73,0.66,10.12,0.66c1.31,0,2.94-0.17,4.87-0.5c9.51-1.27,23.81-3.28,42.88-6.04
			c0.66-0.07,1.25-0.11,1.78-0.11c5.26,0,7.9,2.61,7.9,7.83C764.48,316.72,762.09,319.97,757.31,321.68z"/>
		<path d="M823.47,237.56c1.84,0.09,3.3,0.78,4.37,2.07c1.07,1.29,1.61,2.82,1.61,4.57c2.94,4.12,5.02,7.21,6.25,9.27
			c2.1,3.6,3.57,6.97,4.41,10.13c0.09,0.48,0.31,1.38,0.66,2.7c0.66,1.93,5.02,11.09,13.09,27.49c6.75,13.68,10.13,22.67,10.13,26.97
			c0,2.54-0.89,4.73-2.66,6.54c-1.78,1.82-4,2.73-6.68,2.73c-4.6,0-7.63-2.3-9.08-6.91c-1.01-1.45-2.37-4.36-4.08-8.75
			c-8.29,0.61-15.81,0.92-22.56,0.92h-10.79c-1.49,0-3.57-0.07-6.25-0.2c-2.89-0.17-4.98-0.26-6.25-0.26
			c-1.84,3.99-4.12,8.33-6.84,13.02c-1.67,1.23-3.66,1.84-5.99,1.84c-2.59,0-4.79-0.89-6.61-2.66c-1.82-1.78-2.73-3.89-2.73-6.35
			c0-1.01,0.81-3.57,2.43-7.7c-2.24-1.58-3.35-3.92-3.35-7.04c0-2.02,0.68-3.79,2.04-5.33c0.4-0.48,1.86-1.78,4.41-3.88h4.67
			l8.35-19.2c1.36-3.11,6.75-13.64,16.18-31.57c1.88-3.55,3.16-5.72,3.81-6.51c1.8-2.15,4.08-3.22,6.84-3.22
			C819.78,236.24,821.32,236.68,823.47,237.56z M834.25,296.75c-0.13-0.83-0.61-1.97-1.45-3.42c-1.05-1.84-1.67-2.98-1.84-3.42
			c-1.89-7.23-5.37-15.61-10.46-25.12c-4.91,7.41-7.23,11.84-6.97,13.29l-4.08,3.75c-1.14,3.25-2.92,8.16-5.33,14.73h8.88
			c0.75,0.31,2.43,0.64,5.06,0.99l1.32-0.99h1.58c1.05,0,2.61,0.11,4.67,0.33c2.06,0.22,3.62,0.33,4.67,0.33
			C831.75,297.21,833.07,297.06,834.25,296.75z"/>
		<path d="M894.16,321.74l4.27,7.1l-4.87-2.3c-1.1,4.74-3.84,7.3-8.22,7.69c-4.25,0.35-7.5-1.89-9.73-6.71c0-4.6-0.2-8.33-0.59-11.18
			c-0.18-1.45-0.2-5.59-0.07-12.43l-4.41-3.62c-0.88-1.67-1.32-3.24-1.32-4.74c0-1.23,0.42-2.87,1.25-4.93l4.47-1.78
			c-1.88-11.27-2.83-19.36-2.83-24.27c0-0.96-0.07-2.41-0.2-4.34c-0.13-1.93-0.2-3.38-0.2-4.34c0-3.64,2.52-6.86,7.56-9.67
			c7.54-4.17,15.1-6.97,22.69-8.42c5.13-1.01,13.04-1.69,23.74-2.04c0.61,0,3.4,0.37,8.35,1.12c0.61,0.09,1.58,0.35,2.89,0.79
			c1.1,0.39,2.02,0.59,2.76,0.59c0.39,0,0.79,0,1.18,0c4.56,1.66,8.13,3.22,10.72,4.67c0.57,0.57,1.32,1.2,2.24,1.91
			c1.75,1.14,3.4,2.83,4.93,5.06c0.7,1.49,1.97,3.72,3.81,6.7v11.63c0,0.7-0.32,1.72-0.95,3.06c-0.64,1.34-0.98,2.31-1.02,2.92
			c-0.09,1.32-0.29,2.91-0.59,4.8c-1.27,4.03-3.35,7.58-6.25,10.65c-1.27,0.96-2.96,2.34-5.06,4.14l-6.45,7.03
			c-2.63,1.05-5.66,2.26-9.08,3.62c1.27,0.44,2.72,0.94,4.34,1.51c1.67,1.23,2.76,1.97,3.29,2.23c0.79,0.35,2.13,0.64,4.01,0.85
			c4.43,0.96,7.3,1.77,8.62,2.43c2.85,1.49,4.27,3.83,4.27,7.03c0,2.67-0.84,4.91-2.53,6.7c-1.69,1.8-3.78,2.69-6.28,2.69
			c-1.4,0-2.83-0.33-4.27-0.99c-2.89-0.88-7.23-2.21-13.02-4.01c-1.71-0.35-4.25-0.96-7.63-1.84c-1.67-1.1-4.08-2.3-7.23-3.62
			c-1.58-0.44-4.17-0.94-7.76-1.51l-1.25-0.99c-2.5-1.1-6.49-2.48-11.97-4.14l-2.83-0.46c0.35,4.43,0.81,7.21,1.38,8.35
			c-0.26,0.75-0.39,1.18-0.39,1.32C893.96,319.73,894.03,320.3,894.16,321.74z M901.59,293.2h0.07c2.24,0.18,3.97,0.26,5.2,0.26
			c6.23,0,10.85-0.94,13.88-2.83c2.46-1.53,4.74-2.35,6.84-2.43c0.39-0.04,0.92-0.24,1.58-0.59l1.64-2.3
			c2.76-1.18,4.78-2.35,6.05-3.49l1.05-2.3l1.91-1.05c0.57-1.14,1.49-2.7,2.76-4.67c0.83-3.2,1.25-5.74,1.25-7.63
			c0-2.32-0.85-4.47-2.56-6.45c-1.62-1.84-3.64-3.13-6.05-3.88c-4.78-1.53-7.54-2.32-8.29-2.37l-2.37,0.53l-2.17-0.92
			c-10-0.48-15.52-0.31-16.57,0.53l-3.09,2.43l-1.45-0.79l-3.29,1.12l-9.6,5.33c0.04,1.67,0.26,3.88,0.66,6.64l-0.2,1.25
			c0,1.32,0.22,2.56,0.66,3.75l-0.26,1.45l0.92,1.97l-0.59,1.51c0.35,4.21,0.75,8.31,1.18,12.3
			C893.63,291.84,897.25,292.72,901.59,293.2z"/>
		<path d="M1051.67,270.31l-0.13-0.07l0.86,0.92l0.85,0.92c-0.57,0.53-1.16,0.79-1.78,0.79c-1.67,0-2.54-1.01-2.63-3.03
			c0.04-1.14,0.07-4.25,0.07-9.34c0-0.75,0.04-1.85,0.13-3.32c0.09-1.47,0.13-2.55,0.13-3.26c-0.92-5.88-1.38-10.63-1.38-14.27
			c0-3.16,1.05-5.66,3.16-7.5c1.84-1.62,4.05-2.43,6.64-2.43c3.42,0,5.79,1.27,7.1,3.81c0.53,1.01,1.23,5.06,2.1,12.16
			c0,0.26,0,0.67,0,1.22s0,0.95,0,1.22c0,2.37,0.15,5.93,0.46,10.68s0.46,8.34,0.46,10.75c0,2.32-0.22,5.82-0.66,10.48
			c-0.44,4.67-0.66,8.16-0.66,10.48c0,0.35,0.02,0.85,0.07,1.51c0.04,0.66,0.07,1.16,0.07,1.51c-0.22,0.75-0.37,1.64-0.46,2.7
			c-0.57,5.43-1.45,12.53-2.63,21.29c-0.35,2.5-1.58,4.54-3.68,6.11c-1.93,1.45-4.1,2.17-6.5,2.17c-2.94,0-5.06-1.05-6.38-3.15
			c-0.22-0.31-0.46-0.66-0.72-1.05c-0.88-0.83-4.4-4.55-10.58-11.17l-2.89-1.71c-0.53-1.66-2.04-3.7-4.53-6.11
			c-0.57-0.39-1.4-1.07-2.5-2.04c-0.35-0.61-0.81-1.27-1.38-1.97c-0.44-0.31-1.07-0.79-1.91-1.44c-3.77-5.12-7.47-9-11.11-11.63
			c-1.88-1.36-3.24-2.61-4.07-3.74l-2.56-1.25l-1.58-2.43c-1.23-0.79-2.63-2.06-4.21-3.81c-0.26-0.31-2.06-1.77-5.39-4.4
			c0,1.18,0,2.1,0,2.76c0,0.97-0.1,2.46-0.3,4.47c-0.2,2.02-0.3,3.53-0.3,4.54c0,1.18,0.1,2.96,0.3,5.33s0.3,4.14,0.3,5.33
			c0,1.32-0.07,3.31-0.2,5.98c-0.13,2.68-0.2,4.67-0.2,5.99c0,4.08,0.53,10.19,1.58,18.35c0.13,1.18,0.24,2.02,0.33,2.5
			c-0.04-0.04-0.09-0.17-0.13-0.39c-0.48,2.28-1.21,3.42-2.17,3.42c-0.75,0-1.58-0.79-2.5-2.37l-0.2-0.33c0,0.13-0.02,0.24-0.07,0.33
			h5.26c0,2.85-1.12,5.17-3.35,6.97c-2.02,1.67-4.36,2.5-7.04,2.5c-5,0-7.67-2.39-8.02-7.17l-0.39-5.26l-0.72-2.5l0.39-2.76
			c0-2.32-0.26-5.8-0.79-10.42c-0.53-4.63-0.79-8.12-0.79-10.49c0-1.1,0.07-2.77,0.2-5.03c0.13-2.26,0.2-3.96,0.2-5.1
			c0-0.7-0.22-1.95-0.66-3.75c0.35-1.49,0.53-3.88,0.53-7.17c0-5.7,0.04-8.92,0.13-9.67l0.33-2.3c0.04-0.17,0.13-0.31,0.26-0.39
			c-0.31-0.22-0.46-1.05-0.46-2.5c0-0.92,0.13-2.28,0.39-4.08c0.26-1.8,0.39-3.13,0.39-4.01c0-0.26-0.04-0.64-0.13-1.12
			c-0.09-0.48-0.13-0.85-0.13-1.12c0-2.89,1.01-5.2,3.03-6.91c1.89-1.53,4.19-2.3,6.92-2.3c2.77,0,5.23,0.79,7.38,2.37
			c3.08,2.24,6.5,5,10.28,8.29l2.96,1.05c1.71,2.5,2.61,3.79,2.7,3.88c1.41,1.05,2.81,2.1,4.22,3.16c2.42,2.32,6.02,5.81,10.81,10.46
			c1.1,1.01,3.03,2.83,5.8,5.46c0.53,0.26,1.47,0.77,2.83,1.51c1.05,1.97,3.93,5.44,8.63,10.39l3.03,1.51
			c0.39,1.71,1.56,3.73,3.49,6.05c0.88-8.64,1.32-15.43,1.32-20.39l-0.59-2.5l0.66-2.83l1.31,0.33
			C1050.33,269.98,1050.79,270.09,1051.67,270.31z"/>
		<path d="M1104.81,252.49c0,6.88,0.17,13.4,0.53,19.53c0.22,3.9,0.33,6.51,0.33,7.83c0,1.54-0.13,3.81-0.4,6.84
			c-0.26,3.03-0.39,5.31-0.39,6.84c0,0.09,0.04,0.68,0.13,1.78c0.35,5.52,0.46,12.36,0.33,20.52c0.83,1.62,1.25,3.16,1.25,4.6
			c0,2.67-1.11,4.94-3.32,6.81c-2.21,1.86-4.75,2.8-7.6,2.8c-2.72,0-5.08-1.02-7.07-3.06c-2-2.04-2.99-4.37-2.99-7
			c0-1.32,0.26-2.65,0.79-4.01c-0.44-9.78-0.44-18.98,0-27.62c0.35-6.75,0.53-11.82,0.53-15.19c0-1.71-0.16-4.24-0.49-7.6
			c-0.33-3.35-0.49-5.86-0.49-7.53v-6.05c-1.71-1.8-2.56-3.79-2.56-5.98c0-3.2,1.29-5.79,3.88-7.76c2.37-1.84,5.28-2.76,8.75-2.76
			c3.2,0,5.97,1.02,8.32,3.06c2.34,2.04,3.52,4.55,3.52,7.53C1107.84,248.41,1106.83,250.56,1104.81,252.49z"/>
		<path d="M1195.57,270.31l-0.13-0.07l0.85,0.92l0.86,0.92c-0.57,0.53-1.16,0.79-1.78,0.79c-1.67,0-2.54-1.01-2.63-3.03
			c0.04-1.14,0.07-4.25,0.07-9.34c0-0.75,0.04-1.85,0.13-3.32c0.09-1.47,0.13-2.55,0.13-3.26c-0.92-5.88-1.38-10.63-1.38-14.27
			c0-3.16,1.05-5.66,3.16-7.5c1.84-1.62,4.06-2.43,6.64-2.43c3.42,0,5.79,1.27,7.1,3.81c0.53,1.01,1.23,5.06,2.1,12.16
			c0,0.26,0,0.67,0,1.22s0,0.95,0,1.22c0,2.37,0.15,5.93,0.46,10.68c0.31,4.75,0.46,8.34,0.46,10.75c0,2.32-0.22,5.82-0.66,10.48
			c-0.44,4.67-0.66,8.16-0.66,10.48c0,0.35,0.02,0.85,0.07,1.51s0.07,1.16,0.07,1.51c-0.22,0.75-0.37,1.64-0.46,2.7
			c-0.57,5.43-1.45,12.53-2.63,21.29c-0.35,2.5-1.58,4.54-3.68,6.11c-1.93,1.45-4.1,2.17-6.5,2.17c-2.94,0-5.06-1.05-6.37-3.15
			c-0.22-0.31-0.46-0.66-0.72-1.05c-0.88-0.83-4.4-4.55-10.58-11.17l-2.89-1.71c-0.53-1.66-2.04-3.7-4.53-6.11
			c-0.57-0.39-1.4-1.07-2.5-2.04c-0.35-0.61-0.81-1.27-1.38-1.97c-0.44-0.31-1.07-0.79-1.91-1.44c-3.77-5.12-7.47-9-11.11-11.63
			c-1.88-1.36-3.24-2.61-4.07-3.74l-2.56-1.25l-1.58-2.43c-1.23-0.79-2.63-2.06-4.21-3.81c-0.26-0.31-2.06-1.77-5.39-4.4
			c0,1.18,0,2.1,0,2.76c0,0.97-0.1,2.46-0.3,4.47c-0.2,2.02-0.3,3.53-0.3,4.54c0,1.18,0.1,2.96,0.3,5.33s0.3,4.14,0.3,5.33
			c0,1.32-0.07,3.31-0.2,5.98c-0.13,2.68-0.2,4.67-0.2,5.99c0,4.08,0.53,10.19,1.58,18.35c0.13,1.18,0.24,2.02,0.33,2.5
			c-0.04-0.04-0.09-0.17-0.13-0.39c-0.48,2.28-1.21,3.42-2.17,3.42c-0.75,0-1.58-0.79-2.5-2.37l-0.2-0.33c0,0.13-0.02,0.24-0.07,0.33
			h5.26c0,2.85-1.12,5.17-3.35,6.97c-2.02,1.67-4.36,2.5-7.04,2.5c-5,0-7.67-2.39-8.02-7.17l-0.39-5.26l-0.72-2.5l0.4-2.76
			c0-2.32-0.26-5.8-0.79-10.42c-0.53-4.63-0.79-8.12-0.79-10.49c0-1.1,0.07-2.77,0.2-5.03c0.13-2.26,0.2-3.96,0.2-5.1
			c0-0.7-0.22-1.95-0.66-3.75c0.35-1.49,0.53-3.88,0.53-7.17c0-5.7,0.04-8.92,0.13-9.67l0.33-2.3c0.04-0.17,0.13-0.31,0.26-0.39
			c-0.31-0.22-0.46-1.05-0.46-2.5c0-0.92,0.13-2.28,0.39-4.08c0.26-1.8,0.39-3.13,0.39-4.01c0-0.26-0.04-0.64-0.13-1.12
			c-0.09-0.48-0.13-0.85-0.13-1.12c0-2.89,1.01-5.2,3.03-6.91c1.89-1.53,4.2-2.3,6.92-2.3c2.77,0,5.23,0.79,7.38,2.37
			c3.07,2.24,6.5,5,10.28,8.29l2.96,1.05c1.71,2.5,2.61,3.79,2.7,3.88c1.41,1.05,2.81,2.1,4.22,3.16c2.42,2.32,6.02,5.81,10.81,10.46
			c1.1,1.01,3.03,2.83,5.8,5.46c0.53,0.26,1.47,0.77,2.83,1.51c1.05,1.97,3.93,5.44,8.63,10.39l3.03,1.51
			c0.39,1.71,1.56,3.73,3.49,6.05c0.88-8.64,1.32-15.43,1.32-20.39l-0.59-2.5l0.66-2.83l1.32,0.33
			C1194.23,269.98,1194.69,270.09,1195.57,270.31z"/>
		<path d="M1241.8,292.34l1.91,1.12l-1.91,2.17c0.13,1.93,0.37,3.73,0.72,5.39c2.24-0.39,3.77-0.72,4.61-0.99
			c1.45-0.44,2.92-1.12,4.41-2.04l4.15,0.79l1.25-0.79c3.47-0.48,6.36-1.21,8.69-2.17l1.91,0.39l1.91-0.33l1.65,0.33l1.12-0.72
			l23.3-2.89l1.78-1.32l3.49,0.72c0.75-0.09,1.49-0.13,2.24-0.13c4.12,0,7.46,1.89,10.01,5.66c0,3.73-0.61,7.28-1.84,10.65
			c-1.49,4.08-3.6,6.99-6.31,8.75c-16.22,10.52-31.44,15.78-45.64,15.78c-9.03,0-14.23-0.75-15.59-2.24
			c-0.53-0.53-1.21-1.14-2.04-1.84l-2.63-0.79c-0.48-0.13-2.39-1.03-5.72-2.7c-2.59-1.32-5.33-6.14-8.22-14.47
			c-1.4-4.03-2.1-9.93-2.1-17.69l3.16,0.72c-0.75-0.39-1.07-1.01-0.99-1.84c-0.39,0.57-1.09,0.85-2.1,0.85l0.07-0.79
			c0.44-4.69,1.4-8.72,2.89-12.1c1.88-3.68,3.77-7.37,5.66-11.05c2.15-4.25,4.69-7.54,7.63-9.87c0.35-0.17,0.75-0.42,1.18-0.72
			c0.44-0.57,0.92-1.23,1.45-1.97c3.38-3.77,8.81-7.5,16.31-11.18c7.72-3.81,13.96-5.72,18.74-5.72c4.12,0,7.8,0.46,11.05,1.38
			c2.59,0.31,4.12,0.72,4.6,1.25c5.17,2.15,9.45,4.91,12.83,8.29c3.73,1.36,5.59,3.64,5.59,6.84c0,3.2-1.27,5.84-3.81,7.92
			c-2.54,2.08-5.52,3.12-8.94,3.12c-2.1,0-4.23-0.92-6.38-2.76c-0.13-0.09-1.8-1.8-5-5.13l-1.05,0.39l-1.38-2.04
			c-3.03-1.49-5.35-2.24-6.97-2.24c-3.99,0-11.09,3.2-21.31,9.6c-1.05,0.7-2.5,2.28-4.34,4.74c-0.66,0.39-1.64,1.49-2.96,3.29
			l0.99,2.5l-3.42,1.71l-0.66,1.91C1243.59,281.91,1242.28,285.99,1241.8,292.34z M1274.88,313.52c1.27-0.26,2.06-0.39,2.37-0.39
			c0.44,0,0.96,0.09,1.58,0.26c0.83-0.53,3.95-1.4,9.34-2.63c0.13-0.17,0.33-0.5,0.59-0.99l7.17-5.2c0,0.7-0.24,1.23-0.72,1.58
			c0.79,0,1.18,0.72,1.18,2.17c-1.27,0-3.17,0.18-5.69,0.53c-2.52,0.35-4.4,0.53-5.62,0.53c-0.75,0-1.27,0.04-1.58,0.13l-2.56-0.33
			l-2.63,1.45l-2.63-0.26c-1.1,0.31-3.79,1.01-8.09,2.1c-1.1,0.61-2.5,1.05-4.21,1.32l-1.18-0.39l-1.51,1.45l-2.04-0.72l-0.66,0.66
			l1.71,1.18l-3.62,0.39l1.64-1.84c1.71-0.26,4.1-0.15,7.17,0.33C1269.22,314.49,1272.55,314.05,1274.88,313.52z"/>
		<path d="M447,399.19c1.84,0.09,3.3,0.78,4.37,2.07c1.07,1.29,1.61,2.82,1.61,4.57c2.94,4.12,5.02,7.21,6.25,9.27
			c2.1,3.6,3.57,6.97,4.41,10.13c0.09,0.48,0.31,1.38,0.66,2.7c0.66,1.93,5.02,11.09,13.09,27.49c6.75,13.68,10.13,22.67,10.13,26.97
			c0,2.54-0.89,4.73-2.66,6.54c-1.78,1.82-4,2.73-6.68,2.73c-4.6,0-7.63-2.3-9.08-6.91c-1.01-1.45-2.37-4.36-4.08-8.75
			c-8.29,0.61-15.81,0.92-22.56,0.92h-10.79c-1.49,0-3.57-0.07-6.25-0.2c-2.89-0.17-4.98-0.26-6.25-0.26
			c-1.84,3.99-4.12,8.33-6.84,13.02c-1.67,1.23-3.66,1.84-5.99,1.84c-2.59,0-4.79-0.89-6.61-2.66c-1.82-1.78-2.73-3.89-2.73-6.35
			c0-1.01,0.81-3.57,2.43-7.7c-2.24-1.58-3.35-3.92-3.35-7.04c0-2.02,0.68-3.79,2.04-5.33c0.4-0.48,1.86-1.78,4.41-3.88h4.67
			l8.35-19.2c1.36-3.11,6.75-13.64,16.18-31.57c1.88-3.55,3.16-5.72,3.81-6.51c1.8-2.15,4.08-3.22,6.84-3.22
			C443.32,397.88,444.85,398.32,447,399.19z M457.79,458.38c-0.13-0.83-0.61-1.97-1.45-3.42c-1.05-1.84-1.67-2.98-1.84-3.42
			c-1.89-7.23-5.37-15.61-10.46-25.12c-4.91,7.41-7.23,11.84-6.97,13.29l-4.08,3.75c-1.14,3.25-2.92,8.16-5.33,14.73h8.88
			c0.75,0.31,2.43,0.64,5.06,0.99l1.32-0.99h1.58c1.05,0,2.61,0.11,4.67,0.33c2.06,0.22,3.62,0.33,4.67,0.33
			C455.29,458.85,456.6,458.69,457.79,458.38z"/>
		<path d="M572.02,431.95l-0.13-0.07l0.85,0.92l0.85,0.92c-0.57,0.53-1.16,0.79-1.78,0.79c-1.67,0-2.54-1.01-2.63-3.03
			c0.04-1.14,0.07-4.25,0.07-9.34c0-0.75,0.04-1.85,0.13-3.32c0.09-1.47,0.13-2.55,0.13-3.26c-0.92-5.88-1.38-10.63-1.38-14.27
			c0-3.16,1.05-5.66,3.16-7.5c1.84-1.62,4.06-2.43,6.64-2.43c3.42,0,5.79,1.27,7.1,3.81c0.53,1.01,1.23,5.06,2.1,12.16
			c0,0.26,0,0.67,0,1.22s0,0.95,0,1.22c0,2.37,0.15,5.93,0.46,10.68c0.31,4.75,0.46,8.34,0.46,10.75c0,2.32-0.22,5.82-0.66,10.48
			c-0.44,4.67-0.66,8.16-0.66,10.48c0,0.35,0.02,0.85,0.07,1.51c0.04,0.66,0.07,1.16,0.07,1.51c-0.22,0.75-0.37,1.64-0.46,2.7
			c-0.57,5.43-1.45,12.53-2.63,21.29c-0.35,2.5-1.58,4.54-3.68,6.11c-1.93,1.45-4.1,2.17-6.5,2.17c-2.94,0-5.06-1.05-6.37-3.15
			c-0.22-0.31-0.46-0.66-0.72-1.05c-0.88-0.83-4.4-4.55-10.58-11.17l-2.89-1.71c-0.53-1.66-2.04-3.7-4.53-6.11
			c-0.57-0.39-1.4-1.07-2.5-2.04c-0.35-0.61-0.81-1.27-1.38-1.97c-0.44-0.31-1.07-0.79-1.91-1.44c-3.77-5.12-7.47-9-11.11-11.63
			c-1.88-1.36-3.24-2.61-4.07-3.74l-2.56-1.25l-1.58-2.43c-1.23-0.79-2.63-2.06-4.21-3.81c-0.26-0.31-2.06-1.77-5.39-4.4
			c0,1.18,0,2.1,0,2.76c0,0.97-0.1,2.46-0.3,4.47c-0.2,2.02-0.3,3.53-0.3,4.54c0,1.18,0.1,2.96,0.3,5.33s0.3,4.14,0.3,5.33
			c0,1.32-0.07,3.31-0.2,5.98c-0.13,2.68-0.2,4.67-0.2,5.99c0,4.08,0.53,10.19,1.58,18.35c0.13,1.18,0.24,2.02,0.33,2.5
			c-0.04-0.04-0.09-0.17-0.13-0.39c-0.48,2.28-1.21,3.42-2.17,3.42c-0.75,0-1.58-0.79-2.5-2.37l-0.2-0.33c0,0.13-0.02,0.24-0.07,0.33
			h5.26c0,2.85-1.12,5.17-3.35,6.97c-2.02,1.67-4.36,2.5-7.04,2.5c-5,0-7.67-2.39-8.02-7.17l-0.39-5.26l-0.72-2.5l0.4-2.76
			c0-2.32-0.26-5.8-0.79-10.42c-0.53-4.63-0.79-8.12-0.79-10.49c0-1.1,0.07-2.77,0.2-5.03c0.13-2.26,0.2-3.96,0.2-5.1
			c0-0.7-0.22-1.95-0.66-3.75c0.35-1.49,0.53-3.88,0.53-7.17c0-5.7,0.04-8.92,0.13-9.67l0.33-2.3c0.04-0.17,0.13-0.31,0.26-0.39
			c-0.31-0.22-0.46-1.05-0.46-2.5c0-0.92,0.13-2.28,0.39-4.08c0.26-1.8,0.39-3.13,0.39-4.01c0-0.26-0.04-0.64-0.13-1.12
			c-0.09-0.48-0.13-0.85-0.13-1.12c0-2.89,1.01-5.2,3.03-6.91c1.89-1.53,4.19-2.3,6.92-2.3c2.77,0,5.23,0.79,7.38,2.37
			c3.07,2.24,6.5,5,10.28,8.29l2.96,1.05c1.71,2.5,2.61,3.79,2.7,3.88c1.41,1.05,2.81,2.1,4.22,3.16c2.42,2.32,6.02,5.81,10.81,10.46
			c1.1,1.01,3.03,2.83,5.8,5.46c0.53,0.26,1.47,0.77,2.83,1.51c1.05,1.97,3.93,5.44,8.63,10.39l3.03,1.51
			c0.39,1.71,1.56,3.73,3.49,6.05c0.88-8.64,1.32-15.43,1.32-20.39l-0.59-2.5l0.66-2.83l1.31,0.33
			C570.68,431.62,571.14,431.73,572.02,431.95z"/>
		<path d="M690.99,435.1c-0.13,0.79-0.42,3.88-0.85,9.27c-0.26,3.68-0.88,6.75-1.84,9.21c-5.83,10.61-9.93,16.68-12.3,18.22
			c-1.23,2.02-4.27,4.63-9.14,7.83c-1.1,0.92-2.17,1.81-3.22,2.66c-1.05,0.86-2.39,1.54-4.01,2.04c-1.62,0.5-4.41,2.18-8.35,5.03
			c-7.59,3.59-13.88,5.72-18.88,6.38c-3.33,0-7.61,0.11-12.82,0.33l-10.72,0.59c-5.57-0.04-8.35-2.94-8.35-8.68
			c0-2.59,0.97-4.82,2.89-6.71c-0.44-12.54-1.29-31.33-2.56-56.36c-1.97-1.58-2.96-3.95-2.96-7.1c0-3.99,2.24-6.91,6.71-8.75
			c11.05-4.6,19.49-7.41,25.32-8.42c8.64-1.53,15.37-2.3,20.19-2.3c4.87,0,9.89,0.53,15.06,1.58c1.18,0.88,2.81,1.75,4.87,2.63
			l6.18,1.64l3.09,3.95c1.27,0.92,2.96,2.46,5.06,4.6c0.88,1.36,2.26,4.03,4.14,8.02l1.84,6.77c0.61,2.32,0.92,3.75,0.92,4.27
			C691.25,432.82,691.17,433.92,690.99,435.1z M671.79,436.48l0.85,1.84c-1.71-1.45-2.56-3.66-2.56-6.64c0-0.96-1.43-4.08-4.27-9.34
			c-2.59-1.67-5.26-3-8.02-4.01c-3.25-1.18-6.49-1.82-9.73-1.91c-0.53,0-1.35-0.1-2.47-0.3s-1.96-0.3-2.53-0.3
			c-2.98,1.32-6.07,2.41-9.27,3.29c-2.59,0.66-7.17,1.91-13.75,3.75c0.83,7.59,1.25,16.75,1.25,27.49c0,9.12,0.37,18.55,1.12,28.28
			c9.38-0.35,18.42-3.13,27.1-8.35c1.97-1.36,5.26-3.53,9.87-6.51c0.79-0.53,1.82-1.78,3.09-3.75c6.23-7.28,9.34-14.93,9.34-22.95
			V436.48z"/>
		<path d="M798.19,419.45c-2.24,0.04-4.98,0.11-8.22,0.2c-0.13,0.97-0.35,2.43-0.66,4.41c0,0.57,0.03,1.45,0.1,2.63
			c0.07,1.18,0.1,2.1,0.1,2.76c0,0.22-0.24,1.07-0.72,2.56c-0.04,1.18-0.53,5.81-1.45,13.88c-0.13,1.18-0.2,2-0.2,2.43l-5.26,0.07
			c1.71,0,2.56,1.6,2.56,4.8c1.23-2.02,1.95-3.03,2.17-3.03c0.09,0.04,0.13,0.18,0.13,0.39c0,0.18-0.08,0.89-0.23,2.14
			c-0.15,1.25-0.23,2.31-0.23,3.19c0,2.02-0.2,5-0.59,8.94l0.39,2.7c-0.66,1.54-1.14,5.19-1.45,10.95
			c-0.31,5.77-0.99,9.88-2.04,12.33c-1.71,3.9-4.74,5.85-9.08,5.85c-0.35,0-0.7-0.02-1.05-0.07l-1.78-0.2l-2.1-1.25
			c-0.88-1.27-1.4-2.1-1.58-2.5l0.53,1.45c-1.32-1.49-2-3.27-2.04-5.33l0.26,1.05c0.26-9.25,0.39-13.26,0.39-12.04
			c0-0.26-0.06-0.65-0.16-1.15c-0.11-0.5-0.16-0.89-0.16-1.15c0-1.49,0.44-3.66,1.32-6.51c0.88-2.85,1.32-5,1.32-6.45
			c0-0.66-0.1-1.65-0.3-2.99c-0.2-1.34-0.3-2.33-0.3-2.99c0-0.96,0.12-2.36,0.36-4.18c0.24-1.82,0.36-3.17,0.36-4.04l-0.39-2.7
			c0.83-1.75,1.25-3.81,1.25-6.18l-0.4-2.7l2.43-15.52c-1.1,0.18-1.82,0.22-2.17,0.13c-1.8,0.18-4.93,0.42-9.4,0.72h-0.39l-0.46,0.21
			c-2.54,0.21-5.11,0.32-7.7,0.32c-0.83,0-2.05,0.14-3.65,0.43c-1.6,0.29-2.82,0.43-3.65,0.43c-5.04,0-7.56-2.72-7.56-8.16
			c0-0.35,0.02-0.68,0.07-0.99l-0.72-2.17l1.84-1.78c1.18-2.32,2.61-3.86,4.27-4.6c1.32-0.57,3.46-0.85,6.45-0.85
			c1.27,0,3.24-0.27,5.92-0.82c2.67-0.55,4.74-0.8,6.18-0.76h2.24l1.25,0.66l1.78-0.99c2.89-0.09,6.45-0.39,10.65-0.92l1.58,0.85
			l1.51-1.18c4.17-0.17,6.34-0.26,6.51-0.26c2.63-0.26,4.71-0.81,6.25-1.64l2.3,1.25c2.41-0.79,6.23-1.18,11.44-1.18
			c1.01,0,2.5-0.24,4.47-0.72c1.97-0.48,3.46-0.72,4.47-0.72c0.39,0,0.98,0.04,1.74,0.13c0.77,0.09,1.35,0.13,1.74,0.13
			c3.2,0,5.17,0.09,5.92,0.26c1.75,0.48,3.18,1.75,4.27,3.81l2.1,1.32l-1.25,1.58c0.04,0.35,0.07,0.68,0.07,0.99
			c0,1.01-0.48,2.79-1.45,5.33c0-0.04,0.04-0.37,0.13-0.99c0.13-0.7,0.2-1.12,0.2-1.25c-0.09,0.26-0.18,0.5-0.26,0.72
			c-0.26,0.92-0.66,2.56-1.18,4.93l-3.35,0.92h-0.53c-1.27,0.44-2.89,0.75-4.87,0.92c-3.33,0.31-5.09,0.46-5.26,0.46L798.19,419.45z"
			/>
		<path d="M918.4,483.31c-0.83,0.26-5.33,1.05-13.48,2.37l-31.04,5c-0.92,0.17-1.8,0.26-2.63,0.26c-0.31,0-0.79-0.03-1.45-0.1
			s-1.14-0.1-1.45-0.1c-1.1,0-2.72,0.21-4.87,0.62c-2.15,0.42-3.77,0.62-4.87,0.62c-2.19,0-4.98-1.05-8.35-3.16
			c-3.11-1.93-5.37-3.84-6.77-5.72c-1.49-2.06-3.31-6.47-5.46-13.22c0.13-1.18,0.2-2.15,0.2-2.89c0-1.01-0.11-2.41-0.33-4.21
			c-0.18-1.97-0.28-3.38-0.33-4.21c-0.31-10.87-0.09-20.17,0.66-27.89c0.09-0.66,0.59-6.14,1.51-16.44c-0.13-0.48-0.2-0.99-0.2-1.51
			c0-2.1,1.27-4.27,3.81-6.51c2.15-1.88,4.45-3.24,6.91-4.08c0.57-0.17,1.67-0.31,3.29-0.39c1.14-0.09,2.21-0.5,3.22-1.25
			c10.48-1.84,29.31-4.65,56.5-8.42c2.28,0,4.12,0.82,5.52,2.47c1.4,1.64,2.1,3.58,2.1,5.82c0,3.2-1.03,5.9-3.09,8.09
			c-2.15,2.32-4.89,3.49-8.22,3.49c-1.27,0-2.46-0.26-3.55-0.79c-6.75,0.44-16.84,1.58-30.25,3.42l-13.81,2.83l-3.09,2.17
			c-1.14,4.56-1.75,7.39-1.84,8.48c0-0.22,0,2.65,0,8.62c0,1.58-0.11,3.16-0.33,4.74c6.09-0.66,12.19-1.31,18.28-1.97
			c6.97-0.88,13.02-1.88,18.15-3.03l15.06-3.49l5.52,2.04c2.72,1.49,4.08,3.44,4.08,5.85c0,2.15-0.72,4.25-2.17,6.31
			c-1.45,2.06-3.22,3.35-5.33,3.88l0.53-0.2c-0.53,0.18-7.5,1.56-20.91,4.14c-4.6,0.92-16.16,2.5-34.66,4.74
			c0.22,6.01,1.14,10.02,2.76,12.04c0.35,0.44,3.73,0.66,10.12,0.66c1.31,0,2.94-0.17,4.87-0.5c9.51-1.27,23.81-3.28,42.88-6.04
			c0.66-0.07,1.25-0.11,1.78-0.11c5.26,0,7.9,2.61,7.9,7.83C925.57,478.36,923.18,481.6,918.4,483.31z"/>
		<path d="M981.86,399.19c1.84,0.09,3.3,0.78,4.37,2.07c1.07,1.29,1.61,2.82,1.61,4.57c2.94,4.12,5.02,7.21,6.25,9.27
			c2.1,3.6,3.57,6.97,4.41,10.13c0.09,0.48,0.31,1.38,0.66,2.7c0.66,1.93,5.02,11.09,13.09,27.49c6.75,13.68,10.13,22.67,10.13,26.97
			c0,2.54-0.89,4.73-2.66,6.54c-1.78,1.82-4,2.73-6.68,2.73c-4.6,0-7.63-2.3-9.08-6.91c-1.01-1.45-2.37-4.36-4.08-8.75
			c-8.29,0.61-15.81,0.92-22.56,0.92h-10.79c-1.49,0-3.57-0.07-6.25-0.2c-2.89-0.17-4.98-0.26-6.25-0.26
			c-1.84,3.99-4.12,8.33-6.84,13.02c-1.67,1.23-3.66,1.84-5.99,1.84c-2.59,0-4.79-0.89-6.61-2.66c-1.82-1.78-2.73-3.89-2.73-6.35
			c0-1.01,0.81-3.57,2.43-7.7c-2.24-1.58-3.35-3.92-3.35-7.04c0-2.02,0.68-3.79,2.04-5.33c0.4-0.48,1.86-1.78,4.41-3.88h4.67
			l8.35-19.2c1.36-3.11,6.75-13.64,16.18-31.57c1.88-3.55,3.16-5.72,3.81-6.51c1.8-2.15,4.08-3.22,6.84-3.22
			C978.18,397.88,979.71,398.32,981.86,399.19z M992.65,458.38c-0.13-0.83-0.61-1.97-1.45-3.42c-1.05-1.84-1.67-2.98-1.84-3.42
			c-1.89-7.23-5.37-15.61-10.46-25.12c-4.91,7.41-7.24,11.84-6.97,13.29l-4.08,3.75c-1.14,3.25-2.92,8.16-5.33,14.73h8.88
			c0.75,0.31,2.43,0.64,5.06,0.99l1.32-0.99h1.58c1.05,0,2.61,0.11,4.67,0.33c2.06,0.22,3.62,0.33,4.67,0.33
			C990.15,458.85,991.47,458.69,992.65,458.38z"/>
		<path d="M1100.31,401.49h0.07c6.27,3.29,11.14,7.17,14.6,11.64c3.59,1.8,5.39,4.36,5.39,7.69c0,2.89-1.06,5.45-3.19,7.66
			c-2.13,2.21-4.7,3.32-7.73,3.32c-5.88,0-9.23-2.1-10.06-6.31c-1.54-2.41-3.42-4.58-5.66-6.51c-2.81-2.41-5.39-3.62-7.76-3.62h-0.39
			c-0.35,0-0.64,0-0.86,0c-0.7,0-1.78-0.08-3.22-0.23c-1.45-0.15-2.52-0.23-3.22-0.23c-5.17,0-9.93,1.05-14.27,3.16
			c-1.49,0.57-4.5,3.07-9.01,7.5c-3.33,3.29-5.63,6.36-6.91,9.21c-0.22,1.58-0.79,3.97-1.71,7.17c-0.75,1.8-1.12,2.98-1.12,3.55
			c0,7.63,1.16,12.74,3.49,15.32c1.14,1.23,1.88,2.13,2.24,2.7c1.49,2.28,2.28,3.49,2.37,3.62c0.53,0.57,1.71,1.33,3.55,2.27
			c1.84,0.94,5.88,1.9,12.1,2.86c3.68,0.57,6.31,0.85,7.89,0.85c7.19,0,13.64-2.17,19.34-6.51c0.75-2.02,2.09-3.67,4.04-4.97
			c1.95-1.29,4.04-1.94,6.28-1.94c2.94,0,5.49,0.98,7.66,2.93c2.17,1.95,3.26,4.31,3.26,7.07l-0.46,3.16
			c-1.75,2.19-3.66,4.23-5.72,6.12l-1.32,2.5c-2.06,1.58-4.76,2.94-8.09,4.08c-2.94,0.92-5.88,1.82-8.81,2.7
			c-1.67,0.7-4.71,1.8-9.14,3.29c-2.06,0.22-4.1,0.33-6.12,0.33c-4.47,0-9.98-0.68-16.51-2.04c-1.89-0.53-4.14-1.12-6.77-1.78
			l-6.64-0.85c-3.11-1.62-5.77-3.95-7.96-6.97c-0.92-0.7-3.35-2.57-7.3-5.59l-1.58-5.66c-2.85-7.23-4.28-15.56-4.28-24.99
			c0-1.36,0.48-3.86,1.45-7.5c3.16-11.79,9.21-21.29,18.15-28.48c1.45-0.61,3.35-1.53,5.72-2.76c1.18-1.05,3-2.39,5.46-4.01
			c5-2.24,11.36-3.79,19.07-4.67c9.65,0,17.01,1.05,22.1,3.16C1099.26,400.42,1099.78,401.01,1100.31,401.49z"/>
		<path d="M1136.53,415.5l-6.45-1.51l6.18-2.5c0.39-2.46,1.62-4.54,3.68-6.25c2.06-1.71,4.41-2.56,7.04-2.56
			c2.37,0,4.38,0.66,6.05,1.97c1.84,1.4,2.76,3.2,2.76,5.39c0,1.8-0.37,3.44-1.12,4.93c-0.26,3.03-0.42,5.41-0.46,7.17l0.99,2.1
			l-1.25,2.3c-0.44,7.15-1.01,17.45-1.71,30.91c2.98-0.48,6.33-0.98,10.06-1.5l2.24-1.25l2.63,0.66c0.22-0.04,4.91-0.5,14.07-1.38
			l2.63-1.12l2.3,0.85c5.57-0.31,10.28-0.5,14.14-0.59c0.39-6.93,1.14-17.32,2.24-31.17c0.04-3.86,0.07-7.72,0.07-11.58
			c0.13-4.91,1.1-8.51,2.89-10.79c1.93-2.46,4.43-3.68,7.5-3.68c5.39,0,8.09,2.74,8.09,8.22h-5.26c0.35,0.44,0.53,0.92,0.53,1.45
			l2.1-1.51c0.17-0.35,0.39-0.53,0.66-0.53c0.48,0,1.05,0.53,1.71,1.58c0.04-0.13,0.09-0.26,0.13-0.39c-0.09,0.53-0.2,1.34-0.33,2.43
			c0,6.05-0.22,12.1-0.66,18.15c-0.35,3.07-0.86,9.19-1.51,18.35c0,2.72-0.15,8.13-0.46,16.25c0,0.09-0.79,7.52-2.37,22.3l-4.41,8.22
			c-2.24,1.27-4.12,1.91-5.66,1.91c-3.03,0-5.55-2.52-7.56-7.56l1.32-14.27h-2.96c-15.83,0-25.98,0.94-30.45,2.83
			c-0.83-0.13-1.47-0.22-1.91-0.26c-3.03,0.44-7.28,1.07-12.76,1.91l-0.13,2.83c-0.09,1.84-0.13,3.4-0.13,4.67
			c0,3.07-0.83,5.64-2.5,7.7c-1.84,2.32-4.34,3.49-7.5,3.49c-3.77,0-6.18-1.64-7.24-4.93c-0.35-1.18-0.61-4.23-0.79-9.14l0.53-3.81
			c-2.41-1.36-3.62-3.44-3.62-6.25c0-3.99,1.56-6.97,4.67-8.94c0.66-14.16,1.49-28.78,2.5-43.87
			C1136.84,416.34,1136.67,415.94,1136.53,415.5z"/>
		<path d="M1255.51,414.12c0,6.88,0.17,13.4,0.53,19.53c0.22,3.9,0.33,6.51,0.33,7.83c0,1.54-0.13,3.81-0.39,6.84
			s-0.39,5.31-0.39,6.84c0,0.09,0.04,0.68,0.13,1.78c0.35,5.52,0.46,12.36,0.33,20.52c0.83,1.62,1.25,3.16,1.25,4.6
			c0,2.67-1.11,4.94-3.32,6.81c-2.21,1.86-4.75,2.8-7.6,2.8c-2.72,0-5.08-1.02-7.07-3.06c-2-2.04-2.99-4.37-2.99-7
			c0-1.32,0.26-2.65,0.79-4.01c-0.44-9.78-0.44-18.98,0-27.62c0.35-6.75,0.53-11.82,0.53-15.19c0-1.71-0.16-4.24-0.49-7.6
			c-0.33-3.35-0.49-5.86-0.49-7.53v-6.05c-1.71-1.8-2.57-3.79-2.57-5.98c0-3.2,1.29-5.79,3.88-7.76c2.37-1.84,5.28-2.76,8.75-2.76
			c3.2,0,5.97,1.02,8.32,3.06c2.35,2.04,3.52,4.55,3.52,7.53C1258.54,410.04,1257.53,412.19,1255.51,414.12z"/>
		<path d="M1346.27,431.95l-0.13-0.07l0.86,0.92l0.85,0.92c-0.57,0.53-1.16,0.79-1.78,0.79c-1.67,0-2.54-1.01-2.63-3.03
			c0.04-1.14,0.07-4.25,0.07-9.34c0-0.75,0.04-1.85,0.13-3.32c0.09-1.47,0.13-2.55,0.13-3.26c-0.92-5.88-1.38-10.63-1.38-14.27
			c0-3.16,1.05-5.66,3.16-7.5c1.84-1.62,4.05-2.43,6.64-2.43c3.42,0,5.79,1.27,7.1,3.81c0.53,1.01,1.23,5.06,2.1,12.16
			c0,0.26,0,0.67,0,1.22s0,0.95,0,1.22c0,2.37,0.15,5.93,0.46,10.68s0.46,8.34,0.46,10.75c0,2.32-0.22,5.82-0.66,10.48
			c-0.44,4.67-0.66,8.16-0.66,10.48c0,0.35,0.02,0.85,0.07,1.51c0.04,0.66,0.07,1.16,0.07,1.51c-0.22,0.75-0.37,1.64-0.46,2.7
			c-0.57,5.43-1.45,12.53-2.63,21.29c-0.35,2.5-1.58,4.54-3.68,6.11c-1.93,1.45-4.1,2.17-6.5,2.17c-2.94,0-5.06-1.05-6.38-3.15
			c-0.22-0.31-0.46-0.66-0.72-1.05c-0.88-0.83-4.4-4.55-10.58-11.17l-2.89-1.71c-0.53-1.66-2.04-3.7-4.53-6.11
			c-0.57-0.39-1.4-1.07-2.5-2.04c-0.35-0.61-0.81-1.27-1.38-1.97c-0.44-0.31-1.07-0.79-1.91-1.44c-3.77-5.12-7.47-9-11.11-11.63
			c-1.88-1.36-3.24-2.61-4.07-3.74l-2.56-1.25l-1.58-2.43c-1.23-0.79-2.63-2.06-4.21-3.81c-0.26-0.31-2.06-1.77-5.39-4.4
			c0,1.18,0,2.1,0,2.76c0,0.97-0.1,2.46-0.3,4.47c-0.2,2.02-0.3,3.53-0.3,4.54c0,1.18,0.1,2.96,0.3,5.33s0.3,4.14,0.3,5.33
			c0,1.32-0.07,3.31-0.2,5.98c-0.13,2.68-0.2,4.67-0.2,5.99c0,4.08,0.53,10.19,1.58,18.35c0.13,1.18,0.24,2.02,0.33,2.5
			c-0.04-0.04-0.09-0.17-0.13-0.39c-0.48,2.28-1.21,3.42-2.17,3.42c-0.75,0-1.58-0.79-2.5-2.37l-0.2-0.33c0,0.13-0.02,0.24-0.07,0.33
			h5.26c0,2.85-1.12,5.17-3.35,6.97c-2.02,1.67-4.36,2.5-7.04,2.5c-5,0-7.67-2.39-8.02-7.17l-0.39-5.26l-0.72-2.5l0.39-2.76
			c0-2.32-0.26-5.8-0.79-10.42c-0.53-4.63-0.79-8.12-0.79-10.49c0-1.1,0.07-2.77,0.2-5.03c0.13-2.26,0.2-3.96,0.2-5.1
			c0-0.7-0.22-1.95-0.66-3.75c0.35-1.49,0.53-3.88,0.53-7.17c0-5.7,0.04-8.92,0.13-9.67l0.33-2.3c0.04-0.17,0.13-0.31,0.26-0.39
			c-0.31-0.22-0.46-1.05-0.46-2.5c0-0.92,0.13-2.28,0.39-4.08c0.26-1.8,0.39-3.13,0.39-4.01c0-0.26-0.04-0.64-0.13-1.12
			c-0.09-0.48-0.13-0.85-0.13-1.12c0-2.89,1.01-5.2,3.03-6.91c1.89-1.53,4.19-2.3,6.92-2.3c2.77,0,5.23,0.79,7.38,2.37
			c3.08,2.24,6.5,5,10.28,8.29l2.96,1.05c1.71,2.5,2.61,3.79,2.7,3.88c1.41,1.05,2.81,2.1,4.22,3.16c2.42,2.32,6.02,5.81,10.81,10.46
			c1.1,1.01,3.03,2.83,5.8,5.46c0.53,0.26,1.47,0.77,2.83,1.51c1.05,1.97,3.93,5.44,8.63,10.39l3.03,1.51
			c0.39,1.71,1.56,3.73,3.49,6.05c0.88-8.64,1.32-15.43,1.32-20.39l-0.59-2.5l0.66-2.83l1.31,0.33
			C1344.93,431.62,1345.39,431.73,1346.27,431.95z"/>
		<path d="M1392.5,453.98l1.91,1.12l-1.91,2.17c0.13,1.93,0.37,3.73,0.72,5.39c2.24-0.39,3.77-0.72,4.61-0.99
			c1.45-0.44,2.92-1.12,4.41-2.04l4.15,0.79l1.25-0.79c3.47-0.48,6.36-1.21,8.69-2.17l1.91,0.39l1.91-0.33l1.65,0.33l1.12-0.72
			l23.3-2.89l1.78-1.32l3.49,0.72c0.75-0.09,1.49-0.13,2.24-0.13c4.12,0,7.46,1.89,10.01,5.66c0,3.73-0.61,7.28-1.84,10.65
			c-1.49,4.08-3.6,6.99-6.31,8.75c-16.22,10.52-31.44,15.78-45.64,15.78c-9.03,0-14.23-0.75-15.59-2.24
			c-0.53-0.53-1.21-1.14-2.04-1.84l-2.63-0.79c-0.48-0.13-2.39-1.03-5.72-2.7c-2.59-1.32-5.33-6.14-8.22-14.47
			c-1.4-4.03-2.1-9.93-2.1-17.69l3.16,0.72c-0.75-0.39-1.07-1.01-0.99-1.84c-0.39,0.57-1.09,0.85-2.1,0.85l0.07-0.79
			c0.44-4.69,1.4-8.72,2.89-12.1c1.88-3.68,3.77-7.37,5.66-11.05c2.15-4.25,4.69-7.54,7.63-9.87c0.35-0.17,0.75-0.42,1.18-0.72
			c0.44-0.57,0.92-1.23,1.45-1.97c3.38-3.77,8.81-7.5,16.31-11.18c7.72-3.81,13.96-5.72,18.74-5.72c4.12,0,7.8,0.46,11.05,1.38
			c2.59,0.31,4.12,0.72,4.6,1.25c5.17,2.15,9.45,4.91,12.83,8.29c3.73,1.36,5.59,3.64,5.59,6.84c0,3.2-1.27,5.84-3.81,7.92
			c-2.54,2.08-5.52,3.12-8.94,3.12c-2.1,0-4.23-0.92-6.38-2.76c-0.13-0.09-1.8-1.8-5-5.13l-1.05,0.39l-1.38-2.04
			c-3.03-1.49-5.35-2.24-6.97-2.24c-3.99,0-11.09,3.2-21.31,9.6c-1.05,0.7-2.5,2.28-4.34,4.74c-0.66,0.39-1.64,1.49-2.96,3.29
			l0.99,2.5l-3.42,1.71l-0.66,1.91C1394.29,443.54,1392.98,447.62,1392.5,453.98z M1425.58,475.16c1.27-0.26,2.06-0.39,2.37-0.39
			c0.44,0,0.96,0.09,1.58,0.26c0.83-0.53,3.95-1.4,9.34-2.63c0.13-0.17,0.33-0.5,0.59-0.99l7.17-5.2c0,0.7-0.24,1.23-0.72,1.58
			c0.79,0,1.18,0.72,1.18,2.17c-1.27,0-3.17,0.18-5.69,0.53c-2.52,0.35-4.4,0.53-5.62,0.53c-0.75,0-1.27,0.04-1.58,0.13l-2.57-0.33
			l-2.63,1.45l-2.63-0.26c-1.1,0.31-3.79,1.01-8.09,2.1c-1.1,0.61-2.5,1.05-4.21,1.32l-1.18-0.39l-1.51,1.45l-2.04-0.72l-0.66,0.66
			l1.71,1.18l-3.62,0.39l1.64-1.84c1.71-0.26,4.1-0.15,7.17,0.33C1419.92,476.12,1423.25,475.68,1425.58,475.16z"/>
		<path d="M1465.17,505.41l-0.99-1.05c0-2.98,1.05-7.17,3.16-12.56c1.88-4.87,2.83-9.51,2.83-13.94l0.99,0.2
			c2.5-5.92,6.91-8.88,13.22-8.88c1.88,0,5,1.05,9.34,3.16c3.16,1.49,4.74,4.52,4.74,9.08c0,4.38-1.32,7.5-3.95,9.34
			c-2.1,3.64-4.71,7.06-7.83,10.26c-0.22,0.22-3.35,3.11-9.41,8.68c-0.96,0-2.36,0.2-4.18,0.59c-1.82,0.39-3.21,0.59-4.18,0.59
			c-2.59,0-4.05-1.01-4.41-3.03l5.13-0.79c-0.04-0.09-0.09-0.26-0.13-0.53c-1.32,1.27-2.13,1.6-2.43,0.99
			c-0.57-0.53-0.88-0.81-0.92-0.85l-0.92-0.79c-0.09,0.48-0.33,0.92-0.72,1.32c0-0.44,0-1.05,0-1.84
			C1464.65,505.34,1464.87,505.37,1465.17,505.41z"/>
		<path d="M433.5,592.53l0.07,0.07v-0.07c0.13-0.79,0.99-0.66,2.56,0.39c0,0.39,0,1.23,0,2.5c0,0.75,0.04,1.86,0.13,3.35
			c0.09,1.49,0.13,2.61,0.13,3.35c0,0.75-0.25,1.97-0.76,3.68c-0.5,1.71-0.76,3.11-0.76,4.21c0,1.36-0.57,3.66-1.71,6.91
			c-1.23,3.55-1.93,5.96-2.1,7.23c-1.23,1.97-2.92,4.65-5.06,8.02c-1.18,1.45-2.87,3.79-5.06,7.04c-5.13,3.46-9.23,5.88-12.3,7.23
			c-4.56,2.02-9.3,3.03-14.21,3.03c-1.27,0-5.26-0.2-11.97-0.59c-3.42-0.17-9.1-1.78-17.03-4.8c-1.75-1.32-4.32-3.29-7.69-5.92
			l-0.4-1.32l-4.54-2.89c-0.44-1.84-1.51-3.59-3.22-5.26c-3.77-8.64-5.66-15.17-5.66-19.6c0-1.23-0.14-3.06-0.43-5.49
			c-0.28-2.43-0.43-4.26-0.43-5.49c0-1.97,1.23-6.91,3.68-14.8c0.26-0.83,0.77-2.54,1.51-5.13c1.31-1.8,3.18-4.21,5.59-7.23
			c0.7-0.66,1.6-1.56,2.7-2.7c0.31-0.48,0.85-1.45,1.64-2.89l2.43-0.59c7.54-5.52,17.1-9.1,28.68-10.72c7.15,0,12.83,0.59,17.03,1.78
			c2.59,0.75,7.61,2.85,15.06,6.31c0.39,0.7,0.7,1.25,0.92,1.64c7.41,6.71,11.25,12.47,11.51,17.3c0.04,1.18,0.61,4.08,1.71,8.68
			l0.59,2.37L433.5,592.53z M407.52,625.15l0.59-1.51c0.66-0.57,1.12-1.4,1.38-2.5c1.75-1.32,3.62-4.69,5.59-10.13
			c1.88-5.09,2.83-8.88,2.83-11.38c0-12.15-3.97-20.37-11.9-24.66l-1.71-0.2l-1.64-1.25c-4.91-1.45-9.32-2.17-13.22-2.17
			c-0.44,0-4.58,1.64-12.43,4.93c-2.06,0.88-4.34,2.5-6.84,4.87c-2.67,2.5-4.25,4.67-4.74,6.51c-1.27,1.23-2.46,3.55-3.55,6.97
			c-1.1,3.42-1.64,5.59-1.64,6.51c0,4.38,0.77,8.11,2.3,11.18c0.83,1.71,1.38,3.13,1.64,4.27c1.27,1.32,2.1,2.57,2.5,3.75
			c0.57,0.39,1.64,0.88,3.22,1.45l0.46,1.97c5.66,4.87,12.14,7.3,19.47,7.3c3.64,0,7.12-0.66,10.46-1.97l0.59-0.72
			c1.58-0.26,3.13-1.03,4.67-2.3h0.53C406.55,625.72,407.04,625.41,407.52,625.15z"/>
		<path d="M522.81,593.58l-0.13-0.07l0.85,0.92l0.85,0.92c-0.57,0.53-1.16,0.79-1.78,0.79c-1.67,0-2.54-1.01-2.63-3.03
			c0.04-1.14,0.07-4.25,0.07-9.34c0-0.75,0.04-1.85,0.13-3.32c0.09-1.47,0.13-2.55,0.13-3.26c-0.92-5.88-1.38-10.63-1.38-14.27
			c0-3.16,1.05-5.66,3.16-7.5c1.84-1.62,4.06-2.43,6.64-2.43c3.42,0,5.79,1.27,7.1,3.81c0.53,1.01,1.23,5.06,2.1,12.16
			c0,0.26,0,0.67,0,1.22s0,0.95,0,1.22c0,2.37,0.15,5.93,0.46,10.68c0.31,4.75,0.46,8.34,0.46,10.74c0,2.32-0.22,5.82-0.66,10.48
			c-0.44,4.67-0.66,8.16-0.66,10.48c0,0.35,0.02,0.85,0.07,1.51c0.04,0.66,0.07,1.16,0.07,1.51c-0.22,0.75-0.37,1.64-0.46,2.7
			c-0.57,5.43-1.45,12.53-2.63,21.29c-0.35,2.5-1.58,4.53-3.68,6.11c-1.93,1.45-4.1,2.17-6.5,2.17c-2.94,0-5.06-1.05-6.37-3.15
			c-0.22-0.31-0.46-0.66-0.72-1.05c-0.88-0.83-4.4-4.55-10.58-11.17l-2.89-1.71c-0.53-1.67-2.04-3.7-4.53-6.11
			c-0.57-0.39-1.4-1.07-2.5-2.04c-0.35-0.61-0.81-1.27-1.38-1.97c-0.44-0.31-1.07-0.79-1.91-1.45c-3.77-5.12-7.47-9-11.11-11.63
			c-1.88-1.36-3.24-2.61-4.07-3.74l-2.56-1.25l-1.58-2.43c-1.23-0.79-2.63-2.06-4.21-3.81c-0.26-0.31-2.06-1.77-5.39-4.4
			c0,1.18,0,2.1,0,2.76c0,0.96-0.1,2.46-0.3,4.47s-0.3,3.53-0.3,4.54c0,1.18,0.1,2.96,0.3,5.33c0.2,2.37,0.3,4.14,0.3,5.33
			c0,1.32-0.07,3.31-0.2,5.99c-0.13,2.67-0.2,4.67-0.2,5.98c0,4.08,0.53,10.19,1.58,18.35c0.13,1.18,0.24,2.02,0.33,2.5
			c-0.04-0.04-0.09-0.17-0.13-0.4c-0.48,2.28-1.21,3.42-2.17,3.42c-0.75,0-1.58-0.79-2.5-2.37l-0.2-0.33c0,0.13-0.02,0.24-0.07,0.33
			h5.26c0,2.85-1.12,5.17-3.35,6.97c-2.02,1.67-4.36,2.5-7.04,2.5c-5,0-7.67-2.39-8.02-7.17l-0.39-5.26l-0.72-2.5l0.4-2.76
			c0-2.32-0.26-5.8-0.79-10.42c-0.53-4.62-0.79-8.12-0.79-10.49c0-1.1,0.07-2.77,0.2-5.03c0.13-2.26,0.2-3.96,0.2-5.1
			c0-0.7-0.22-1.95-0.66-3.75c0.35-1.49,0.53-3.88,0.53-7.17c0-5.7,0.04-8.92,0.13-9.67l0.33-2.3c0.04-0.17,0.13-0.31,0.26-0.4
			c-0.31-0.22-0.46-1.05-0.46-2.5c0-0.92,0.13-2.28,0.39-4.08c0.26-1.8,0.39-3.13,0.39-4.01c0-0.26-0.04-0.64-0.13-1.12
			c-0.09-0.48-0.13-0.86-0.13-1.12c0-2.89,1.01-5.2,3.03-6.91c1.89-1.53,4.19-2.3,6.92-2.3c2.77,0,5.23,0.79,7.38,2.37
			c3.07,2.24,6.5,5,10.28,8.29l2.96,1.05c1.71,2.5,2.61,3.79,2.7,3.88c1.41,1.05,2.81,2.11,4.22,3.16
			c2.42,2.32,6.02,5.81,10.81,10.46c1.1,1.01,3.03,2.83,5.8,5.46c0.53,0.26,1.47,0.77,2.83,1.51c1.05,1.97,3.93,5.44,8.63,10.39
			l3.03,1.51c0.39,1.71,1.56,3.73,3.49,6.05c0.88-8.64,1.32-15.43,1.32-20.39l-0.59-2.5l0.66-2.83l1.31,0.33
			C521.47,593.25,521.93,593.36,522.81,593.58z"/>
		<path d="M630.86,644.95c-0.83,0.26-5.33,1.05-13.48,2.37l-31.04,5c-0.92,0.17-1.8,0.26-2.63,0.26c-0.31,0-0.79-0.03-1.45-0.1
			c-0.66-0.07-1.14-0.1-1.45-0.1c-1.1,0-2.72,0.21-4.87,0.62c-2.15,0.42-3.77,0.62-4.87,0.62c-2.19,0-4.98-1.05-8.35-3.16
			c-3.11-1.93-5.37-3.84-6.77-5.72c-1.49-2.06-3.31-6.47-5.46-13.22c0.13-1.18,0.2-2.15,0.2-2.89c0-1.01-0.11-2.41-0.33-4.21
			c-0.18-1.97-0.28-3.38-0.33-4.21c-0.31-10.87-0.09-20.17,0.66-27.89c0.09-0.66,0.59-6.14,1.51-16.44c-0.13-0.48-0.2-0.99-0.2-1.51
			c0-2.1,1.27-4.27,3.81-6.51c2.15-1.88,4.45-3.24,6.91-4.08c0.57-0.17,1.67-0.31,3.29-0.39c1.14-0.09,2.21-0.5,3.22-1.25
			c10.48-1.84,29.31-4.65,56.5-8.42c2.28,0,4.12,0.82,5.52,2.47c1.4,1.64,2.1,3.58,2.1,5.82c0,3.2-1.03,5.9-3.09,8.09
			c-2.15,2.32-4.89,3.49-8.22,3.49c-1.27,0-2.46-0.26-3.55-0.79c-6.75,0.44-16.84,1.58-30.25,3.42l-13.81,2.83l-3.09,2.17
			c-1.14,4.56-1.75,7.39-1.84,8.48c0-0.22,0,2.65,0,8.62c0,1.58-0.11,3.16-0.33,4.74c6.09-0.66,12.19-1.32,18.28-1.97
			c6.97-0.88,13.02-1.88,18.15-3.03l15.06-3.49l5.52,2.04c2.72,1.49,4.08,3.44,4.08,5.85c0,2.15-0.72,4.25-2.17,6.31
			c-1.45,2.06-3.22,3.35-5.33,3.88l0.53-0.2c-0.53,0.18-7.5,1.56-20.91,4.14c-4.6,0.92-16.16,2.5-34.66,4.74
			c0.22,6.01,1.14,10.02,2.76,12.04c0.35,0.44,3.73,0.66,10.12,0.66c1.31,0,2.94-0.17,4.87-0.5c9.51-1.27,23.81-3.28,42.88-6.04
			c0.66-0.07,1.25-0.11,1.78-0.11c5.26,0,7.9,2.61,7.9,7.83C638.03,639.99,635.64,643.24,630.86,644.95z"/>
		<path d="M714.06,585.42l0.26,0.33c0.13,0.48,1.53,3.03,4.21,7.63c0.79,1.84,1.78,4.01,2.96,6.51c1.1,1.75,3.68,5.94,7.76,12.56
			c1.62-2.15,4.91-7.52,9.87-16.11c1.62-3.95,4.69-9.89,9.21-17.82c0.53-0.7,1.56-2.1,3.09-4.21c0.79-1.49,2.06-3.66,3.81-6.51
			c0.66-0.75,1.47-1.8,2.43-3.16c0.35-0.66,1.03-1.53,2.04-2.63c2.24-1.53,4.54-2.37,6.91-2.5c0.79-0.31,1.64-0.46,2.56-0.46
			c0.31,0,0.66,0.04,1.05,0.13c0.66,0.09,1.53,0.35,2.63,0.79c2.1,2.37,3.16,4.14,3.16,5.33c0,0.26-0.02,0.55-0.07,0.86
			c0.22,0.92,0.68,2.7,1.38,5.33c1.01,6.05,2.26,15.19,3.75,27.43c0.22,3.03,0.5,5.9,0.85,8.62c0.17,0.79,0.31,1.36,0.39,1.71
			c-1.67,0.79-2.85,0.39-3.55-1.18c0,1.01-0.48,1.73-1.45,2.17h5.26c0,0.57-0.06,1.41-0.16,2.53c-0.11,1.12-0.16,1.96-0.16,2.53
			c0,1.23,0.09,2.83,0.26,4.8c0.17,2.54,0.28,4.17,0.33,4.87c0.35,7.76,0.5,13.35,0.46,16.77v3.81l-0.2,0.33
			c-0.14,0.61-0.43,1.54-0.89,2.76l-0.41,0.39l-0.34,0.46l0.33-0.66c-1.36,1.75-2.59,2.78-3.68,3.09l1.05-0.59
			c-0.44,0.22-1.64,0.66-3.6,1.32l-0.26,0.07h-0.39c-3.01,0-5.39-1.1-7.13-3.29c-0.22-0.39-0.59-0.99-1.11-1.78l-0.26-0.85
			l-0.52-0.59c0-1.14-0.12-2.63-0.36-4.47c-0.29-2.24-0.45-3.7-0.5-4.41l2.24-0.2c-1.27-0.26-2.02-0.31-2.24-0.13V636
			c0-0.57,0-2.21,0-4.93c0-1.88-0.24-4.76-0.72-8.62c1.58-0.92,2.43-1.14,2.57-0.66l0.66,0.07c1.23,0.18,1.88,0.18,1.97,0h-5.26
			c0-0.22,0.02-0.58,0.07-1.08c0.04-0.5,0.07-0.89,0.07-1.15c0-0.48-0.1-1.23-0.3-2.24c-0.2-1.01-0.3-1.75-0.3-2.24
			c0.04-0.39,0.13-1.03,0.26-1.91c-0.26-1.01-1.03-7.65-2.3-19.93c-6.23,11.58-11.64,21.05-16.24,28.41
			c-1.75,2.28-3.53,4.54-5.33,6.77c-2.46,2.94-4.58,4.6-6.38,5l1.51-0.07c-0.09,0.04-0.38,0.18-0.89,0.39
			c-0.5,0.22-1.22,0.5-2.14,0.86l0.2-0.2c0.48-0.61,1.67-0.92,3.55-0.92c-1.23,0.35-2.13,0.59-2.7,0.72l-0.85,0.2
			c-1.45,0.31-2.63,0.46-3.55,0.46c-0.61,0-1.45-0.15-2.5-0.46c-1.18-0.31-2.02-0.5-2.5-0.59c-1.75-1.4-3-2.26-3.75-2.57l-0.66-0.85
			c-2.67-2.28-5.58-5.82-8.71-10.62c-3.14-4.8-5.16-8.93-6.08-12.4c-1.67-2.1-3.88-5.92-6.64-11.44l-2.5-5
			c-0.57,3.6-0.85,6.4-0.85,8.42c0,0.53,0.05,1.36,0.16,2.5c0.05,0.35,0.13,3.95,0.24,10.79v6.51c0,1.18-0.11,2.95-0.33,5.29
			c-0.22,2.35-0.33,4.11-0.33,5.29c0,1.67,0.11,4.17,0.33,7.5c0.22,3.33,0.33,5.83,0.33,7.5c0,0.83-0.77,2.63-2.3,5.39l-0.79,0.46
			l0.72-0.66c-2.38,1.8-4.6,2.7-6.67,2.7c-2.99,0-5.29-1.01-6.87-3.03c-0.09-0.13-0.33-0.46-0.73-0.99l-0.33-0.33l-0.73-2.17
			l0.2,0.33c-0.13-0.61-0.2-1.69-0.2-3.22h5.26c0,0.92,1.42-5.08,4.27-18.02c-2.15,5.92-3.31,9.12-3.49,9.6l-3.38,9.6
			c-0.87,0.53-1.54,0.79-2.02,0.79c-0.35,0-0.54-0.17-0.59-0.53l-0.06-0.26v-0.72c-0.39-7.15-0.59-14.14-0.59-20.98
			c0-7.8,0.15-13.24,0.46-16.31c0.09-0.79,0.13-1.38,0.13-1.78c0-0.26-0.04-0.68-0.13-1.25c-0.09-0.57-0.13-0.99-0.13-1.25l0.66-4.08
			v-2.57c0-3.29,0.79-11.2,2.37-23.74c-0.66-1.45-0.99-2.63-0.99-3.55c0-2.41,1.16-4.67,3.49-6.77c0.39-0.17,1.32-0.68,2.76-1.51
			h0.26h0.26h0.13l0.26-0.26h0.72c0.53,0,0.88,0,1.05,0h-0.53c0.57-0.13,1.05-0.2,1.45-0.2l-1.18,0.26
			c3.68-0.31,7.26,1.08,10.72,4.14c2.06,2.15,4.25,4.74,6.58,7.76c0.7,1.18,1.88,2.94,3.55,5.26c1.84,2.1,2.94,3.4,3.29,3.88
			C712.81,581.96,713.49,583.5,714.06,585.42z"/>
		<path d="M885.32,603.38c-0.39,0.97-0.59,2.39-0.59,4.28c0,0.66-0.04,1.68-0.13,3.06c-0.09,1.38-0.13,2.4-0.13,3.06
			c0,0.57,0.09,1.38,0.26,2.43c0.17,1.05,0.26,1.84,0.26,2.37c0,7.15-3.14,14.07-9.41,20.78c-1.18,0.92-3.18,3.09-5.98,6.51h-2.1
			c-4.25,2.5-9.49,4.67-15.72,6.51l-0.72-0.85l-0.92,1.12c-3.73,0.57-6.93,0.85-9.6,0.85c-0.48,0-1.2-0.03-2.14-0.1
			c-0.94-0.07-1.63-0.1-2.07-0.1l-2.96,0.39c-1.32-0.61-3.2-1.23-5.66-1.84c-2.81-0.7-4.74-1.25-5.79-1.64h-2.43
			c-0.57-0.57-3.14-2.3-7.69-5.2l-0.59-1.45l-1.18-0.2c-0.7-0.39-2.85-2.3-6.45-5.72c-0.22-0.44-0.48-0.88-0.79-1.32
			c-4.25-4.38-6.6-10.3-7.04-17.76c0.09-1.32-0.13-3.4-0.66-6.25c0.26-0.61,0.44-1.07,0.53-1.38c-0.05-1.53-0.23-6.18-0.53-13.94
			l0.33-0.79c-0.53-1.23-0.75-3-0.66-5.33l-0.39-6.12c-0.09-1.36-0.28-4.93-0.59-10.72c-0.88-1.36-1.38-2.87-1.51-4.54
			c0.18-2.28,0.42-3.81,0.72-4.6c0.13-1.1,0.66-1.91,1.58-2.43c1.8-2.85,4.3-4.27,7.5-4.27h1.45l0.92,0.72l0.26,0.07
			c0-0.17,0.09-0.37,0.26-0.59c0.22,0.09,1.05,0.26,2.5,0.53c-0.22,0.75-0.33,1.29-0.33,1.64c0,0.44,0.15,0.66,0.46,0.66
			c0.13,0,0.44-0.11,0.92-0.33c0.13,0.04,0.26,0.09,0.39,0.13c2.46,1.97,3.68,4.41,3.68,7.3c0,0.88-0.11,1.78-0.33,2.7l-0.39-1.91
			c0.26,1.75,0.09,3.22-0.53,4.41c0.04,0.39,0.13,1.29,0.26,2.7c0.09,1.14,0.13,2.04,0.13,2.7l-0.26,0.86l0.53,1.05
			c0.09,2.89,0.15,4.63,0.2,5.2c0.22,2.19,0.66,3.86,1.32,5l-0.59,2.1c-0.04,1.97,0.22,5.63,0.79,10.98c0,0.13,0.05,0.41,0.16,0.82
			c0.11,0.42,0.16,0.74,0.16,0.95c0,0.31-0.07,0.7-0.2,1.18c0,0.61,0.03,1.57,0.1,2.86c0.07,1.29,0.1,2.25,0.1,2.86v3.62
			c0.35,2.5,2.19,5.75,5.52,9.73c2.28,2.76,5.45,5.05,9.5,6.87c4.06,1.82,7.95,2.73,11.67,2.73c1.32,0,3.32-0.27,6.02-0.82
			c2.7-0.55,4.75-0.8,6.15-0.76c5.44-3.33,9.09-6.76,10.95-10.29c1.86-3.53,2.8-8.71,2.8-15.55c0-2.11-0.35-3.84-1.05-5.2l0.85-3.42
			c0-1.67-0.11-2.81-0.33-3.42c-0.35-1.01-0.53-1.73-0.53-2.17c0-0.7,0.08-1.69,0.23-2.96c0.15-1.27,0.25-2.19,0.3-2.76l-0.72-2.7
			c-0.26-1.05-0.46-4.08-0.59-9.08c-0.09-4.65-0.29-7.21-0.59-7.7c0-3.42,1.49-5.88,4.47-7.37l0.85-0.07l0.2-0.26
			c1.75-0.61,3.18-0.92,4.28-0.92c3.64,0,6.09,2.04,7.37,6.12l0.53,0.59c0.04,0.48,0.85,11.31,2.43,32.49
			c-0.04,0.48-0.02,1.05,0.07,1.71L885.32,603.38z"/>
		<path d="M916.1,645.01l4.27,7.1l-4.87-2.3c-1.1,4.74-3.84,7.3-8.22,7.7c-4.25,0.35-7.5-1.89-9.73-6.71c0-4.6-0.2-8.33-0.59-11.18
			c-0.18-1.45-0.2-5.59-0.07-12.43l-4.41-3.62c-0.88-1.67-1.32-3.24-1.32-4.74c0-1.23,0.42-2.87,1.25-4.93l4.47-1.78
			c-1.88-11.27-2.83-19.36-2.83-24.27c0-0.96-0.07-2.41-0.2-4.34c-0.13-1.93-0.2-3.38-0.2-4.34c0-3.64,2.52-6.86,7.56-9.67
			c7.54-4.17,15.1-6.97,22.69-8.42c5.13-1.01,13.04-1.69,23.74-2.04c0.61,0,3.4,0.37,8.35,1.12c0.61,0.09,1.58,0.35,2.89,0.79
			c1.1,0.39,2.02,0.59,2.76,0.59c0.39,0,0.79,0,1.18,0c4.56,1.67,8.13,3.22,10.72,4.67c0.57,0.57,1.32,1.2,2.24,1.91
			c1.75,1.14,3.4,2.83,4.93,5.06c0.7,1.49,1.97,3.72,3.81,6.7v11.63c0,0.7-0.32,1.72-0.95,3.06s-0.98,2.31-1.02,2.92
			c-0.09,1.32-0.29,2.92-0.59,4.8c-1.27,4.03-3.35,7.58-6.25,10.65c-1.27,0.96-2.96,2.34-5.06,4.14l-6.45,7.03
			c-2.63,1.05-5.66,2.26-9.08,3.62c1.27,0.44,2.72,0.94,4.34,1.51c1.67,1.23,2.76,1.97,3.29,2.23c0.79,0.35,2.13,0.64,4.01,0.85
			c4.43,0.96,7.3,1.77,8.62,2.43c2.85,1.49,4.27,3.83,4.27,7.03c0,2.67-0.84,4.91-2.53,6.7c-1.69,1.8-3.78,2.69-6.28,2.69
			c-1.4,0-2.83-0.33-4.28-0.99c-2.89-0.88-7.23-2.21-13.02-4.01c-1.71-0.35-4.25-0.96-7.63-1.84c-1.67-1.1-4.08-2.3-7.23-3.62
			c-1.58-0.44-4.17-0.94-7.76-1.51l-1.25-0.99c-2.5-1.1-6.49-2.48-11.97-4.14l-2.83-0.46c0.35,4.43,0.81,7.21,1.38,8.35
			c-0.26,0.75-0.39,1.18-0.39,1.32C915.9,643,915.97,643.56,916.1,645.01z M923.53,616.47h0.07c2.24,0.18,3.97,0.26,5.2,0.26
			c6.23,0,10.85-0.94,13.88-2.83c2.46-1.53,4.74-2.34,6.84-2.43c0.39-0.04,0.92-0.24,1.58-0.59l1.64-2.3
			c2.76-1.18,4.78-2.34,6.05-3.49l1.05-2.3l1.91-1.05c0.57-1.14,1.49-2.7,2.76-4.67c0.83-3.2,1.25-5.74,1.25-7.63
			c0-2.32-0.86-4.47-2.57-6.45c-1.62-1.84-3.64-3.13-6.05-3.88c-4.78-1.53-7.54-2.32-8.29-2.37l-2.37,0.53l-2.17-0.92
			c-10-0.48-15.52-0.31-16.57,0.53l-3.09,2.43l-1.45-0.79l-3.29,1.12l-9.6,5.33c0.04,1.67,0.26,3.88,0.66,6.64l-0.2,1.25
			c0,1.32,0.22,2.56,0.66,3.75l-0.26,1.45l0.92,1.97l-0.59,1.51c0.35,4.21,0.75,8.31,1.18,12.3
			C915.57,615.11,919.19,615.99,923.53,616.47z"/>
		<path d="M1044.41,560.83c1.84,0.09,3.3,0.78,4.37,2.07c1.07,1.29,1.61,2.82,1.61,4.57c2.94,4.12,5.02,7.21,6.25,9.27
			c2.1,3.6,3.57,6.97,4.41,10.13c0.09,0.48,0.31,1.38,0.66,2.7c0.66,1.93,5.02,11.09,13.09,27.49c6.75,13.68,10.13,22.67,10.13,26.96
			c0,2.54-0.89,4.73-2.66,6.54c-1.78,1.82-4,2.73-6.68,2.73c-4.6,0-7.63-2.3-9.08-6.91c-1.01-1.45-2.37-4.36-4.08-8.75
			c-8.29,0.61-15.81,0.92-22.56,0.92h-10.79c-1.49,0-3.57-0.07-6.25-0.2c-2.89-0.17-4.98-0.26-6.25-0.26
			c-1.84,3.99-4.12,8.33-6.84,13.02c-1.67,1.23-3.66,1.84-5.99,1.84c-2.59,0-4.79-0.89-6.61-2.66c-1.82-1.78-2.73-3.89-2.73-6.35
			c0-1.01,0.81-3.57,2.43-7.7c-2.24-1.58-3.35-3.92-3.35-7.04c0-2.02,0.68-3.79,2.04-5.33c0.4-0.48,1.86-1.78,4.41-3.88h4.67
			l8.35-19.2c1.36-3.11,6.75-13.64,16.18-31.57c1.88-3.55,3.16-5.72,3.81-6.51c1.8-2.15,4.08-3.22,6.84-3.22
			C1040.73,559.51,1042.26,559.95,1044.41,560.83z M1055.2,620.02c-0.13-0.83-0.62-1.97-1.45-3.42c-1.05-1.84-1.67-2.98-1.84-3.42
			c-1.89-7.23-5.37-15.61-10.46-25.12c-4.91,7.41-7.23,11.84-6.97,13.29l-4.08,3.75c-1.14,3.25-2.92,8.16-5.33,14.73h8.88
			c0.75,0.31,2.43,0.64,5.06,0.99l1.32-0.99h1.58c1.05,0,2.61,0.11,4.67,0.33c2.06,0.22,3.62,0.33,4.67,0.33
			C1052.7,620.48,1054.01,620.33,1055.2,620.02z"/>
		<path d="M1113.2,566.55l-1.32-2.89c4.69,2.06,7.04,4.91,7.04,8.55c0,1.32-0.46,2.76-1.38,4.34c-0.09,0.44-0.52,1.42-1.28,2.96
			c-0.77,1.54-1.15,2.37-1.15,2.5c0,0.31,0.02,0.77,0.07,1.38c0.04,0.61,0.07,1.08,0.07,1.38c0,1.27-0.94,3.57-2.83,6.91
			c-2.15,8.46-3.22,17.25-3.22,26.37c0,7.63,1.62,12.3,4.87,14.01c1.45,0.75,3.9,1.12,7.37,1.12c2.89,0,6.53-0.31,10.92-0.92
			c4.87-0.66,8.31-1.4,10.33-2.24c4.52-2.54,11.2-6.49,20.06-11.84c1.58-1.23,3.13-1.84,4.67-1.84c1.31,0,2.64,0.45,3.98,1.35
			c1.34,0.9,2.22,1.92,2.66,3.06c0.09,0.18,0.39,1.49,0.92,3.95c-4.17,7.45-11.16,13.64-20.98,18.55
			c-8.46,4.25-17.74,7.04-27.82,8.35c-1.05,0.13-2.15,0.2-3.29,0.2c-0.31,0-1.62-0.13-3.95-0.39c-9.56-1.1-16.57-4.65-21.05-10.65
			c-3.77-5.09-5.66-10.96-5.66-17.63c0-1.27,0.21-3.18,0.62-5.72c0.42-2.54,0.62-4.45,0.62-5.72c-0.04-0.75-0.04-1.34,0-1.78
			c0.38-5.57,1.07-11.55,2.04-17.96c0.38-2.19,1.21-6.51,2.49-12.96c-0.31-0.79-0.46-1.69-0.46-2.7c0-3.24,0.96-6.16,2.89-8.75
			c2.15-2.85,4.89-4.28,8.22-4.28c0.35,0,0.72,0.02,1.12,0.07C1111.66,564.9,1112.8,565.98,1113.2,566.55z"/>
		<path d="M1263.68,560.83c1.84,0.09,3.3,0.78,4.37,2.07c1.07,1.29,1.61,2.82,1.61,4.57c2.94,4.12,5.02,7.21,6.25,9.27
			c2.1,3.6,3.57,6.97,4.41,10.13c0.09,0.48,0.31,1.38,0.66,2.7c0.66,1.93,5.02,11.09,13.09,27.49c6.75,13.68,10.13,22.67,10.13,26.96
			c0,2.54-0.89,4.73-2.66,6.54c-1.78,1.82-4,2.73-6.68,2.73c-4.6,0-7.63-2.3-9.08-6.91c-1.01-1.45-2.37-4.36-4.08-8.75
			c-8.29,0.61-15.81,0.92-22.56,0.92h-10.79c-1.49,0-3.57-0.07-6.25-0.2c-2.89-0.17-4.98-0.26-6.25-0.26
			c-1.84,3.99-4.12,8.33-6.84,13.02c-1.67,1.23-3.66,1.84-5.99,1.84c-2.59,0-4.79-0.89-6.61-2.66c-1.82-1.78-2.73-3.89-2.73-6.35
			c0-1.01,0.81-3.57,2.43-7.7c-2.24-1.58-3.35-3.92-3.35-7.04c0-2.02,0.68-3.79,2.04-5.33c0.4-0.48,1.86-1.78,4.41-3.88h4.67
			l8.35-19.2c1.36-3.11,6.75-13.64,16.18-31.57c1.88-3.55,3.16-5.72,3.81-6.51c1.8-2.15,4.08-3.22,6.84-3.22
			C1259.99,559.51,1261.53,559.95,1263.68,560.83z M1274.46,620.02c-0.13-0.83-0.62-1.97-1.45-3.42c-1.05-1.84-1.67-2.98-1.84-3.42
			c-1.89-7.23-5.37-15.61-10.46-25.12c-4.91,7.41-7.23,11.84-6.97,13.29l-4.08,3.75c-1.14,3.25-2.92,8.16-5.33,14.73h8.88
			c0.75,0.31,2.43,0.64,5.06,0.99l1.32-0.99h1.58c1.05,0,2.61,0.11,4.67,0.33c2.06,0.22,3.62,0.33,4.67,0.33
			C1271.96,620.48,1273.28,620.33,1274.46,620.02z"/>
		<path d="M1364.17,581.08c-2.24,0.04-4.98,0.11-8.22,0.2c-0.13,0.96-0.35,2.43-0.66,4.41c0,0.57,0.03,1.45,0.1,2.63
			c0.07,1.18,0.1,2.1,0.1,2.76c0,0.22-0.24,1.08-0.72,2.57c-0.04,1.18-0.53,5.81-1.45,13.88c-0.13,1.18-0.2,2-0.2,2.43l-5.26,0.07
			c1.71,0,2.57,1.6,2.57,4.8c1.23-2.02,1.95-3.03,2.17-3.03c0.09,0.04,0.13,0.18,0.13,0.39c0,0.18-0.08,0.89-0.23,2.14
			c-0.15,1.25-0.23,2.31-0.23,3.19c0,2.02-0.2,5-0.59,8.94l0.39,2.7c-0.66,1.54-1.14,5.19-1.45,10.95
			c-0.31,5.77-0.99,9.88-2.04,12.33c-1.71,3.9-4.74,5.85-9.08,5.85c-0.35,0-0.7-0.02-1.05-0.07l-1.78-0.2l-2.1-1.25
			c-0.88-1.27-1.4-2.1-1.58-2.5l0.53,1.45c-1.32-1.49-2-3.27-2.04-5.33l0.26,1.05c0.26-9.25,0.39-13.26,0.39-12.04
			c0-0.26-0.06-0.65-0.16-1.15c-0.11-0.5-0.17-0.89-0.17-1.15c0-1.49,0.44-3.66,1.32-6.51c0.88-2.85,1.32-5,1.32-6.45
			c0-0.66-0.1-1.65-0.3-2.99c-0.2-1.34-0.3-2.33-0.3-2.99c0-0.96,0.12-2.36,0.36-4.18c0.24-1.82,0.36-3.17,0.36-4.04l-0.39-2.7
			c0.83-1.75,1.25-3.81,1.25-6.18l-0.4-2.7l2.43-15.52c-1.1,0.18-1.82,0.22-2.17,0.13c-1.8,0.18-4.93,0.42-9.41,0.72h-0.39
			l-0.46,0.21c-2.54,0.21-5.11,0.32-7.7,0.32c-0.83,0-2.05,0.14-3.65,0.43c-1.6,0.29-2.82,0.43-3.65,0.43
			c-5.04,0-7.56-2.72-7.56-8.16c0-0.35,0.02-0.68,0.07-0.99l-0.72-2.17l1.84-1.78c1.18-2.32,2.61-3.86,4.27-4.6
			c1.32-0.57,3.46-0.85,6.45-0.85c1.27,0,3.24-0.27,5.92-0.82c2.67-0.55,4.74-0.8,6.18-0.76h2.24l1.25,0.66l1.78-0.99
			c2.89-0.09,6.45-0.39,10.65-0.92l1.58,0.85l1.51-1.18c4.17-0.17,6.33-0.26,6.51-0.26c2.63-0.26,4.71-0.81,6.25-1.64l2.3,1.25
			c2.41-0.79,6.23-1.18,11.44-1.18c1.01,0,2.5-0.24,4.47-0.72c1.97-0.48,3.46-0.72,4.47-0.72c0.39,0,0.98,0.04,1.74,0.13
			c0.77,0.09,1.35,0.13,1.74,0.13c3.2,0,5.17,0.09,5.92,0.26c1.75,0.48,3.18,1.75,4.27,3.81l2.1,1.32l-1.25,1.58
			c0.04,0.35,0.07,0.68,0.07,0.99c0,1.01-0.48,2.79-1.45,5.33c0-0.04,0.04-0.37,0.13-0.99c0.13-0.7,0.2-1.12,0.2-1.25
			c-0.09,0.26-0.18,0.5-0.26,0.72c-0.26,0.92-0.66,2.57-1.18,4.93l-3.35,0.92h-0.53c-1.27,0.44-2.89,0.75-4.87,0.92
			c-3.33,0.31-5.09,0.46-5.26,0.46L1364.17,581.08z"/>
		<path d="M1477.36,560.83c1.84,0.09,3.3,0.78,4.37,2.07c1.07,1.29,1.61,2.82,1.61,4.57c2.94,4.12,5.02,7.21,6.25,9.27
			c2.1,3.6,3.57,6.97,4.41,10.13c0.09,0.48,0.31,1.38,0.66,2.7c0.66,1.93,5.02,11.09,13.09,27.49c6.75,13.68,10.13,22.67,10.13,26.96
			c0,2.54-0.89,4.73-2.66,6.54c-1.78,1.82-4,2.73-6.68,2.73c-4.6,0-7.63-2.3-9.08-6.91c-1.01-1.45-2.37-4.36-4.08-8.75
			c-8.29,0.61-15.81,0.92-22.56,0.92h-10.79c-1.49,0-3.57-0.07-6.25-0.2c-2.89-0.17-4.98-0.26-6.25-0.26
			c-1.84,3.99-4.12,8.33-6.84,13.02c-1.67,1.23-3.66,1.84-5.98,1.84c-2.59,0-4.79-0.89-6.61-2.66c-1.82-1.78-2.73-3.89-2.73-6.35
			c0-1.01,0.81-3.57,2.43-7.7c-2.24-1.58-3.35-3.92-3.35-7.04c0-2.02,0.68-3.79,2.04-5.33c0.4-0.48,1.86-1.78,4.41-3.88h4.67
			l8.35-19.2c1.36-3.11,6.75-13.64,16.18-31.57c1.88-3.55,3.16-5.72,3.81-6.51c1.8-2.15,4.08-3.22,6.84-3.22
			C1473.68,559.51,1475.21,559.95,1477.36,560.83z M1488.15,620.02c-0.13-0.83-0.61-1.97-1.45-3.42c-1.05-1.84-1.67-2.98-1.84-3.42
			c-1.89-7.23-5.37-15.61-10.46-25.12c-4.91,7.41-7.23,11.84-6.97,13.29l-4.08,3.75c-1.14,3.25-2.92,8.16-5.33,14.73h8.88
			c0.75,0.31,2.43,0.64,5.06,0.99l1.32-0.99h1.58c1.05,0,2.61,0.11,4.67,0.33c2.06,0.22,3.62,0.33,4.67,0.33
			C1485.65,620.48,1486.96,620.33,1488.15,620.02z"/>
		<path d="M810.03,742.72c-2.24,0.04-4.98,0.11-8.22,0.2c-0.13,0.96-0.35,2.43-0.66,4.41c0,0.57,0.03,1.45,0.1,2.63
			c0.07,1.18,0.1,2.1,0.1,2.76c0,0.22-0.24,1.08-0.72,2.57c-0.04,1.18-0.53,5.81-1.45,13.88c-0.13,1.18-0.2,2-0.2,2.43l-5.26,0.07
			c1.71,0,2.56,1.6,2.56,4.8c1.23-2.02,1.95-3.03,2.17-3.03c0.09,0.04,0.13,0.18,0.13,0.39c0,0.18-0.08,0.89-0.23,2.14
			c-0.15,1.25-0.23,2.31-0.23,3.19c0,2.02-0.2,5-0.59,8.94l0.39,2.7c-0.66,1.54-1.14,5.19-1.45,10.95
			c-0.31,5.77-0.99,9.88-2.04,12.33c-1.71,3.9-4.74,5.85-9.08,5.85c-0.35,0-0.7-0.02-1.05-0.07l-1.78-0.2l-2.1-1.25
			c-0.88-1.27-1.4-2.1-1.58-2.5l0.53,1.45c-1.32-1.49-2-3.27-2.04-5.33l0.26,1.05c0.26-9.25,0.39-13.26,0.39-12.04
			c0-0.26-0.06-0.65-0.16-1.15c-0.11-0.5-0.16-0.89-0.16-1.15c0-1.49,0.44-3.66,1.32-6.51c0.88-2.85,1.32-5,1.32-6.45
			c0-0.66-0.1-1.65-0.3-2.99c-0.2-1.34-0.3-2.33-0.3-2.99c0-0.96,0.12-2.36,0.36-4.18c0.24-1.82,0.36-3.17,0.36-4.04l-0.39-2.7
			c0.83-1.75,1.25-3.81,1.25-6.18l-0.4-2.7l2.43-15.52c-1.1,0.18-1.82,0.22-2.17,0.13c-1.8,0.18-4.93,0.42-9.4,0.72h-0.39l-0.46,0.21
			c-2.54,0.21-5.11,0.32-7.7,0.32c-0.83,0-2.05,0.14-3.65,0.43c-1.6,0.29-2.82,0.43-3.65,0.43c-5.04,0-7.56-2.72-7.56-8.16
			c0-0.35,0.02-0.68,0.07-0.99l-0.72-2.17l1.84-1.78c1.18-2.32,2.61-3.86,4.27-4.6c1.32-0.57,3.46-0.85,6.45-0.85
			c1.27,0,3.24-0.27,5.92-0.82c2.67-0.55,4.74-0.8,6.18-0.76h2.24l1.25,0.66l1.78-0.99c2.89-0.09,6.45-0.39,10.65-0.92l1.58,0.85
			l1.51-1.18c4.17-0.17,6.34-0.26,6.51-0.26c2.63-0.26,4.71-0.81,6.25-1.64l2.3,1.25c2.41-0.79,6.23-1.18,11.44-1.18
			c1.01,0,2.5-0.24,4.47-0.72s3.46-0.72,4.47-0.72c0.39,0,0.98,0.04,1.74,0.13c0.77,0.09,1.35,0.13,1.74,0.13
			c3.2,0,5.17,0.09,5.92,0.26c1.75,0.48,3.18,1.75,4.27,3.81l2.1,1.32l-1.25,1.58c0.04,0.35,0.07,0.68,0.07,0.99
			c0,1.01-0.48,2.79-1.45,5.33c0-0.04,0.04-0.37,0.13-0.99c0.13-0.7,0.2-1.12,0.2-1.25c-0.09,0.26-0.18,0.5-0.26,0.72
			c-0.26,0.92-0.66,2.57-1.18,4.93l-3.35,0.92h-0.53c-1.27,0.44-2.89,0.75-4.87,0.92c-3.33,0.31-5.09,0.46-5.26,0.46L810.03,742.72z"
			/>
		<path d="M869.94,737.39c0,6.88,0.17,13.4,0.53,19.53c0.22,3.9,0.33,6.51,0.33,7.83c0,1.54-0.13,3.81-0.4,6.84
			c-0.26,3.03-0.39,5.31-0.39,6.84c0,0.09,0.04,0.68,0.13,1.78c0.35,5.52,0.46,12.36,0.33,20.52c0.83,1.62,1.25,3.16,1.25,4.6
			c0,2.67-1.11,4.94-3.32,6.81c-2.21,1.86-4.75,2.79-7.6,2.79c-2.72,0-5.08-1.02-7.07-3.06c-2-2.04-2.99-4.37-2.99-7
			c0-1.32,0.26-2.65,0.79-4.01c-0.44-9.78-0.44-18.98,0-27.62c0.35-6.75,0.53-11.82,0.53-15.19c0-1.71-0.16-4.24-0.49-7.6
			c-0.33-3.35-0.49-5.86-0.49-7.53v-6.05c-1.71-1.8-2.56-3.79-2.56-5.99c0-3.2,1.29-5.79,3.88-7.76c2.37-1.84,5.28-2.76,8.75-2.76
			c3.2,0,5.97,1.02,8.32,3.06c2.35,2.04,3.52,4.55,3.52,7.53C872.96,733.31,871.95,735.46,869.94,737.39z"/>
		<path d="M917.81,747.06l0.26,0.33c0.13,0.48,1.53,3.03,4.21,7.63c0.79,1.84,1.78,4.01,2.96,6.51c1.1,1.75,3.68,5.94,7.76,12.56
			c1.62-2.15,4.91-7.52,9.87-16.11c1.62-3.95,4.69-9.89,9.21-17.82c0.53-0.7,1.56-2.1,3.09-4.21c0.79-1.49,2.06-3.66,3.81-6.51
			c0.66-0.75,1.47-1.8,2.43-3.16c0.35-0.66,1.03-1.53,2.04-2.63c2.24-1.53,4.54-2.37,6.91-2.5c0.79-0.31,1.64-0.46,2.56-0.46
			c0.31,0,0.66,0.04,1.05,0.13c0.66,0.09,1.53,0.35,2.63,0.79c2.1,2.37,3.16,4.14,3.16,5.33c0,0.26-0.02,0.55-0.07,0.86
			c0.22,0.92,0.68,2.7,1.38,5.33c1.01,6.05,2.26,15.19,3.75,27.43c0.22,3.03,0.5,5.9,0.86,8.62c0.17,0.79,0.31,1.36,0.39,1.71
			c-1.67,0.79-2.85,0.39-3.55-1.18c0,1.01-0.48,1.73-1.45,2.17h5.26c0,0.57-0.06,1.41-0.16,2.53c-0.11,1.12-0.17,1.96-0.17,2.53
			c0,1.23,0.09,2.83,0.26,4.8c0.17,2.54,0.28,4.17,0.33,4.87c0.35,7.76,0.5,13.35,0.46,16.77v3.81l-0.2,0.33
			c-0.14,0.61-0.43,1.54-0.89,2.76l-0.41,0.39l-0.34,0.46l0.33-0.66c-1.36,1.75-2.59,2.78-3.68,3.09l1.05-0.59
			c-0.44,0.22-1.64,0.66-3.6,1.32l-0.26,0.07h-0.39c-3.01,0-5.39-1.1-7.13-3.29c-0.22-0.39-0.59-0.99-1.11-1.78l-0.26-0.85
			l-0.52-0.59c0-1.14-0.12-2.63-0.36-4.47c-0.29-2.24-0.45-3.7-0.5-4.41l2.24-0.2c-1.27-0.26-2.02-0.31-2.24-0.13v-0.99
			c0-0.57,0-2.21,0-4.93c0-1.88-0.24-4.76-0.72-8.62c1.58-0.92,2.43-1.14,2.57-0.66l0.66,0.07c1.23,0.18,1.88,0.18,1.97,0h-5.26
			c0-0.22,0.02-0.58,0.07-1.08c0.04-0.5,0.07-0.89,0.07-1.15c0-0.48-0.1-1.23-0.3-2.24c-0.2-1.01-0.3-1.75-0.3-2.24
			c0.04-0.39,0.13-1.03,0.26-1.91c-0.26-1.01-1.03-7.65-2.3-19.93c-6.23,11.58-11.64,21.05-16.24,28.41
			c-1.75,2.28-3.53,4.54-5.33,6.77c-2.46,2.94-4.58,4.6-6.38,5l1.51-0.07c-0.09,0.04-0.38,0.18-0.89,0.39
			c-0.5,0.22-1.22,0.5-2.14,0.86l0.2-0.2c0.48-0.61,1.67-0.92,3.55-0.92c-1.23,0.35-2.13,0.59-2.7,0.72l-0.85,0.2
			c-1.45,0.31-2.63,0.46-3.55,0.46c-0.61,0-1.45-0.15-2.5-0.46c-1.18-0.31-2.02-0.5-2.5-0.59c-1.75-1.4-3-2.26-3.75-2.57l-0.66-0.85
			c-2.67-2.28-5.58-5.82-8.71-10.62c-3.14-4.8-5.16-8.93-6.08-12.4c-1.67-2.1-3.88-5.92-6.64-11.44l-2.5-5
			c-0.57,3.6-0.85,6.4-0.85,8.42c0,0.53,0.05,1.36,0.16,2.5c0.05,0.35,0.13,3.95,0.24,10.79v6.51c0,1.18-0.11,2.95-0.33,5.29
			c-0.22,2.35-0.33,4.11-0.33,5.29c0,1.67,0.11,4.17,0.33,7.5c0.22,3.33,0.33,5.83,0.33,7.5c0,0.83-0.77,2.63-2.3,5.39l-0.79,0.46
			l0.72-0.66c-2.38,1.8-4.6,2.7-6.67,2.7c-2.99,0-5.29-1.01-6.87-3.03c-0.09-0.13-0.33-0.46-0.73-0.99l-0.33-0.33l-0.73-2.17
			l0.2,0.33c-0.13-0.61-0.2-1.69-0.2-3.22h5.26c0,0.92,1.42-5.08,4.27-18.02c-2.15,5.92-3.31,9.12-3.49,9.6l-3.38,9.6
			c-0.87,0.53-1.54,0.79-2.02,0.79c-0.35,0-0.54-0.17-0.59-0.53l-0.06-0.26v-0.72c-0.39-7.15-0.59-14.14-0.59-20.98
			c0-7.8,0.15-13.24,0.46-16.31c0.09-0.79,0.13-1.38,0.13-1.78c0-0.26-0.04-0.68-0.13-1.25c-0.09-0.57-0.13-0.99-0.13-1.25l0.66-4.08
			v-2.57c0-3.29,0.79-11.2,2.37-23.74c-0.66-1.45-0.99-2.63-0.99-3.55c0-2.41,1.16-4.67,3.49-6.77c0.39-0.17,1.32-0.68,2.76-1.51
			h0.26h0.26h0.13l0.26-0.26h0.72c0.53,0,0.88,0,1.05,0h-0.53c0.57-0.13,1.05-0.2,1.45-0.2l-1.18,0.26
			c3.68-0.31,7.26,1.08,10.72,4.14c2.06,2.15,4.25,4.74,6.58,7.76c0.7,1.18,1.88,2.94,3.55,5.26c1.84,2.1,2.94,3.4,3.29,3.88
			C916.56,743.6,917.24,745.13,917.81,747.06z"/>
		<path d="M1078.75,806.58c-0.83,0.26-5.33,1.05-13.48,2.37l-31.04,5c-0.92,0.17-1.8,0.26-2.63,0.26c-0.31,0-0.79-0.03-1.45-0.1
			c-0.66-0.07-1.14-0.1-1.45-0.1c-1.1,0-2.72,0.21-4.87,0.62c-2.15,0.42-3.77,0.62-4.87,0.62c-2.19,0-4.98-1.05-8.35-3.16
			c-3.11-1.93-5.37-3.84-6.77-5.72c-1.49-2.06-3.31-6.47-5.46-13.22c0.13-1.18,0.2-2.15,0.2-2.89c0-1.01-0.11-2.41-0.33-4.21
			c-0.18-1.97-0.28-3.38-0.33-4.21c-0.31-10.87-0.09-20.17,0.66-27.89c0.09-0.66,0.59-6.14,1.51-16.44c-0.13-0.48-0.2-0.99-0.2-1.51
			c0-2.1,1.27-4.27,3.81-6.51c2.15-1.88,4.45-3.24,6.91-4.08c0.57-0.17,1.67-0.31,3.29-0.39c1.14-0.09,2.21-0.5,3.22-1.25
			c10.48-1.84,29.31-4.65,56.5-8.42c2.28,0,4.12,0.82,5.52,2.47c1.4,1.64,2.1,3.58,2.1,5.82c0,3.2-1.03,5.9-3.09,8.09
			c-2.15,2.32-4.89,3.49-8.22,3.49c-1.27,0-2.46-0.26-3.55-0.79c-6.75,0.44-16.84,1.58-30.25,3.42l-13.81,2.83l-3.09,2.17
			c-1.14,4.56-1.75,7.39-1.84,8.48c0-0.22,0,2.65,0,8.62c0,1.58-0.11,3.16-0.33,4.74c6.09-0.66,12.19-1.32,18.28-1.97
			c6.97-0.88,13.02-1.88,18.15-3.03l15.06-3.49l5.52,2.04c2.72,1.49,4.08,3.44,4.08,5.85c0,2.15-0.72,4.25-2.17,6.31
			c-1.45,2.06-3.22,3.35-5.33,3.88l0.53-0.2c-0.53,0.18-7.5,1.56-20.92,4.14c-4.6,0.92-16.16,2.5-34.66,4.74
			c0.22,6.01,1.14,10.02,2.76,12.04c0.35,0.44,3.72,0.66,10.12,0.66c1.31,0,2.94-0.17,4.87-0.5c9.51-1.27,23.81-3.28,42.88-6.04
			c0.66-0.07,1.25-0.11,1.78-0.11c5.26,0,7.9,2.61,7.9,7.83C1085.92,801.63,1083.53,804.87,1078.75,806.58z"/>
		<path d="M1128.19,804.8c-0.31,2.94-1.93,5.44-4.87,7.5c-2.76,1.97-5.72,2.96-8.88,2.96c-2.37,0-4.25-0.88-5.66-2.63
			c-1.14-1.05-2.61-2.78-4.41-5.2c-0.57-1.18-0.86-2.92-0.86-5.2c0-0.44-0.09-1.11-0.26-2.01c-0.17-0.9-0.26-1.59-0.26-2.07
			c0-2.54,1.32-4.92,3.95-7.14c2.63-2.21,5.3-3.32,8.02-3.32c3.46,0,6.01,0.44,7.63,1.32c1.97,1.01,3.64,3.03,5,6.05
			c0.66,1.49,0.99,3.03,0.99,4.6C1128.58,800.38,1128.45,802.09,1128.19,804.8z M1145.68,742.26c-1.93,3.46-4.5,9.23-7.7,17.3
			c-0.57,1.23-1.12,2.56-1.64,4.01c-2.28,6.14-5.42,13.72-9.41,22.76l-0.92-0.26c-1.45,1.84-3.27,2.76-5.46,2.76
			c-5.61,0-8.42-2.52-8.42-7.56c0-0.88,0.07-2.17,0.2-3.88s0.2-2.98,0.2-3.81c0-3.29-0.32-8.22-0.95-14.8
			c-0.64-6.58-0.95-11.51-0.95-14.8c0-0.26,0.04-0.63,0.13-1.12c0.09-0.48,0.13-0.83,0.13-1.05c0-1.05-0.11-2.61-0.33-4.67
			c-0.22-2.06-0.33-3.64-0.33-4.74c0-7.67,1.91-11.64,5.72-11.9c1.14-0.09,6.18-0.28,15.13-0.59c4.21,1.4,7.37,2.54,9.47,3.42
			c4.52,1.84,7.15,3.42,7.89,4.74c0.44,0.75,0.66,1.62,0.66,2.63C1149.1,733.18,1147.96,737.04,1145.68,742.26z"/>
	</g>
</svg>
